<svg width="41" height="41" viewBox="0 0 41 41" fill="none" xmlns="http://www.w3.org/2000/svg">
<circle opacity="0.5" cx="20.5" cy="20.5" r="19.5" fill="url(#paint0_linear_49_13705)" stroke="url(#paint1_linear_49_13705)" style="" stroke-width="0.658092" stroke-miterlimit="10"/>
<path d="M33.8396 21.7384C33.6451 19.5548 33.3247 19.1296 33.2036 18.9696C32.9253 18.6 32.4801 18.3585 32.0089 18.105C31.9822 18.0909 31.9592 18.0709 31.9417 18.0463C31.9241 18.0218 31.9125 17.9936 31.9077 17.9638C31.903 17.9341 31.9052 17.9036 31.9142 17.8748C31.9232 17.8461 31.9388 17.8198 31.9597 17.7981C32.047 17.7096 32.114 17.6033 32.1563 17.4864C32.1985 17.3695 32.215 17.2449 32.2045 17.121C32.1842 16.9014 32.0821 16.6975 31.9184 16.5497C31.7548 16.4018 31.5415 16.3209 31.321 16.3229H30.478C30.4419 16.3231 30.4058 16.3255 30.37 16.3299C30.3453 16.3193 30.3199 16.3108 30.2938 16.3045C29.7945 15.2492 29.1109 13.8043 27.6941 13.0991C25.5926 12.054 21.7214 12 20.9649 12C20.2084 12 16.3372 12.054 14.2385 13.0975C12.8216 13.8027 12.1381 15.2476 11.6388 16.3029L11.6345 16.3116C11.6095 16.3151 11.5851 16.3212 11.5615 16.3299C11.5256 16.3255 11.4896 16.3231 11.4534 16.3229H10.6088C10.3883 16.3209 10.1751 16.4018 10.0114 16.5497C9.84778 16.6975 9.74567 16.9014 9.72534 17.121C9.71575 17.2446 9.73294 17.3687 9.77574 17.485C9.81855 17.6013 9.88596 17.707 9.97337 17.7949C9.99428 17.8166 10.0099 17.8428 10.0189 17.8716C10.0279 17.9004 10.0301 17.9308 10.0253 17.9606C10.0206 17.9904 10.009 18.0186 9.99141 18.0431C9.97385 18.0676 9.95084 18.0877 9.9242 18.1018C9.453 18.3568 9.00558 18.5984 8.72945 18.9664C8.60841 19.1285 8.28852 19.5516 8.09344 21.7352C7.98537 22.964 7.96916 24.236 8.054 25.0552C8.23178 26.7573 8.56518 27.7862 8.57923 27.8289C8.63039 27.9842 8.72457 28.1219 8.85082 28.2258C8.97708 28.3298 9.13024 28.3958 9.29251 28.4163V28.4271C9.29251 28.6564 9.3836 28.8763 9.54574 29.0384C9.70788 29.2006 9.92779 29.2916 10.1571 29.2916H13.1831C13.4124 29.2916 13.6323 29.2006 13.7945 29.0384C13.9566 28.8763 14.0477 28.6564 14.0477 28.4271C14.513 28.4271 14.8366 28.3439 15.1798 28.2552C15.6752 28.1217 16.1815 28.0329 16.6928 27.9899C18.3414 27.8327 19.9809 27.7786 20.9649 27.7786C21.9289 27.7786 23.6408 27.8327 25.2922 27.9899C25.8054 28.033 26.3138 28.1222 26.8111 28.2563C27.1397 28.3406 27.4514 28.4184 27.8832 28.4265C27.8832 28.6558 27.9743 28.8757 28.1364 29.0379C28.2986 29.2 28.5185 29.2911 28.7478 29.2911H31.7738C32.0031 29.2911 32.223 29.2 32.3852 29.0379C32.5473 28.8757 32.6384 28.6558 32.6384 28.4265V28.42C32.8011 28.4 32.9547 28.3342 33.0814 28.2302C33.208 28.1262 33.3025 27.9883 33.3538 27.8327C33.3679 27.79 33.7013 26.7611 33.8791 25.059C33.9639 24.2392 33.9488 22.9694 33.8396 21.7384ZM13.2015 17.0421C13.6338 16.1235 14.1282 15.0839 15.0085 14.6456C16.2805 14.0123 18.9169 13.727 20.9649 13.727C23.0129 13.727 25.6493 14.0102 26.9213 14.6456C27.8016 15.0839 28.2939 16.1241 28.7283 17.0421L28.7824 17.1594C28.814 17.2262 28.8279 17.2999 28.8229 17.3736C28.8179 17.4473 28.7942 17.5184 28.7538 17.5803C28.7135 17.6422 28.658 17.6927 28.5926 17.7271C28.5273 17.7614 28.4542 17.7784 28.3803 17.7765C26.5847 17.7279 22.8022 17.5722 20.9649 17.5722C19.1277 17.5722 15.3451 17.7316 13.5468 17.7803C13.473 17.7822 13.3999 17.7652 13.3345 17.7308C13.2691 17.6965 13.2136 17.646 13.1733 17.5841C13.133 17.5222 13.1092 17.451 13.1042 17.3774C13.0992 17.3037 13.1132 17.2299 13.1448 17.1632C13.1637 17.1232 13.1837 17.0827 13.2015 17.0421ZM13.8462 21.3451C12.9166 21.4569 11.9812 21.5121 11.0449 21.5104C10.4721 21.5104 9.88151 21.3483 9.77182 20.8382C9.6967 20.4951 9.70481 20.3022 9.74534 20.1082C9.77938 19.9434 9.83342 19.8234 10.1036 19.7812C10.8061 19.6732 11.1989 19.8088 12.3488 20.1476C13.1113 20.3719 13.6614 20.6707 13.9748 20.9074C14.132 21.0241 14.0483 21.3288 13.8462 21.3451ZM25.8087 25.776C25.0976 25.8571 23.6754 25.8274 20.9811 25.8274C18.2869 25.8274 16.8652 25.8571 16.1541 25.776C15.4202 25.6944 14.4849 25.0006 15.1236 24.3824C15.5488 23.975 16.541 23.6702 17.8621 23.4989C19.1833 23.3277 19.7426 23.2396 20.9757 23.2396C22.2088 23.2396 22.7114 23.2936 24.0893 23.4995C25.4672 23.7054 26.5085 24.0139 26.8279 24.383C27.4104 25.0444 26.542 25.6901 25.8087 25.7793V25.776ZM32.158 20.8377C32.0499 21.3499 31.4555 21.5099 30.8849 21.5099C29.9308 21.5101 28.9774 21.4549 28.0296 21.3445C27.8643 21.3288 27.7875 21.0387 27.9551 20.9068C28.2636 20.6642 28.8196 20.3713 29.581 20.1471C30.7309 19.8083 31.3939 19.6726 31.9635 19.7856C32.1024 19.8131 32.1758 19.9623 32.1845 20.0557C32.2226 20.316 32.2136 20.5811 32.158 20.8382V20.8377Z" fill="white" style="fill:white;fill-opacity:1;"/>
<defs>
<linearGradient id="paint0_linear_49_13705" x1="38.8406" y1="6.32044" x2="-3.42408" y2="18.2123" gradientUnits="userSpaceOnUse">
<stop offset="0.01" stop-color="white" stop-opacity="0.68" style="stop-color:white;stop-opacity:0.68;"/>
<stop offset="0.06" stop-color="white" stop-opacity="0.57" style="stop-color:white;stop-opacity:0.57;"/>
<stop offset="0.11" stop-color="white" stop-opacity="0.47" style="stop-color:white;stop-opacity:0.47;"/>
<stop offset="0.16" stop-color="white" stop-opacity="0.39" style="stop-color:white;stop-opacity:0.39;"/>
<stop offset="0.23" stop-color="white" stop-opacity="0.34" style="stop-color:white;stop-opacity:0.34;"/>
<stop offset="0.31" stop-color="white" stop-opacity="0.31" style="stop-color:white;stop-opacity:0.31;"/>
<stop offset="0.47" stop-color="white" stop-opacity="0.3" style="stop-color:white;stop-opacity:0.3;"/>
<stop offset="0.62" stop-color="white" stop-opacity="0.31" style="stop-color:white;stop-opacity:0.31;"/>
<stop offset="0.7" stop-color="white" stop-opacity="0.34" style="stop-color:white;stop-opacity:0.34;"/>
<stop offset="0.76" stop-color="white" stop-opacity="0.39" style="stop-color:white;stop-opacity:0.39;"/>
<stop offset="0.82" stop-color="white" stop-opacity="0.46" style="stop-color:white;stop-opacity:0.46;"/>
<stop offset="0.86" stop-color="white" stop-opacity="0.56" style="stop-color:white;stop-opacity:0.56;"/>
<stop offset="0.91" stop-color="white" stop-opacity="0.68" style="stop-color:white;stop-opacity:0.68;"/>
<stop offset="0.95" stop-color="white" stop-opacity="0.82" style="stop-color:white;stop-opacity:0.82;"/>
<stop offset="0.98" stop-color="white" stop-opacity="0.98" style="stop-color:white;stop-opacity:0.98;"/>
<stop offset="0.99" stop-color="white" style="stop-color:white;stop-opacity:1;"/>
</linearGradient>
<linearGradient id="paint1_linear_49_13705" x1="20.4983" y1="0.785878" x2="20.4983" y2="40.2141" gradientUnits="userSpaceOnUse">
<stop stop-color="white" stop-opacity="0.25" style="stop-color:white;stop-opacity:0.25;"/>
<stop offset="0.06" stop-color="white" stop-opacity="0.36" style="stop-color:white;stop-opacity:0.36;"/>
<stop offset="0.2" stop-color="white" stop-opacity="0.63" style="stop-color:white;stop-opacity:0.63;"/>
<stop offset="0.32" stop-color="white" stop-opacity="0.83" style="stop-color:white;stop-opacity:0.83;"/>
<stop offset="0.41" stop-color="white" stop-opacity="0.95" style="stop-color:white;stop-opacity:0.95;"/>
<stop offset="0.47" stop-color="white" style="stop-color:white;stop-opacity:1;"/>
<stop offset="0.53" stop-color="white" stop-opacity="0.98" style="stop-color:white;stop-opacity:0.98;"/>
<stop offset="0.61" stop-color="white" stop-opacity="0.91" style="stop-color:white;stop-opacity:0.91;"/>
<stop offset="0.7" stop-color="white" stop-opacity="0.81" style="stop-color:white;stop-opacity:0.81;"/>
<stop offset="0.79" stop-color="white" stop-opacity="0.66" style="stop-color:white;stop-opacity:0.66;"/>
<stop offset="0.9" stop-color="white" stop-opacity="0.47" style="stop-color:white;stop-opacity:0.47;"/>
<stop offset="1" stop-color="white" stop-opacity="0.25" style="stop-color:white;stop-opacity:0.25;"/>
</linearGradient>
</defs>
</svg>
