<svg width="41" height="41" viewBox="0 0 41 41" fill="none" xmlns="http://www.w3.org/2000/svg">
<circle opacity="0.5" cx="20.5" cy="20.5" r="19.5" fill="url(#paint0_linear_49_13677)" stroke="url(#paint1_linear_49_13677)" style="" stroke-width="0.658092" stroke-miterlimit="10"/>
<path d="M28.8512 8.06725C27.8798 8.33623 27.0629 9.16808 26.8039 10.1593C26.7093 10.5379 26.7093 11.2552 26.8089 11.6437C26.9035 12.0223 27.048 12.2962 28.2634 14.468C29.3343 16.3808 29.3692 16.4206 29.6581 16.2562C29.7478 16.2064 30.1811 15.5539 30.9731 14.2688C31.6257 13.2128 32.2035 12.2564 32.2583 12.1368C32.5422 11.5341 32.592 10.6624 32.3828 9.99494C32.0889 9.05849 31.3118 8.3163 30.3654 8.06725C30.0267 7.97758 29.1849 7.97758 28.8512 8.06725ZM30.1164 9.88536C30.6842 10.1743 30.9084 10.8567 30.6145 11.4295C30.1562 12.3211 28.8263 12.1817 28.5473 11.2054C28.2734 10.2639 29.2497 9.44204 30.1164 9.88536Z" fill="white" style="fill:white;fill-opacity:1;"/>
<path d="M18.959 8.72472C16.1148 9.00864 13.5843 10.1792 11.552 12.1468C10.0527 13.5913 8.99174 15.2948 8.35415 17.2624C8.18479 17.7804 7.98057 18.6023 8.01543 18.6322C8.0254 18.6422 8.13498 18.6172 8.25453 18.5724C8.61815 18.4379 9.51974 18.423 10.1673 18.5425C10.9941 18.6969 11.2183 18.7119 11.7612 18.6521C12.4586 18.5724 12.8471 18.4778 13.2705 18.2735C13.7886 18.0245 14.0775 17.7107 14.5009 16.9436C15.2829 15.519 15.7113 15.1703 17.6489 14.3733C19.223 13.7308 20.2541 12.8292 20.8817 11.554C21.2453 10.8068 21.3649 10.2988 21.3698 9.43702L21.3748 8.76457L21.1009 8.7297C20.8169 8.69981 19.2678 8.68985 18.959 8.72472Z" fill="white" style="fill:white;fill-opacity:1;"/>
<path d="M23.0284 9.6811C22.9437 11.3 22.3211 12.7445 21.1704 13.9599C20.3486 14.8366 19.4121 15.4393 17.9377 16.037C16.802 16.5003 16.4732 16.7493 16.0947 17.4367C15.6763 18.1939 15.4372 18.5674 15.208 18.8314C14.3413 19.8028 13.0064 20.3108 11.2879 20.3158C10.715 20.3158 10.451 20.2909 10.0177 20.2012C9.31037 20.0518 8.87701 20.0767 8.34901 20.2909C8.14478 20.3756 7.92063 20.4403 7.85588 20.4453H7.73633L7.7712 21.327C7.80109 22.1788 7.86584 22.8662 7.91565 22.9209C7.9306 22.9309 8.01029 22.906 8.08999 22.8662C8.17467 22.8213 8.43867 22.7267 8.68275 22.652C9.07626 22.5324 9.1958 22.5175 9.89316 22.5175C10.5905 22.5175 10.7051 22.5324 11.1135 22.6569C12.578 23.1052 13.7137 24.1911 14.2018 25.6207C14.5655 26.6966 14.4758 28.0714 13.9727 29.0677C13.888 29.237 13.5892 29.7501 13.3003 30.2133C13.0113 30.6766 12.7922 31.0751 12.8071 31.1049C12.842 31.1647 13.5742 31.6479 13.9329 31.8471L14.2118 32.0015L14.6302 31.6877C15.1682 31.2793 15.8357 30.5769 16.1893 30.044C16.8966 28.978 17.0062 28.3852 16.9365 25.9495C16.8767 23.952 16.8966 23.2298 17.0112 22.6669C17.2603 21.4415 17.9227 20.4902 18.8443 20.0269C19.691 19.6035 20.5876 19.6533 21.8977 20.2012C22.8939 20.6147 23.7208 20.8787 24.4132 21.0032C25.0009 21.1078 25.2002 21.1178 26.6049 21.1128C27.616 21.1128 28.4728 21.0829 29.0954 21.0281C30.1265 20.9335 31.6009 20.9185 32.109 20.9932C32.2833 21.0182 32.4378 21.0331 32.4477 21.0231C32.4776 20.9932 32.3581 19.7828 32.2784 19.2997C32.1688 18.6222 31.9496 17.7206 31.7354 17.0631C31.586 16.5999 31.5412 16.5102 31.4864 16.565C31.4565 16.6049 31.1726 17.0482 30.8637 17.5563C30.5549 18.0643 30.2361 18.5724 30.1564 18.692C29.8376 19.1552 29.2399 19.2299 28.8862 18.8464C28.7816 18.7268 25.9523 13.7009 25.5837 12.9736C25.1105 12.0422 25.0258 11.4494 25.1504 9.91023C25.1603 9.76079 25.1553 9.76079 24.5377 9.54661C24.194 9.43204 23.7208 9.28261 23.4867 9.21785L23.0583 9.0983L23.0284 9.6811Z" fill="white" style="fill:white;fill-opacity:1;"/>
<path d="M19.6763 21.4465C19.4222 21.5212 19.0287 21.9098 18.8594 22.2535C18.5705 22.8562 18.5356 23.0803 18.5605 24.3804C18.6253 27.6231 18.5854 28.46 18.3314 29.3416C18.0225 30.4175 17.2355 31.628 16.309 32.4648L15.9454 32.7886L16.4435 32.943C17.0911 33.1472 17.898 33.3215 18.6352 33.4261C19.482 33.5407 21.2752 33.5009 22.122 33.3514C23.3773 33.1273 24.3287 32.8234 25.4096 32.3054C29.0657 30.5471 31.6459 27.0951 32.2736 23.1252L32.3433 22.6968L32.2138 22.6619C31.8253 22.5723 30.3409 22.5822 28.996 22.6868C27.4518 22.8064 25.7582 22.8263 24.9364 22.7366C23.7409 22.6071 22.8592 22.373 21.599 21.85C20.548 21.4067 20.1146 21.317 19.6763 21.4465Z" fill="white" style="fill:white;fill-opacity:1;"/>
<path d="M9.27037 24.201C8.18946 24.455 7.35263 25.257 7.08365 26.308C6.91928 26.9306 7.00396 27.8272 7.27792 28.3602C7.52697 28.8583 9.45965 32.2804 9.52939 32.3601C9.62403 32.4647 9.88803 32.4796 10.0026 32.385C10.147 32.2754 12.4981 28.4051 12.6277 28.0713C12.7422 27.7774 12.7522 27.6679 12.7522 27.0701C12.7522 26.4973 12.7372 26.3528 12.6426 26.1038C12.3238 25.2371 11.6713 24.5895 10.8394 24.3006C10.3861 24.1412 9.70871 24.1014 9.27037 24.201ZM10.3861 26.054C10.8643 26.2931 11.1084 26.8111 10.9839 27.3291C10.8743 27.7874 10.3413 28.2158 9.88305 28.2158C9.64395 28.2158 9.29528 28.0564 9.10101 27.8571C8.54811 27.3092 8.69256 26.4226 9.38992 26.0639C9.7386 25.8796 10.0325 25.8796 10.3861 26.054Z" fill="white" style="fill:white;fill-opacity:1;"/>
<defs>
<linearGradient id="paint0_linear_49_13677" x1="38.8406" y1="6.32044" x2="-3.42408" y2="18.2123" gradientUnits="userSpaceOnUse">
<stop offset="0.01" stop-color="white" stop-opacity="0.68" style="stop-color:white;stop-opacity:0.68;"/>
<stop offset="0.06" stop-color="white" stop-opacity="0.57" style="stop-color:white;stop-opacity:0.57;"/>
<stop offset="0.11" stop-color="white" stop-opacity="0.47" style="stop-color:white;stop-opacity:0.47;"/>
<stop offset="0.16" stop-color="white" stop-opacity="0.39" style="stop-color:white;stop-opacity:0.39;"/>
<stop offset="0.23" stop-color="white" stop-opacity="0.34" style="stop-color:white;stop-opacity:0.34;"/>
<stop offset="0.31" stop-color="white" stop-opacity="0.31" style="stop-color:white;stop-opacity:0.31;"/>
<stop offset="0.47" stop-color="white" stop-opacity="0.3" style="stop-color:white;stop-opacity:0.3;"/>
<stop offset="0.62" stop-color="white" stop-opacity="0.31" style="stop-color:white;stop-opacity:0.31;"/>
<stop offset="0.7" stop-color="white" stop-opacity="0.34" style="stop-color:white;stop-opacity:0.34;"/>
<stop offset="0.76" stop-color="white" stop-opacity="0.39" style="stop-color:white;stop-opacity:0.39;"/>
<stop offset="0.82" stop-color="white" stop-opacity="0.46" style="stop-color:white;stop-opacity:0.46;"/>
<stop offset="0.86" stop-color="white" stop-opacity="0.56" style="stop-color:white;stop-opacity:0.56;"/>
<stop offset="0.91" stop-color="white" stop-opacity="0.68" style="stop-color:white;stop-opacity:0.68;"/>
<stop offset="0.95" stop-color="white" stop-opacity="0.82" style="stop-color:white;stop-opacity:0.82;"/>
<stop offset="0.98" stop-color="white" stop-opacity="0.98" style="stop-color:white;stop-opacity:0.98;"/>
<stop offset="0.99" stop-color="white" style="stop-color:white;stop-opacity:1;"/>
</linearGradient>
<linearGradient id="paint1_linear_49_13677" x1="20.4983" y1="0.785878" x2="20.4983" y2="40.2141" gradientUnits="userSpaceOnUse">
<stop stop-color="white" stop-opacity="0.25" style="stop-color:white;stop-opacity:0.25;"/>
<stop offset="0.06" stop-color="white" stop-opacity="0.36" style="stop-color:white;stop-opacity:0.36;"/>
<stop offset="0.2" stop-color="white" stop-opacity="0.63" style="stop-color:white;stop-opacity:0.63;"/>
<stop offset="0.32" stop-color="white" stop-opacity="0.83" style="stop-color:white;stop-opacity:0.83;"/>
<stop offset="0.41" stop-color="white" stop-opacity="0.95" style="stop-color:white;stop-opacity:0.95;"/>
<stop offset="0.47" stop-color="white" style="stop-color:white;stop-opacity:1;"/>
<stop offset="0.53" stop-color="white" stop-opacity="0.98" style="stop-color:white;stop-opacity:0.98;"/>
<stop offset="0.61" stop-color="white" stop-opacity="0.91" style="stop-color:white;stop-opacity:0.91;"/>
<stop offset="0.7" stop-color="white" stop-opacity="0.81" style="stop-color:white;stop-opacity:0.81;"/>
<stop offset="0.79" stop-color="white" stop-opacity="0.66" style="stop-color:white;stop-opacity:0.66;"/>
<stop offset="0.9" stop-color="white" stop-opacity="0.47" style="stop-color:white;stop-opacity:0.47;"/>
<stop offset="1" stop-color="white" stop-opacity="0.25" style="stop-color:white;stop-opacity:0.25;"/>
</linearGradient>
</defs>
</svg>
