<svg width="41" height="41" viewBox="0 0 41 41" fill="none" xmlns="http://www.w3.org/2000/svg">
<circle opacity="0.5" cx="20.5" cy="20.5" r="19.5" fill="url(#paint0_linear_49_13712)" stroke="url(#paint1_linear_49_13712)" style="" stroke-width="0.658092" stroke-miterlimit="10"/>
<path d="M9.65129 16.673C9.29159 16.673 9 16.9646 9 17.3243V26.8902C9 27.25 9.29163 27.5415 9.65129 27.5415H13.5753V16.673H9.65129Z" fill="white" style="fill:white;fill-opacity:1;"/>
<path d="M30.9998 20.2696C30.9998 19.4428 30.5556 18.7178 29.8933 18.3207C30.147 17.9543 30.2959 17.5098 30.2959 17.0313C30.2959 15.7795 29.2773 14.7609 28.0254 14.7609H23.2326C23.3795 14.0953 23.5804 13.0964 23.7203 12.0507C24.0844 9.32959 23.8356 7.82046 22.9374 7.30148C22.3774 6.97799 21.7737 6.91237 21.2374 7.11654C20.8231 7.27435 20.2635 7.66235 19.9447 8.61461L18.685 11.9128C18.0464 13.49 16.0908 15.1457 14.8779 16.0613V27.8297C17.1257 28.6173 19.4714 29.0166 21.8644 29.0166H27.0867C28.3386 29.0166 29.3571 27.998 29.3571 26.7462C29.3571 26.3078 29.2322 25.898 29.0161 25.5505C29.773 25.1819 30.2958 24.4047 30.2958 23.5079C30.2958 23.0294 30.147 22.5849 29.8932 22.2185C30.5556 21.8214 30.9998 21.0964 30.9998 20.2696Z" fill="white" style="fill:white;fill-opacity:1;"/>
<defs>
<linearGradient id="paint0_linear_49_13712" x1="38.8406" y1="6.32044" x2="-3.42408" y2="18.2123" gradientUnits="userSpaceOnUse">
<stop offset="0.01" stop-color="white" stop-opacity="0.68" style="stop-color:white;stop-opacity:0.68;"/>
<stop offset="0.06" stop-color="white" stop-opacity="0.57" style="stop-color:white;stop-opacity:0.57;"/>
<stop offset="0.11" stop-color="white" stop-opacity="0.47" style="stop-color:white;stop-opacity:0.47;"/>
<stop offset="0.16" stop-color="white" stop-opacity="0.39" style="stop-color:white;stop-opacity:0.39;"/>
<stop offset="0.23" stop-color="white" stop-opacity="0.34" style="stop-color:white;stop-opacity:0.34;"/>
<stop offset="0.31" stop-color="white" stop-opacity="0.31" style="stop-color:white;stop-opacity:0.31;"/>
<stop offset="0.47" stop-color="white" stop-opacity="0.3" style="stop-color:white;stop-opacity:0.3;"/>
<stop offset="0.62" stop-color="white" stop-opacity="0.31" style="stop-color:white;stop-opacity:0.31;"/>
<stop offset="0.7" stop-color="white" stop-opacity="0.34" style="stop-color:white;stop-opacity:0.34;"/>
<stop offset="0.76" stop-color="white" stop-opacity="0.39" style="stop-color:white;stop-opacity:0.39;"/>
<stop offset="0.82" stop-color="white" stop-opacity="0.46" style="stop-color:white;stop-opacity:0.46;"/>
<stop offset="0.86" stop-color="white" stop-opacity="0.56" style="stop-color:white;stop-opacity:0.56;"/>
<stop offset="0.91" stop-color="white" stop-opacity="0.68" style="stop-color:white;stop-opacity:0.68;"/>
<stop offset="0.95" stop-color="white" stop-opacity="0.82" style="stop-color:white;stop-opacity:0.82;"/>
<stop offset="0.98" stop-color="white" stop-opacity="0.98" style="stop-color:white;stop-opacity:0.98;"/>
<stop offset="0.99" stop-color="white" style="stop-color:white;stop-opacity:1;"/>
</linearGradient>
<linearGradient id="paint1_linear_49_13712" x1="20.4983" y1="0.785878" x2="20.4983" y2="40.2141" gradientUnits="userSpaceOnUse">
<stop stop-color="white" stop-opacity="0.25" style="stop-color:white;stop-opacity:0.25;"/>
<stop offset="0.06" stop-color="white" stop-opacity="0.36" style="stop-color:white;stop-opacity:0.36;"/>
<stop offset="0.2" stop-color="white" stop-opacity="0.63" style="stop-color:white;stop-opacity:0.63;"/>
<stop offset="0.32" stop-color="white" stop-opacity="0.83" style="stop-color:white;stop-opacity:0.83;"/>
<stop offset="0.41" stop-color="white" stop-opacity="0.95" style="stop-color:white;stop-opacity:0.95;"/>
<stop offset="0.47" stop-color="white" style="stop-color:white;stop-opacity:1;"/>
<stop offset="0.53" stop-color="white" stop-opacity="0.98" style="stop-color:white;stop-opacity:0.98;"/>
<stop offset="0.61" stop-color="white" stop-opacity="0.91" style="stop-color:white;stop-opacity:0.91;"/>
<stop offset="0.7" stop-color="white" stop-opacity="0.81" style="stop-color:white;stop-opacity:0.81;"/>
<stop offset="0.79" stop-color="white" stop-opacity="0.66" style="stop-color:white;stop-opacity:0.66;"/>
<stop offset="0.9" stop-color="white" stop-opacity="0.47" style="stop-color:white;stop-opacity:0.47;"/>
<stop offset="1" stop-color="white" stop-opacity="0.25" style="stop-color:white;stop-opacity:0.25;"/>
</linearGradient>
</defs>
</svg>
