<svg width="60" height="28" viewBox="0 0 60 28" fill="none" xmlns="http://www.w3.org/2000/svg">
<path d="M44.765 14.9292V15.4289C44.765 18.0249 44.7661 20.6208 44.7681 23.2165C44.7681 23.6936 44.6408 24.0721 44.1094 24.2956C44.0403 24.133 43.9693 23.9862 43.9135 23.8353C41.3829 16.9458 38.8335 10.0624 36.354 3.1545C36.0937 2.42928 36.2037 1.55473 36.2246 0.75076C36.2359 0.316042 36.6813 0.0102055 37.1733 0.00815977C39.1591 -0.00104602 41.1451 0.000147326 43.1315 0.0117398C43.801 0.0153198 44.2055 0.442878 44.538 0.965051C46.4252 3.91397 48.3141 6.86187 50.2047 9.80875C50.3054 9.98543 50.4467 10.1357 50.6169 10.247V9.76272C50.6169 6.91677 50.6169 4.07081 50.6169 1.22486C50.6169 0.338545 50.9457 0.00355688 51.8228 0.00253401C53.8716 -0.000193629 55.9204 -0.000193629 57.9692 0.00253401C58.8387 0.00253401 59.1844 0.351843 59.1844 1.22332C59.1844 8.52625 59.1844 15.8288 59.1844 23.1311C59.1844 24.0516 58.8714 24.3549 57.9365 24.3549C56.1848 24.3549 54.4322 24.3217 52.682 24.3698C51.832 24.3928 51.2633 24.0629 50.7994 23.3898C48.9883 20.7645 47.1681 18.1461 45.3389 15.5348C45.189 15.3194 45.0351 15.1067 44.8832 14.8929L44.765 14.9292Z" fill="white" style="fill:white;fill-opacity:1;"/>
<path d="M12.7392 13.8337C13.3382 11.6175 13.9368 9.40304 14.5348 7.19024C15.0488 5.27339 15.5536 3.35449 16.0645 1.43713C16.331 0.436252 16.8828 0.00511433 17.9195 0.00511433C20.0781 -0.000340955 22.2367 -0.00102287 24.3952 0.0030686C25.2294 0.0030686 25.4933 0.386643 25.21 1.1584C22.4192 8.75215 19.6331 16.3476 16.8516 23.9448C16.691 24.3841 16.4711 24.469 16.0681 24.446C15.2442 24.3989 14.4177 24.3652 13.5922 24.359C11.9342 24.3457 10.2761 24.359 8.61856 24.3544C7.61564 24.3544 7.12466 23.9939 6.82854 23.0375C4.59085 15.8181 2.35436 8.59923 0.119053 1.38087C-0.190875 0.377437 0.0893903 0 1.13578 0C3.20027 0 5.26492 0 7.32975 0C8.51678 0 9.00367 0.373857 9.30899 1.50924C10.368 5.44693 11.4273 9.38224 12.487 13.3152C12.5346 13.4911 12.5919 13.664 12.6446 13.8384L12.7392 13.8337Z" fill="white" style="fill:white;fill-opacity:1;"/>
<path d="M35.8364 24.4497H25.191C25.1159 24.4497 25.0419 24.4319 24.975 24.398C24.908 24.364 24.85 24.3147 24.8057 24.2541C24.7614 24.1936 24.7319 24.1234 24.7198 24.0493C24.7076 23.9752 24.7131 23.8994 24.7358 23.8278C26.623 17.8599 28.4718 12.0137 30.3201 6.16699H30.6239C32.4988 12.0086 34.3732 17.8491 36.2911 23.8257C36.3142 23.8974 36.3199 23.9735 36.308 24.0478C36.2961 24.1221 36.2668 24.1925 36.2224 24.2533C36.1781 24.3142 36.12 24.3636 36.053 24.3978C35.9859 24.4319 35.9117 24.4497 35.8364 24.4497Z" fill="white" style="fill:white;fill-opacity:1;"/>
<path d="M49.9669 26.4169C50.0193 26.3237 50.0964 26.2469 50.1899 26.195C50.2837 26.1429 50.3895 26.1161 50.4967 26.1172C50.5696 26.1163 50.6417 26.1315 50.708 26.1617C50.7719 26.1912 50.828 26.2354 50.8716 26.2906C50.9197 26.3515 50.9558 26.4209 50.978 26.4952C51.0278 26.6698 51.0278 26.855 50.978 27.0296C50.9558 27.1039 50.9197 27.1733 50.8716 27.2342C50.828 27.2894 50.7719 27.3336 50.708 27.3631C50.6417 27.3933 50.5696 27.4085 50.4967 27.4076C50.3895 27.4087 50.2837 27.3819 50.1899 27.3298C50.0962 27.2774 50.0189 27.1998 49.9669 27.1058C49.9121 26.9993 49.8835 26.8812 49.8835 26.7614C49.8835 26.6416 49.9121 26.5235 49.9669 26.4169ZM50.1173 27.4602C50.1176 27.5209 50.1353 27.5802 50.1684 27.6311C50.2028 27.6849 50.251 27.7285 50.308 27.7574C50.3735 27.7897 50.4458 27.8057 50.5187 27.8039C50.5848 27.8036 50.6498 27.7877 50.7085 27.7574C50.7725 27.7239 50.8257 27.6731 50.8619 27.6106C50.905 27.5325 50.9259 27.444 50.9223 27.3549V26.1438H51.1268V27.3528C51.1316 27.478 51.1013 27.602 51.0394 27.7109C50.9852 27.8026 50.9066 27.8775 50.8123 27.9272C50.7211 27.975 50.6197 27.9999 50.5167 27.9998C50.4077 28.0018 50.2998 27.9787 50.2011 27.9323C50.113 27.891 50.0385 27.8253 49.9863 27.7431C49.9344 27.6588 49.9077 27.5613 49.9096 27.4623L50.1173 27.4602ZM50.152 27.0076C50.1888 27.0726 50.2433 27.1258 50.3091 27.1611C50.3741 27.1955 50.4467 27.2131 50.5203 27.2122C50.5698 27.2119 50.6187 27.2015 50.664 27.1815C50.765 27.1366 50.8444 27.054 50.8854 26.9514C50.9318 26.8284 50.9318 26.6928 50.8854 26.5698C50.8639 26.5174 50.8325 26.4697 50.7929 26.4292C50.7556 26.392 50.712 26.3618 50.664 26.3402C50.6187 26.3203 50.5698 26.3098 50.5203 26.3095C50.4467 26.3088 50.3741 26.3264 50.3091 26.3607C50.2434 26.3962 50.1891 26.4493 50.152 26.5141C50.1134 26.5902 50.0932 26.6744 50.0932 26.7598C50.0932 26.8452 50.1134 26.9294 50.152 27.0056V27.0076Z" fill="white" style="fill:white;fill-opacity:1;"/>
<path d="M52.5306 27.3799H52.3235V26.1438H52.5306V27.3799ZM52.8313 26.3253C52.8031 26.3146 52.773 26.3096 52.7429 26.3105C52.6966 26.308 52.651 26.3228 52.615 26.3519C52.5824 26.3822 52.5596 26.4216 52.5495 26.4649C52.5362 26.5181 52.5298 26.5728 52.5306 26.6276H52.4391C52.4373 26.5377 52.4547 26.4484 52.4902 26.3657C52.5204 26.2955 52.5671 26.2336 52.6263 26.1852C52.6732 26.1439 52.7331 26.1202 52.7955 26.1182C52.8373 26.1177 52.8788 26.1235 52.9188 26.1356C52.9582 26.1492 52.9934 26.1729 53.0211 26.2041L52.9081 26.3734C52.8844 26.3543 52.8584 26.3381 52.8308 26.3253H52.8313Z" fill="white" style="fill:white;fill-opacity:1;"/>
<path d="M53.9801 26.4287C54.0349 26.3335 54.1142 26.2547 54.2098 26.2006C54.3095 26.1459 54.4215 26.1172 54.5353 26.1172C54.6491 26.1172 54.761 26.1459 54.8608 26.2006C54.956 26.2548 55.035 26.3336 55.0894 26.4287C55.1448 26.5307 55.1738 26.645 55.1738 26.7611C55.1738 26.8772 55.1448 26.9915 55.0894 27.0935C55.0352 27.1892 54.9562 27.2685 54.8608 27.3232C54.761 27.3779 54.6491 27.4065 54.5353 27.4065C54.4215 27.4065 54.3095 27.3779 54.2098 27.3232C54.114 27.2686 54.0347 27.1893 53.9801 27.0935C53.9244 26.9916 53.8953 26.8773 53.8953 26.7611C53.8953 26.6449 53.9244 26.5306 53.9801 26.4287ZM54.1612 26.9943C54.1976 27.0599 54.2505 27.1149 54.3146 27.1539C54.3811 27.1938 54.4575 27.2144 54.535 27.2132C54.6116 27.2145 54.687 27.1948 54.7531 27.1562C54.8192 27.1176 54.8734 27.0616 54.9099 26.9943C54.9478 26.9227 54.9668 26.8426 54.9652 26.7616C54.9667 26.6805 54.9477 26.6002 54.9099 26.5284C54.8747 26.4618 54.8215 26.4063 54.7565 26.3683C54.6891 26.3294 54.6124 26.3094 54.5345 26.3105C54.4572 26.3093 54.3809 26.3293 54.3141 26.3683C54.2494 26.4068 54.1964 26.4621 54.1607 26.5284C54.1223 26.6001 54.103 26.6803 54.1044 26.7616C54.1029 26.8427 54.1222 26.9229 54.1607 26.9943H54.1612Z" fill="white" style="fill:white;fill-opacity:1;"/>
<path d="M56.5132 27.0713C56.5309 27.1154 56.5625 27.1526 56.6032 27.1771C56.6477 27.2023 56.6983 27.2149 56.7495 27.2134C56.8085 27.2149 56.8668 27.201 56.9188 27.173C56.966 27.1476 57.0048 27.1088 57.0303 27.0616C57.0571 27.0107 57.0705 26.9538 57.0691 26.8964V26.144H57.2763V27.3802H57.0691V27.1787C57.0343 27.2483 56.9813 27.3071 56.9157 27.349C56.8483 27.3872 56.7722 27.4072 56.6948 27.4072C56.6173 27.4072 56.5412 27.3872 56.4738 27.349C56.4101 27.3084 56.3592 27.2506 56.327 27.1823C56.2907 27.102 56.2733 27.0146 56.2759 26.9265V26.144H56.4805V26.9015C56.48 26.9597 56.4911 27.0174 56.5132 27.0713Z" fill="white" style="fill:white;fill-opacity:1;"/>
<path d="M58.4725 27.9707V26.1439H58.6771V27.9707H58.4725ZM59.633 27.1059C59.5809 27.1987 59.5047 27.2757 59.4125 27.3289C59.3188 27.3812 59.213 27.408 59.1057 27.4066C59.033 27.4076 58.961 27.3924 58.895 27.3621C58.8309 27.3326 58.7746 27.2885 58.7308 27.2332C58.6829 27.1723 58.647 27.1029 58.6249 27.0287C58.5745 26.8541 58.5745 26.6688 58.6249 26.4942C58.647 26.4199 58.6829 26.3505 58.7308 26.2896C58.7746 26.2344 58.8309 26.1902 58.895 26.1608C58.961 26.1305 59.033 26.1153 59.1057 26.1163C59.213 26.1149 59.3188 26.1417 59.4125 26.194C59.5046 26.2469 59.5807 26.3236 59.633 26.416C59.6874 26.5226 59.7158 26.6407 59.7158 26.7604C59.7158 26.8802 59.6874 26.9982 59.633 27.1049V27.1059ZM59.4499 26.5162C59.4137 26.452 59.3606 26.3989 59.2965 26.3628C59.2303 26.3279 59.1564 26.3104 59.0816 26.3116C59.0325 26.3118 58.9839 26.3222 58.939 26.3423C58.8911 26.3642 58.8475 26.3943 58.8101 26.4313C58.7696 26.4714 58.7376 26.5193 58.716 26.5719C58.6696 26.6949 58.6696 26.8305 58.716 26.9535C58.7375 27.0064 58.7695 27.0544 58.8101 27.0946C58.8475 27.1316 58.8911 27.1618 58.939 27.1836C58.9839 27.2037 59.0325 27.2142 59.0816 27.2143C59.1564 27.2158 59.2304 27.1982 59.2965 27.1632C59.3608 27.1272 59.4139 27.0741 59.4499 27.0097C59.4889 26.9337 59.5092 26.8495 59.5092 26.764C59.5092 26.6785 59.4889 26.5943 59.4499 26.5182V26.5162Z" fill="white" style="fill:white;fill-opacity:1;"/>
</svg>
