<svg width="52" height="21" viewBox="0 0 52 21" fill="none" xmlns="http://www.w3.org/2000/svg">
<path fill-rule="evenodd" clip-rule="evenodd" d="M40.6554 0.0566406L45.7336 9.28735H30.0445L24.9903 0.0566406H40.6554ZM25.7813 10.8018C23.9848 10.8018 22.1166 10.6335 20.9668 9.64799C20.0085 8.90285 19.4815 8.03747 18.9306 7.05205C18.8108 6.85656 17.4276 4.3319 16.3605 2.38408L16.36 2.38311C15.7201 1.21522 15.1939 0.25492 15.1222 0.128814H0.582764C1.10518 1.0866 1.62761 2.04841 2.15061 3.01132C3.42602 5.35944 4.70503 7.71416 5.99603 10.0326C7.57682 12.9172 9.08581 15.6097 11.8404 17.5807C13.1581 18.566 14.5471 19.2153 16.176 19.624C17.7809 20.0087 19.4097 20.0566 21.0623 20.0566H33.9971L28.9191 10.8018H25.7813ZM30.8833 10.7778L35.9615 20.0566H51.6266L46.5244 10.7778H30.8833Z" fill="#181C25" style="fill:#181C25;fill:color(display-p3 0.0941 0.1098 0.1451);fill-opacity:1;"/>
</svg>
