<svg width="129" height="32" viewBox="0 0 129 32" fill="none" xmlns="http://www.w3.org/2000/svg">
<path d="M32.3534 16.1351C32.3536 21.0558 32.3544 25.9765 32.3531 30.8972C32.3529 31.9709 32.3257 31.9988 31.2344 31.999C21.393 32.0003 11.5515 32.0003 1.71036 31.999C0.67667 31.999 0.641318 31.9678 0.641062 30.9364C0.638756 21.0125 0.646698 11.0888 0.626716 1.16491C0.625179 0.37613 0.88725 0.112005 1.67219 0.113286C11.541 0.131219 21.4099 0.12379 31.2787 0.126608C32.286 0.126864 32.3511 0.196547 32.3518 1.20795C32.3547 6.18374 32.3531 11.1593 32.3534 16.1351ZM29.634 16.0054C29.634 11.9642 29.6245 7.92269 29.6435 3.88145C29.6466 3.23024 29.4637 2.93358 28.7592 2.9364C24.1136 2.95484 19.4678 2.95766 14.8222 2.9305C14.0849 2.92615 13.8805 3.18925 13.891 3.89451C13.9256 6.23088 13.9174 8.56801 13.8943 10.9046C13.8892 11.4247 14.0931 11.7762 14.4441 12.1241C16.7084 14.3692 18.951 16.6367 21.2216 18.8757C21.6481 19.2963 21.8259 19.7429 21.8215 20.3349C21.8021 22.919 21.839 25.5038 21.798 28.0874C21.7857 28.8619 21.9896 29.1521 22.8073 29.1288C24.7302 29.074 26.657 29.073 28.5796 29.1288C29.4224 29.1531 29.6594 28.8747 29.6517 28.0469C29.6138 24.0334 29.6343 20.0193 29.634 16.0054ZM3.44368 16.0208C3.44368 20.1141 3.4634 24.2076 3.42472 28.3003C3.41806 28.9984 3.6581 29.1234 4.27165 29.1211C8.91415 29.1029 13.5569 29.1001 18.1994 29.1224C18.8701 29.1257 19.1147 28.9303 19.1037 28.2363C19.0681 25.9842 19.0753 23.7311 19.1012 21.4787C19.1078 20.9113 18.9359 20.5001 18.5319 20.1018C16.2829 17.8832 14.0708 15.6271 11.8126 13.418C11.281 12.898 11.0402 12.3708 11.052 11.6178C11.0927 9.03631 11.0553 6.4535 11.074 3.8712C11.0789 3.21256 10.8616 2.94383 10.1651 2.95689C8.18788 2.99378 6.20914 2.98533 4.23168 2.95971C3.64682 2.95203 3.42036 3.09011 3.42548 3.74132C3.45776 7.83431 3.44188 11.9276 3.44368 16.0208Z" fill="black" style="fill:black;fill-opacity:1;"/>
<path d="M85.9761 21.1405C84.4101 21.1405 82.8435 21.1218 81.278 21.1507C80.74 21.1607 80.5251 20.9622 80.5261 20.4416C80.5318 17.5017 80.5323 14.5618 80.5279 11.6218C80.5271 11.0672 80.7823 10.8387 81.3354 10.8407C84.4126 10.8513 87.4901 10.8577 90.5671 10.8379C91.3059 10.8331 91.4187 11.2248 91.4143 11.8324C91.4099 12.4583 91.3267 12.8789 90.5254 12.8651C88.3004 12.8269 86.0745 12.8497 83.849 12.8543C82.8492 12.8564 82.8668 12.8894 82.8161 13.9572C82.7797 14.7216 83.0505 14.9514 83.8091 14.934C85.8688 14.8866 87.9308 14.9466 89.9904 14.903C90.7705 14.8863 90.966 15.1766 90.9655 15.9147C90.9652 16.644 90.7239 16.8707 90.0102 16.8584C87.95 16.8231 85.8882 16.881 83.8288 16.8292C83.0111 16.8087 82.7265 17.1033 82.8297 17.875C82.8515 18.0369 82.8489 18.2059 82.8305 18.3689C82.7564 19.0185 83.0403 19.2281 83.6838 19.2199C85.9638 19.1904 88.2453 19.2424 90.5248 19.1922C91.4123 19.1728 91.3933 19.6636 91.4181 20.2882C91.4456 20.9747 91.2076 21.1853 90.509 21.1584C89.0001 21.1 87.4873 21.1402 85.9761 21.1405Z" fill="black" style="fill:black;fill-opacity:1;"/>
<path d="M123.848 17.6021C125.299 18.5725 126.754 19.536 128.195 20.5218C128.39 20.6558 128.833 20.6727 128.689 21.048C128.581 21.3298 128.244 21.112 128.017 21.1551C126.181 21.505 124.837 20.5092 123.466 19.5396C122.012 18.5118 120.53 17.5247 119.059 16.5215C118.839 16.3712 118.623 16.1186 118.33 16.2746C118.068 16.4137 118.157 16.7149 118.154 16.9514C118.145 18.0504 118.121 19.1505 118.16 20.2482C118.184 20.9396 117.911 21.2083 117.24 21.1394C117.023 21.1171 116.8 21.1335 116.582 21.1522C116.165 21.1881 115.961 21.006 115.961 20.5892C115.962 17.5667 115.964 14.5443 115.962 11.5222C115.961 11.0749 116.187 10.8564 116.615 10.8556C119.445 10.8512 122.279 10.7562 125.102 10.8976C126.368 10.9611 127.598 11.607 128.014 12.9765C128.336 14.0315 128.392 15.161 127.537 16.0771C126.799 16.8692 125.871 17.2934 124.79 17.3731C124.495 17.3948 124.199 17.4046 123.904 17.42C123.886 17.4807 123.867 17.5414 123.848 17.6021ZM121.82 15.6436C121.82 15.6574 121.82 15.671 121.82 15.6848C122.751 15.6848 123.683 15.6884 124.614 15.6836C125.354 15.6797 125.869 15.3031 126.119 14.6332C126.339 14.043 125.984 13.1704 125.435 12.9391C124.94 12.7306 124.446 12.5318 123.864 12.5594C122.689 12.6155 121.509 12.583 120.332 12.5835C118.047 12.5843 118.064 12.5828 118.149 14.8763C118.171 15.4533 118.404 15.6546 118.944 15.6472C119.902 15.6341 120.862 15.6436 121.82 15.6436Z" fill="black" style="fill:black;fill-opacity:1;"/>
<path d="M68.4943 21.1372C66.9831 21.1374 65.4716 21.1144 63.9612 21.1492C63.3668 21.1628 63.127 21.0024 63.1327 20.3691C63.1583 17.4845 63.1575 14.5994 63.1337 11.7148C63.1283 11.0744 63.3522 10.8331 63.9924 10.8367C67.0146 10.8543 70.037 10.8664 73.0586 10.8303C73.9094 10.82 73.9489 11.2586 73.9665 11.9152C73.986 12.6443 73.7134 12.8738 73.0046 12.8638C70.7796 12.8326 68.5529 12.8881 66.3288 12.8351C65.4631 12.8144 65.3491 13.2004 65.3496 13.9236C65.3502 14.633 65.4931 14.9591 66.306 14.9376C68.3926 14.882 70.4822 14.9542 72.5693 14.9051C73.4742 14.8838 73.4124 15.4118 73.4391 16.0189C73.4672 16.664 73.2423 16.8761 72.5821 16.8628C70.5224 16.8218 68.4599 16.8884 66.4013 16.8267C65.5351 16.8005 65.251 17.1085 65.366 17.9152C65.3891 18.0768 65.384 18.2457 65.3681 18.4091C65.3099 19.0098 65.5566 19.2279 66.1738 19.2199C68.4538 19.191 70.7353 19.2458 73.0143 19.1904C73.9143 19.1684 73.9489 19.6157 73.9683 20.3041C73.9893 21.0419 73.666 21.1651 73.0269 21.1492C71.5172 21.1113 70.0055 21.1369 68.4943 21.1372Z" fill="black" style="fill:black;fill-opacity:1;"/>
<path d="M50.404 21.1576C48.5905 21.1576 46.777 21.1568 44.9638 21.1591C44.8032 21.1594 44.6095 21.2331 44.5119 21.0648C44.3779 20.8337 44.5993 20.7236 44.7327 20.5993C47.2312 18.2771 49.4467 15.682 51.8194 13.2388C51.9647 13.0892 52.2439 12.9675 52.152 12.7218C52.0585 12.4718 51.769 12.5627 51.5617 12.5619C49.5832 12.5545 47.6045 12.5435 45.6263 12.5642C45.0373 12.5704 44.7002 12.4515 44.6987 11.757C44.6974 11.0674 44.9799 10.8358 45.6352 10.8384C49.0975 10.8517 52.5601 10.8427 56.0226 10.8471C56.2311 10.8473 56.5055 10.7664 56.6108 11.0197C56.7197 11.2815 56.4502 11.4014 56.3026 11.5421C53.9132 13.8172 51.7797 16.3388 49.4406 18.6621C49.2712 18.8302 48.9474 18.9846 49.0291 19.2303C49.1354 19.55 49.5038 19.4225 49.7603 19.424C51.6837 19.4348 53.6073 19.4245 55.531 19.434C56.3982 19.4383 56.7729 20.0411 56.4553 20.8563C56.3159 21.2142 56.0239 21.1366 55.7626 21.1373C53.9765 21.1419 52.1901 21.1399 50.404 21.1399C50.404 21.1453 50.404 21.1514 50.404 21.1576Z" fill="black" style="fill:black;fill-opacity:1;"/>
<path d="M98.1513 15.9937C98.1523 14.5648 98.1779 13.135 98.1431 11.7068C98.1215 10.8232 98.6777 10.8514 99.2895 10.8363C99.9266 10.8204 100.359 10.9349 100.331 11.7232C100.294 12.7935 100.329 13.8664 100.323 14.9383C100.319 15.5047 100.511 15.6464 101.005 15.3105C102.93 14.0012 104.893 12.7443 106.778 11.3797C107.92 10.553 109.157 10.9539 110.358 10.8563C110.473 10.8471 110.571 10.946 110.561 11.0669C110.545 11.2626 110.351 11.2985 110.219 11.3863C108.416 12.585 106.62 13.7929 104.809 14.978C103.597 15.7709 103.574 15.7749 104.691 16.5755C106.561 17.9156 108.453 19.2262 110.328 20.5604C110.505 20.6864 110.888 20.7128 110.765 21.05C110.666 21.3225 110.375 21.1145 110.176 21.154C108.192 21.5457 106.729 20.5286 105.263 19.416C103.89 18.3734 102.448 17.4217 101.031 16.4372C100.862 16.3196 100.721 16.0401 100.481 16.1664C100.218 16.3047 100.33 16.6109 100.328 16.8445C100.318 17.9986 100.283 19.1547 100.334 20.3065C100.387 21.4814 99.549 21.0594 98.9754 21.1424C98.2901 21.2416 98.129 20.896 98.1413 20.2809C98.1694 18.8522 98.15 17.4227 98.1513 15.9937Z" fill="black" style="fill:black;fill-opacity:1;"/>
</svg>
