<svg width="27" height="33" viewBox="0 0 27 33" fill="none" xmlns="http://www.w3.org/2000/svg">
<g clip-path="url(#clip0_49_25373)">
<path fill-rule="evenodd" clip-rule="evenodd" d="M2.1811 27.4646V2.12864C2.1811 2.12864 2.2691 0.712642 1.5171 0.232642V0.0566419H11.2771C12.1274 0.0562894 12.976 0.131249 13.8131 0.280642C15.0486 0.499616 16.1988 1.05772 17.1355 1.89262C18.0721 2.72753 18.7582 3.80636 19.1171 5.00864C19.4949 6.24056 19.5803 7.5436 19.3664 8.81428C19.1525 10.085 18.6453 11.2883 17.8851 12.3286C17.1494 13.2784 16.2851 14.1211 15.3171 14.8326C15.1011 14.9846 14.9731 15.0646 14.7491 15.2086C16.0408 17.1599 17.0911 19.2606 17.8771 21.4646C18.5475 23.389 19.0533 25.3667 19.3891 27.3766C19.5971 29.0406 20.0931 29.2086 20.1891 29.2406V29.4246H14.3491V29.2406C14.5251 29.1446 16.1091 28.4406 16.1171 25.9846C16.0508 23.9068 15.6287 21.8558 14.8691 19.9206C14.3901 18.5952 13.8208 17.3042 13.1651 16.0566C12.0401 16.5092 10.875 16.8548 9.6851 17.0886C8.9251 17.2326 8.1571 17.3526 7.2051 17.4566C6.2531 17.5606 5.6051 17.6086 5.0851 17.6406V27.4806C5.0851 27.6966 5.1411 28.8566 5.8851 29.2566V29.4406H1.3811V29.2566C2.1091 28.8726 2.1811 27.6966 2.1811 27.4806M11.4051 1.72064H5.0611V15.8166C6.43505 15.7424 7.79867 15.5361 9.1331 15.2006C13.7571 13.8326 15.9651 10.6086 15.9971 6.80864C15.9971 4.60064 15.1971 3.24864 14.3971 2.52864C13.8783 2.12931 13.2626 1.87528 12.6131 1.79264C12.2235 1.73847 11.8304 1.7144 11.4371 1.72064M10.7971 17.2726V18.7606C11.8063 18.6992 12.8108 18.5763 13.8051 18.3926C14.0771 19.0166 14.3171 19.6086 14.4851 20.0646V20.1286C13.9811 20.2166 13.4451 20.2886 12.8851 20.3526C12.0851 20.4486 11.2851 20.4966 10.8131 20.5286V30.1286C10.8131 30.3366 10.8611 31.4726 11.6131 31.8646V32.0566H7.1891V31.8806C7.9011 31.5046 7.9891 30.3526 7.9891 30.1446V17.7846C8.93867 17.663 9.88128 17.4921 10.8131 17.2726M16.6291 17.4646C18.0924 16.8276 19.336 15.7742 20.2051 14.4357C21.0742 13.0971 21.5305 11.5325 21.5171 9.93664C21.5171 7.76864 20.7731 6.45664 19.9171 5.73664L19.7651 5.65664C19.7011 5.40064 19.6371 5.15264 19.5571 4.91264C19.3944 4.42703 19.191 3.95602 18.9491 3.50464C19.1011 3.50464 19.2451 3.55264 19.3811 3.57664C20.5918 3.79365 21.7189 4.34111 22.638 5.15853C23.5571 5.97596 24.2323 7.03153 24.5891 8.20864C24.9625 9.41992 25.0478 10.7017 24.838 11.9517C24.6283 13.2018 24.1294 14.3856 23.3811 15.4086C22.6586 16.3375 21.8105 17.1614 20.8611 17.8566C20.6531 18.0086 20.5251 18.0886 20.3091 18.2326C21.5737 20.1431 22.6 22.201 23.3651 24.3606C24.0212 26.2472 24.5216 28.1843 24.8611 30.1526C25.0531 31.7526 25.5411 31.9126 25.6611 31.9446V32.0566H19.9171V31.8806C20.0931 31.7926 21.6451 31.1526 21.6531 28.7286C21.5949 26.6919 21.1835 24.6806 20.4371 22.7846C19.9509 21.4906 19.3818 20.2293 18.7331 19.0086C18.4451 19.1366 18.0291 19.2806 17.5731 19.4326C17.2771 18.7446 16.9731 18.1206 16.6291 17.4886M15.3331 4.94464H10.7971V14.0966C10.2178 14.3683 9.61876 14.5956 9.0051 14.7766C8.66559 14.877 8.32114 14.9598 7.9731 15.0246V5.34464C7.9731 5.34464 8.0531 3.96064 7.2771 3.48864V3.31264H14.5331C14.9071 3.7852 15.1795 4.32991 15.3331 4.91264" fill="black" style="fill:black;fill-opacity:1;"/>
</g>
<defs>
<clipPath id="clip0_49_25373">
<rect width="25.6" height="32" fill="white" style="fill:white;fill-opacity:1;" transform="translate(0.717163 0.0566406)"/>
</clipPath>
</defs>
</svg>
