<svg width="45" height="20" viewBox="0 0 45 20" fill="none" xmlns="http://www.w3.org/2000/svg">
<path d="M21.2191 2.7109C20.718 2.81568 19.5517 3.15737 18.0392 3.64028L17.3786 3.84985L16.1485 3.8453C14.8592 3.83618 12.9959 3.76329 6.37631 3.46261C0.604103 3.19837 0.97768 3.20748 1.02324 3.28493C1.26014 3.68584 1.72939 4.00931 2.2123 4.09587C2.70433 4.19154 4.42187 4.35555 9.99818 4.85213C11.5517 4.99336 13.1918 5.1437 13.6428 5.19382C16.0027 5.4535 16.4902 5.68129 17.1599 6.82935C17.8342 7.99108 18.1531 8.46033 18.7043 9.08448C19.3831 9.85441 20.6178 10.7883 21.6975 11.3442L22.185 11.5947L22.6724 11.3442C23.7385 10.7975 24.9868 9.85441 25.6656 9.08448C26.2169 8.46033 26.5358 7.99108 27.21 6.82935C27.8797 5.68129 28.3672 5.4535 30.7271 5.19382C31.1781 5.1437 32.8182 4.99336 34.3718 4.85213C39.9481 4.35555 41.6656 4.19154 42.1576 4.09587C42.6405 4.00931 43.1098 3.68584 43.3467 3.28493C43.3923 3.20748 43.7658 3.19837 37.9936 3.46261C32.6406 3.70407 29.8251 3.82252 28.4264 3.85441C27.0597 3.8863 27.2647 3.92274 25.2693 3.30771C23.4925 2.75646 22.9549 2.63345 22.2761 2.61523C21.8478 2.60156 21.6519 2.61978 21.2191 2.7109ZM23.3786 3.55828C24.3399 3.79974 25.5335 4.19609 26.0437 4.44211C26.554 4.69268 26.677 4.83391 26.6633 5.17104C26.6497 5.71773 25.9481 7.31682 25.3831 8.10498C25.0369 8.59245 24.3399 9.31227 23.8023 9.74507C23.3695 10.0959 22.39 10.7428 22.2396 10.7838C22.0529 10.8294 21.0096 10.1369 20.2169 9.44438C19.4105 8.73823 18.8 7.94097 18.3308 6.98425C18.0756 6.46033 17.7431 5.54006 17.6975 5.21659C17.6383 4.82479 17.9207 4.57878 18.8137 4.23254C19.5745 3.93641 21.1326 3.4945 21.9116 3.35327C22.1531 3.31227 22.6907 3.38516 23.3786 3.55828Z" fill="black" style="fill:black;fill-opacity:1;"/>
<path d="M18.9002 5.43514C18.686 5.57637 18.5995 5.84972 18.686 6.11395C18.7908 6.45564 19.1781 6.60598 19.5835 6.46475C19.7202 6.41464 19.7248 6.40553 19.7248 6.14584V5.87705H19.5198C19.3193 5.87705 19.2464 5.94539 19.3831 5.9955C19.4241 6.01373 19.4514 6.08206 19.4514 6.17774C19.4514 6.31897 19.4423 6.33263 19.3147 6.33263C18.9913 6.33263 18.8318 5.90439 19.046 5.62648C19.1325 5.5217 19.1735 5.50803 19.333 5.5217C19.4378 5.53537 19.5562 5.55815 19.6018 5.57637C19.6655 5.60826 19.6792 5.59004 19.6792 5.49892C19.6792 5.37136 19.5881 5.33035 19.2646 5.33035C19.1234 5.33035 19.0049 5.36225 18.9002 5.43514Z" fill="black" style="fill:black;fill-opacity:1;"/>
<path d="M19.8934 5.36244C19.8752 5.37611 19.8797 5.41256 19.907 5.44445C19.9298 5.47178 19.9572 5.7178 19.9617 5.9957L19.9754 6.49228L20.3763 6.50595C20.7499 6.51962 20.7727 6.51506 20.7727 6.42395C20.7727 6.34194 20.7453 6.33283 20.4947 6.33283H20.2214L20.2351 6.15971C20.2487 5.99114 20.2487 5.99114 20.4674 5.97748C20.6178 5.96837 20.6815 5.94559 20.6815 5.89547C20.6815 5.84991 20.6223 5.83169 20.4537 5.83169H20.226V5.67224V5.51278H20.5039C20.7408 5.51278 20.7772 5.50367 20.7544 5.43989C20.7408 5.39889 20.7271 5.35789 20.7271 5.34878C20.7271 5.31688 19.9253 5.33055 19.8934 5.36244Z" fill="black" style="fill:black;fill-opacity:1;"/>
<path d="M20.9279 5.38571C20.9097 5.41304 20.9188 5.44949 20.9462 5.4586C20.9826 5.46771 21.0008 5.63628 21.0008 6.00074C21.0008 6.51555 21.0008 6.5201 21.1056 6.50644C21.1967 6.49277 21.2058 6.46088 21.2286 6.17842L21.2514 5.85951L21.5156 6.19209C21.7206 6.44266 21.8072 6.51555 21.8801 6.50644C21.9758 6.49277 21.9803 6.46999 21.9803 5.92329C21.9803 5.37204 21.9758 5.35382 21.8801 5.34015C21.7844 5.32648 21.7799 5.34471 21.7662 5.69095L21.7525 6.05997L21.4655 5.6955C21.2514 5.4176 21.1557 5.33104 21.0737 5.33104C21.0099 5.33104 20.9462 5.35382 20.9279 5.38571Z" fill="black" style="fill:black;fill-opacity:1;"/>
<path d="M22.1851 5.3949C22.1851 5.43134 22.2078 5.4769 22.2306 5.49057C22.258 5.50879 22.2762 5.73203 22.2762 6.01904V6.51562H22.6634C23.0188 6.51562 23.0507 6.50651 23.0507 6.42451C23.0507 6.3425 23.0188 6.33339 22.8001 6.33339H22.5495V6.15116V5.96893H22.7773C22.9504 5.96893 23.0051 5.9507 23.0051 5.90059C23.0051 5.85048 22.9504 5.83225 22.7773 5.83225H22.5495V5.6728V5.51335H22.8046C23.0188 5.51335 23.0552 5.49968 23.0416 5.43134C23.0279 5.36756 22.9641 5.35389 22.6042 5.34023C22.258 5.33111 22.1851 5.34023 22.1851 5.3949Z" fill="black" style="fill:black;fill-opacity:1;"/>
<path d="M23.379 5.37648C23.3243 5.39926 23.256 5.47215 23.2332 5.54049C23.1649 5.71816 23.2651 5.87762 23.5293 6.0234C23.7936 6.16463 23.8346 6.30131 23.6296 6.32409C23.5567 6.3332 23.4382 6.31953 23.3653 6.29219C23.2332 6.24664 23.2287 6.25119 23.2423 6.36964C23.256 6.48809 23.2697 6.49265 23.5339 6.50632C23.7571 6.51543 23.83 6.50176 23.9303 6.42431C24.1626 6.24208 24.0806 5.9824 23.7344 5.80928C23.5703 5.72727 23.5066 5.66805 23.5066 5.59516C23.5066 5.5086 23.5248 5.50404 23.7571 5.52682C23.9804 5.5496 24.0077 5.54049 24.0077 5.46759C24.0077 5.42204 23.9758 5.37192 23.9348 5.35825C23.83 5.31725 23.502 5.33092 23.379 5.37648Z" fill="black" style="fill:black;fill-opacity:1;"/>
<path d="M24.2082 5.38578C24.19 5.41312 24.1991 5.44957 24.2264 5.45868C24.2629 5.46779 24.2811 5.63635 24.2811 5.99626V6.51562H24.4178H24.5545V5.92337V5.33111H24.3996C24.313 5.33111 24.2264 5.35389 24.2082 5.38578Z" fill="black" style="fill:black;fill-opacity:1;"/>
<path d="M24.9597 5.39886C24.6955 5.54465 24.7729 5.82711 25.1237 6.00934C25.2786 6.09134 25.3515 6.15968 25.3515 6.21891C25.3515 6.32825 25.1647 6.36469 24.9597 6.2918C24.8276 6.24624 24.823 6.2508 24.8367 6.36925C24.8504 6.4877 24.864 6.49226 25.1283 6.50592C25.4745 6.52415 25.6476 6.41025 25.6476 6.1779C25.6476 6.0139 25.5884 5.94556 25.2968 5.78611C25.1693 5.71777 25.1009 5.64487 25.1009 5.59021C25.1009 5.5082 25.1237 5.50364 25.3515 5.52642C25.5747 5.5492 25.6021 5.54009 25.6021 5.4672C25.6021 5.42164 25.5702 5.37153 25.5292 5.35786C25.4016 5.30775 25.0827 5.33052 24.9597 5.39886Z" fill="black" style="fill:black;fill-opacity:1;"/>
<path d="M2.33037 4.68374C2.33948 4.70652 2.49893 4.86142 2.68572 5.03454C4.03424 6.26461 5.0183 6.63818 7.51488 6.8523C8.65383 6.95253 10.2074 7.0482 12.0935 7.13021C12.9955 7.17121 13.8429 7.22588 13.9796 7.25322C14.1481 7.28511 14.2711 7.34433 14.3896 7.44912C14.4807 7.53112 14.5399 7.61312 14.5263 7.62679C14.4989 7.65413 11.2142 7.59946 9.35998 7.54023C8.77684 7.52201 8.50805 7.52656 8.53994 7.55845C8.64472 7.66324 10.9226 8.30105 12.18 8.57896L12.8224 8.72019L14.5992 8.72474C16.5263 8.7293 16.5126 8.7293 16.7586 8.98898L16.8634 9.10287L16.6675 9.13021C16.4443 9.15754 15.1914 9.24866 15.0274 9.24866C14.9636 9.24866 14.9408 9.26688 14.9682 9.28966C15.0183 9.34433 16.6356 9.78625 17.3554 9.95025C18.0251 10.096 19.1777 10.3102 19.2005 10.2874C19.2096 10.2783 19.1049 10.178 18.9636 10.0687C18.3759 9.59946 17.7108 8.79308 16.8497 7.51745C16.4033 6.8523 15.9477 6.35572 15.6333 6.1826C15.2096 5.95481 14.2484 5.78625 12.2074 5.58123C6.91351 5.06187 2.58549 4.64729 2.38959 4.64729C2.34859 4.64729 2.32126 4.66552 2.33037 4.68374Z" fill="black" style="fill:black;fill-opacity:1;"/>
<path d="M40.0893 4.8113C39.2009 4.89331 37.415 5.06643 36.1257 5.19399C34.8364 5.32155 33.1553 5.48556 32.39 5.56301C30.1257 5.78169 29.1736 5.9457 28.7362 6.1826C28.4219 6.35572 27.9663 6.8523 27.5198 7.51745C26.6588 8.79308 25.9936 9.59946 25.4059 10.0687C25.2647 10.178 25.1599 10.2783 25.169 10.2874C25.1918 10.3102 26.3444 10.096 27.0141 9.95025C27.7339 9.78625 29.3512 9.34433 29.4014 9.28966C29.4287 9.26688 29.4059 9.24866 29.3421 9.24866C29.1781 9.24866 27.9253 9.15754 27.702 9.13021L27.5061 9.10287L27.6109 8.98898C27.8569 8.7293 27.8433 8.7293 29.7704 8.72474L31.5471 8.72019L32.1895 8.57896C33.4424 8.30105 35.7248 7.66324 35.8296 7.55845C35.8615 7.52656 35.5973 7.52201 35.0323 7.54023C33.2465 7.5949 29.8706 7.65413 29.8433 7.62679C29.8296 7.61312 29.8888 7.53112 29.9799 7.44912C30.0984 7.34433 30.2214 7.28511 30.39 7.25322C30.5266 7.22588 31.374 7.17121 32.2761 7.13021C34.1622 7.0482 35.7111 6.95253 36.8547 6.8523C39.3467 6.63818 40.3353 6.26461 41.6838 5.03454C41.8706 4.86142 42.0346 4.70652 42.0392 4.68374C42.0619 4.62907 41.866 4.64274 40.0893 4.8113Z" fill="black" style="fill:black;fill-opacity:1;"/>
<path d="M14.6177 14.4427C13.866 14.5703 13.3421 15.2719 13.4059 16.0646C13.4469 16.6022 13.7703 17.0851 14.2487 17.3174C14.4309 17.4085 14.5312 17.4268 14.9184 17.4268C15.3193 17.4268 15.4059 17.4131 15.6337 17.3038C15.7795 17.2354 15.9708 17.1261 16.0574 17.0577L16.2168 16.9393V16.3744V15.8094H15.7157H15.2145V15.9917V16.1739H15.5107H15.8068V16.4381C15.8068 16.6386 15.784 16.7252 15.7293 16.7753C15.5562 16.9256 15.3148 17.0076 15.0004 17.0304C14.7088 17.0486 14.6405 17.035 14.4264 16.9302C14.0346 16.7388 13.8478 16.4063 13.8478 15.9006C13.8524 15.2673 14.276 14.8391 14.8956 14.8391C15.2464 14.8391 15.4924 14.9484 15.7111 15.1944L15.8569 15.363L16.0118 15.2536C16.0984 15.199 16.1713 15.1352 16.1713 15.1215C16.1713 15.1079 16.0984 15.0122 16.0118 14.9074C15.7111 14.5566 15.1189 14.3607 14.6177 14.4427Z" fill="black" style="fill:black;fill-opacity:1;"/>
<path d="M25.8703 14.438C25.3191 14.5473 25.0184 15.0712 25.228 15.5496C25.3419 15.8047 25.556 15.9551 25.966 16.0644C26.499 16.2056 26.6038 16.2967 26.6038 16.6065C26.6038 16.7295 26.5674 16.807 26.4671 16.9118C26.335 17.0393 26.3077 17.0484 26.0434 17.0302C25.7154 17.012 25.5651 16.9209 25.4193 16.6658L25.3236 16.4972L25.1687 16.5929C25.0822 16.643 25.0093 16.7113 25.0093 16.7387C25.0093 16.848 25.2781 17.1715 25.474 17.299C25.6289 17.4038 25.72 17.4311 26.007 17.4402C26.2986 17.4539 26.3851 17.4357 26.5537 17.3491C26.8589 17.1942 27.0229 16.9573 27.0503 16.6521C27.0913 16.1646 26.8453 15.8822 26.2075 15.6954C25.7701 15.5633 25.6015 15.4357 25.6015 15.2261C25.6015 14.7979 26.2348 14.6885 26.5856 15.0576L26.7268 15.2079L26.868 15.1168C27.0366 15.012 27.0412 15.0074 26.9318 14.8389C26.7223 14.5291 26.2803 14.3605 25.8703 14.438Z" fill="black" style="fill:black;fill-opacity:1;"/>
<path d="M29.7518 14.4474C29.4967 14.4975 29.2553 14.6798 29.1505 14.9167C28.9136 15.4406 29.1915 15.8825 29.8703 16.0647C30.4124 16.206 30.5218 16.2925 30.5218 16.6023C30.5218 16.8574 30.3623 17.0032 30.0571 17.0306C29.7291 17.0579 29.5013 16.9531 29.3373 16.6934L29.2188 16.5021L29.073 16.5932C28.991 16.6433 28.9272 16.7025 28.9272 16.7253C28.9272 16.9167 29.3145 17.313 29.5878 17.4041C29.6835 17.436 29.8931 17.4497 30.0662 17.4406C30.4534 17.4178 30.7177 17.2584 30.8771 16.9486C31.1596 16.3882 30.8771 15.9189 30.1254 15.6912C29.6653 15.5545 29.5195 15.4451 29.5195 15.2401C29.5195 15.0442 29.6288 14.9076 29.8384 14.8529C30.0708 14.7891 30.3669 14.8893 30.5127 15.0761L30.622 15.2128L30.7769 15.1126C30.8589 15.0579 30.9318 14.9987 30.9318 14.9805C30.9318 14.9622 30.868 14.8757 30.786 14.7846C30.5309 14.493 30.1573 14.37 29.7518 14.4474Z" fill="black" style="fill:black;fill-opacity:1;"/>
<path d="M17.0366 15.9455V17.4033H17.8111H18.5856V17.2211V17.0389H18.0161H17.4466V16.5833V16.1277H17.9751H18.499L18.4854 15.9318L18.4717 15.7405L17.9615 15.7268L17.4466 15.7131V15.2849V14.8521H18.0161H18.5856V14.6698V14.4876H17.8111H17.0366V15.9455Z" fill="black" style="fill:black;fill-opacity:1;"/>
<path d="M19.4059 15.9458V17.4037H19.6109H19.8159L19.825 16.3968L19.8387 15.39L20.8091 16.4196C21.3421 16.9845 21.8068 17.4492 21.8432 17.4492C21.9025 17.4492 21.9116 17.2351 21.9116 15.9686V14.4879H21.7066H21.5016V15.4993L21.497 16.5153L20.5084 15.4993C19.9662 14.9435 19.4924 14.4834 19.4651 14.4879C19.4196 14.4879 19.4059 14.8114 19.4059 15.9458Z" fill="black" style="fill:black;fill-opacity:1;"/>
<path d="M22.8687 15.9455V17.4033H23.6431H24.4176V17.2211V17.0389H23.8482H23.2787V16.5833V16.1277H23.8026H24.3265V15.9227V15.7177H23.8026H23.2787V15.2849V14.8521H23.8482H24.4176V14.6698V14.4876H23.6431H22.8687V15.9455Z" fill="black" style="fill:black;fill-opacity:1;"/>
<path d="M27.7886 15.9455V17.4033H28.0164H28.2442V15.9455V14.4876H28.0164H27.7886V15.9455Z" fill="black" style="fill:black;fill-opacity:1;"/>
</svg>
