<svg width="38" height="20" viewBox="0 0 38 20" fill="none" xmlns="http://www.w3.org/2000/svg">
<g clip-path="url(#clip0_49_25870)">
<mask id="mask0_49_25870" style="mask-type:luminance" maskUnits="userSpaceOnUse" x="0" y="0" width="38" height="20">
<path d="M37.3665 0H0.417358V19.8596H37.3665V0Z" fill="white" style="fill:white;fill-opacity:1;"/>
</mask>
<g mask="url(#mask0_49_25870)">
<path d="M16.4687 0.0171045C16.4516 0.0341514 15.139 0.0568806 13.5479 0.062563L10.6556 0.0739274L10.6954 1.18766C10.7409 2.46049 10.7864 3.62537 10.8148 4.11971C10.8261 4.30724 10.8375 4.50612 10.8375 4.55727C10.8432 4.68795 10.9454 4.69364 13.3775 4.83002C17.804 5.07435 20.0258 5.08005 23.9125 4.85842C24.708 4.81296 25.6455 4.75615 25.9865 4.7391C26.7763 4.69364 26.9184 4.68229 26.9468 4.65385C26.9695 4.62544 27.1002 1.50587 27.1173 0.664886L27.123 0.113704L26.6684 0.0852921C25.9069 0.0511982 16.4971 -0.0169893 16.4687 0.0171045Z" fill="black" style="fill:black;fill-opacity:1;"/>
<path d="M6.66628 0.153857C5.43323 0.182268 2.88755 0.295914 2.34773 0.341372C1.54084 0.420925 1.21127 0.534572 0.887376 0.858463C0.489615 1.25622 0.42711 1.52329 0.455522 2.78476C0.466886 3.36435 0.495298 3.82463 0.529392 3.85873C0.563485 3.88713 0.81919 3.9269 1.09762 3.94964C1.38174 3.96669 1.87609 4.00646 2.20567 4.03486C2.89323 4.09737 3.05233 4.10873 4.9616 4.26215C5.74574 4.31896 6.63787 4.38717 6.95038 4.40422C7.26292 4.42127 7.82546 4.46103 8.20048 4.48944C8.57553 4.52354 9.09831 4.55764 9.36536 4.58035C9.63245 4.59741 9.94496 4.62015 10.0643 4.63151L10.2745 4.64856V4.38717C10.2745 4.23944 10.2348 3.32458 10.1893 2.35859C10.1438 1.38691 10.1041 0.489111 10.1041 0.352738V0.108398L8.67211 0.125445C7.88228 0.13681 6.97879 0.148174 6.66628 0.153857Z" fill="black" style="fill:black;fill-opacity:1;"/>
<path d="M27.6115 2.0798C27.5718 3.1708 27.532 4.17658 27.5206 4.31295C27.5092 4.45502 27.5092 4.58 27.5206 4.60275C27.532 4.6198 27.7763 4.6198 28.0718 4.59705C28.3616 4.57434 28.8673 4.54024 29.1969 4.52319C29.5265 4.50048 29.9242 4.47204 30.0777 4.46068C30.2367 4.44932 30.5663 4.42658 30.8163 4.40956C31.4925 4.3641 34.8566 4.09702 36.1576 3.98905L37.2942 3.89244L37.3281 3.55153C37.3966 2.86396 37.3454 1.63658 37.2373 1.3411C37.1068 0.977435 36.7885 0.66491 36.402 0.522852C35.8566 0.31829 33.953 0.204643 29.8731 0.136456L27.6854 0.0966797L27.6115 2.0798Z" fill="black" style="fill:black;fill-opacity:1;"/>
<path d="M0.586041 4.6711C0.739463 5.6655 0.983803 6.34737 1.35315 6.83605C2.03503 7.73384 3.2624 8.33618 5.58077 8.89303C7.1207 9.26238 10.6608 9.95564 10.6948 9.89313C10.7062 9.87608 10.6721 9.31923 10.6153 8.66574C10.5585 8.00659 10.4675 6.96106 10.4164 6.33601C10.3653 5.71096 10.3198 5.19954 10.3141 5.19388C10.3085 5.18818 9.48453 5.13137 8.48443 5.06316C7.48436 4.99499 6.54107 4.92679 6.38199 4.91544C6.22857 4.90408 5.90467 4.87567 5.67168 4.85862C5.43874 4.84157 5.10348 4.81883 4.93301 4.80177C4.76253 4.78472 4.45568 4.76201 4.25111 4.74496C2.54643 4.61994 0.892884 4.48357 0.739463 4.45516L0.546265 4.42676L0.586041 4.6711Z" fill="black" style="fill:black;fill-opacity:1;"/>
<path d="M35.9869 4.54615C35.3618 4.60297 34.6232 4.66548 34.3391 4.68822C34.0606 4.70527 33.7254 4.73368 33.6004 4.74504C33.4753 4.75639 33.1571 4.77914 32.8901 4.80185C32.623 4.8189 32.282 4.84731 32.123 4.8587C31.7707 4.89276 31.532 4.90982 29.3102 5.06324C28.3272 5.13144 27.5089 5.19395 27.5032 5.20531C27.4805 5.22236 27.0941 9.5011 27.0941 9.75114V9.92731L28.1056 9.74544C28.6624 9.64317 29.7534 9.42724 30.5319 9.26246C33.8049 8.58059 35.0947 8.11463 35.9927 7.30775C36.6517 6.7111 36.9303 6.16561 37.1462 5.04053C37.2429 4.5291 37.2429 4.42114 37.1574 4.43819C37.1405 4.44388 36.612 4.495 35.9869 4.54615Z" fill="black" style="fill:black;fill-opacity:1;"/>
<path d="M10.9172 5.75093C10.9626 6.4669 11.2354 9.64331 11.2695 9.86493L11.2979 10.0354L12.082 10.1661C13.3321 10.3706 15.3891 10.6661 16.5256 10.8025C17.8893 10.9673 19.7929 10.9787 21.043 10.8366C22.9295 10.615 26.4014 10.0865 26.481 10.007C26.498 9.98992 26.5321 9.83083 26.5492 9.66036C26.5833 9.3251 26.5833 9.31375 26.7537 7.24537C26.8162 6.49531 26.8844 5.73388 26.9015 5.54636L26.9356 5.2168L26.3219 5.25656C25.9809 5.27931 25.5889 5.30202 25.4468 5.31341C25.3047 5.32476 24.8615 5.34747 24.4524 5.37022C24.049 5.39293 23.6171 5.41568 23.4978 5.42703C21.9522 5.5691 16.2528 5.5691 14.2811 5.42703C14.1276 5.41568 13.7015 5.39293 13.3435 5.37022C12.9855 5.35317 12.5366 5.32476 12.3491 5.31341C12.1616 5.30202 11.7524 5.27361 11.4456 5.25656L10.8831 5.2168L10.9172 5.75093Z" fill="black" style="fill:black;fill-opacity:1;"/>
<path d="M0.876556 14.6209C0.444702 14.8653 0.444702 14.8823 0.444702 17.1609C0.444702 19.4395 0.444702 19.4566 0.876556 19.7009L1.09817 19.8316H4.2689H7.43395V18.269V16.7063L5.14964 16.7177L2.85968 16.7347V17.1609V17.5871L4.66666 17.6041L6.46795 17.6155V18.269V18.9224H3.9393H1.41069V17.1609C1.41069 16.1893 1.42774 15.3994 1.45615 15.3994C1.47888 15.3994 2.82559 15.3937 4.45073 15.3824L7.40551 15.371L7.42256 14.9278L7.43961 14.4902H4.2689H1.09817L0.876556 14.6209Z" fill="black" style="fill:black;fill-opacity:1;"/>
<path d="M9.02478 16.837C9.02478 19.4849 9.01912 19.4565 9.46234 19.7009C9.68963 19.8316 9.68963 19.8316 12.7524 19.8316L15.8152 19.8373V19.394V18.9508L12.9058 18.9338L9.99078 18.9224V18.2689V17.6155L12.8206 17.6041L15.6447 17.5871V17.1609V16.7347L12.8149 16.7177L9.98512 16.7063L10.0021 16.0472L10.0192 15.3937L12.9172 15.3823L15.8152 15.371L15.8322 14.9278L15.8492 14.4902H12.4342H9.02478V16.837Z" fill="black" style="fill:black;fill-opacity:1;"/>
<path d="M17.2762 16.8882C17.2933 19.1895 17.2989 19.2975 17.4069 19.4452C17.4694 19.5304 17.6115 19.6498 17.7251 19.7123C17.9297 19.8316 18.0035 19.8316 21.0095 19.8316H24.0836V19.377V18.9224H21.1572H18.2308V18.269V17.6155L21.0606 17.6041L23.8847 17.5871L23.9018 17.1439L23.9188 16.7063H21.072H18.2252L18.2422 16.0529L18.2592 15.3937L21.1572 15.3824L24.0552 15.371L24.0722 14.9278L24.0893 14.4902H20.6742H17.2592L17.2762 16.8882Z" fill="black" style="fill:black;fill-opacity:1;"/>
<path d="M25.5599 16.8541C25.5599 19.1611 25.5656 19.2293 25.6793 19.4168C25.7474 19.5191 25.8952 19.6555 26.0202 19.718C26.2248 19.8259 26.3611 19.8316 28.9125 19.8316H31.5832V19.377V18.9224H29.0545H26.5259V16.7063V14.4902H26.0429H25.5599V16.8541Z" fill="black" style="fill:black;fill-opacity:1;"/>
<path d="M31.4297 16.1267L33.0605 17.7576V18.786C33.0605 19.3486 33.0719 19.8259 33.0832 19.8373C33.0946 19.8486 33.3162 19.8543 33.5662 19.8429L34.0265 19.8202V18.8201V17.8144L35.6857 16.1551L37.3508 14.4902H36.7257H36.1006L34.8392 15.7517L33.5719 17.0188L32.3048 15.7517L31.0433 14.4902H30.4183H29.7932L31.4297 16.1267Z" fill="black" style="fill:black;fill-opacity:1;"/>
</g>
</g>
<defs>
<clipPath id="clip0_49_25870">
<rect width="36.9492" height="20" fill="white" style="fill:white;fill-opacity:1;" transform="translate(0.417358)"/>
</clipPath>
</defs>
</svg>
