<svg width="80" height="20" viewBox="0 0 80 20" fill="none" xmlns="http://www.w3.org/2000/svg">
<g clip-path="url(#clip0_49_25886)">
<path d="M11.367 0.0165008C8.77766 0.065264 5.66071 0.515349 3.85013 1.60131C2.68274 2.30935 1.24764 3.7503 0.807304 5.96903C0.365997 8.18727 0.569827 10.3475 1.0048 12.5691C1.43879 14.7898 2.30921 17.2758 4.71958 18.5568C7.13044 19.8373 8.74694 19.989 12.0507 19.9797C15.3544 19.9894 16.9709 19.8373 19.3817 18.5568C21.7921 17.2758 22.662 14.7898 23.0965 12.5687C23.531 10.348 23.7348 8.18727 23.294 5.96903C22.8537 3.7503 21.4186 2.30935 20.2512 1.60179C17.8983 0.30713 15.3105 0.0594124 12.7338 0.0165008C12.2647 0.0194266 11.8005 0.0111368 11.366 0.0165008H11.367ZM14.7375 0.613363C15.6933 0.704551 18.0851 0.890339 19.8757 1.95728C21.6653 3.02471 22.466 4.38179 22.8 6.02804C23.1345 7.67428 23.1053 9.75599 22.642 12.3912C22.1788 15.0263 20.8827 17.2187 19.1247 18.1418C17.3663 19.0649 15.1344 19.5535 12.0507 19.5062C8.96686 19.5535 6.73497 19.0649 4.97656 18.1418C3.21865 17.2187 1.92252 15.0258 1.45927 12.3912C0.996018 9.75599 0.96676 7.67428 1.30128 6.02804C1.6353 4.38179 2.43551 3.02471 4.22561 1.95728C6.01571 0.890339 8.40755 0.704551 9.3638 0.613363C11.1485 0.465123 12.9747 0.453907 14.7375 0.613363ZM11.4577 1.07174C9.98992 1.08978 8.41974 1.26972 7.34451 1.50085C6.11567 1.76418 5.69582 1.8578 4.6362 2.49172C3.57657 3.12565 2.2741 4.41592 1.87424 6.40303C1.47439 8.39013 1.65969 10.3255 2.05369 12.3146C2.4477 14.3041 3.23767 16.5307 5.42519 17.6776C9.06098 19.5711 15.1315 19.496 18.6761 17.6776C20.8636 16.5307 21.6531 14.3037 22.0476 12.3146C22.4421 10.3255 22.6269 8.39013 22.2271 6.40303C21.8272 4.41592 20.5242 3.12565 19.4651 2.49172C18.4055 1.8578 17.9856 1.76466 16.7568 1.50037C15.6816 1.26972 14.1109 1.08978 12.6436 1.07125C12.2369 1.07466 11.8341 1.06784 11.4577 1.07174ZM14.344 2.0275C14.7429 2.06456 15.4324 2.12161 16.2116 2.2718C16.3272 2.2957 16.392 2.33276 16.3667 2.44247C15.1135 5.48335 13.7739 8.5252 12.3774 11.5661C12.1891 11.9689 11.9512 11.9845 11.7581 11.6402C10.3488 8.57494 8.99807 5.50822 7.73461 2.44296C7.70926 2.33276 7.77411 2.2957 7.88968 2.27229C8.66892 2.12161 9.35843 2.06456 9.75731 2.02701C11.2812 1.90169 12.844 1.89389 14.344 2.0275ZM6.62915 2.6029C6.70035 2.60047 6.72424 2.64777 6.7218 2.737L6.72278 2.73408V7.85081C6.72278 9.46536 6.98659 10.2231 7.70097 11.5397L11.1242 17.8429C11.2407 18.0653 11.051 18.0506 10.8452 18.0531C8.80399 17.9653 7.24162 17.5688 5.96841 16.9115C4.44943 16.1274 3.33032 14.2656 2.92997 12.0284C2.53011 9.79061 2.50427 8.02294 2.79343 6.62539C3.08211 5.22734 3.77357 4.07458 5.31937 3.16807C5.7046 2.9423 6.12299 2.76285 6.54577 2.61948C6.57248 2.61 6.60038 2.60425 6.62866 2.60242L6.62915 2.6029ZM17.4722 2.6029C17.5004 2.60458 17.5283 2.61016 17.555 2.61948C17.9783 2.76285 18.3962 2.9423 18.7819 3.16807C20.3277 4.07458 21.0192 5.22734 21.3079 6.62539C21.597 8.02294 21.5712 9.79061 21.1713 12.0284C20.7715 14.2656 19.6514 16.1274 18.1334 16.9115C16.8597 17.5688 15.2968 17.9653 13.2561 18.0531C13.0503 18.0506 12.8606 18.0653 12.9776 17.8429L16.4003 11.5397C17.1142 10.2231 17.3785 9.46536 17.3785 7.85081V2.73408L17.3795 2.737C17.3771 2.64777 17.401 2.60095 17.4722 2.6029ZM46.0596 1.5462V2.33422H41.5076V4.53783L43.1265 4.55246V3.50356C43.1246 3.35825 43.2411 3.31046 43.4337 3.32606H50.597C50.6804 3.32509 50.8726 3.34411 50.876 3.48698V4.53783L52.4959 4.5232L52.4871 3.22122C52.4915 2.65069 52.0556 2.38737 51.5762 2.37811H47.8263V1.5462H46.0596ZM58.9087 1.61301L57.3776 4.47298H58.858L59.4354 3.41969H65.7195V2.56633L60.0371 2.52878L60.6769 1.62569L58.9087 1.61301ZM71.3141 1.61301L70.6363 2.61656L67.7466 2.62582V3.49527L69.7586 3.49381C69.8834 3.49283 69.9444 3.56695 69.8966 3.64498L68.4039 5.86614C68.1879 6.22065 68.2216 6.78387 68.8301 6.79411L72.9779 6.80874L72.9901 8.29212H67.613V9.22934L72.9779 9.24056L72.9896 11.4154H74.6173L74.6291 9.24056L79.1689 9.22934V8.29212H74.6173L74.6291 6.80874L78.5443 6.79752V5.99488L74.6383 5.99146L74.6178 4.36618H72.9891L72.9945 5.97879L70.6743 5.95343C70.3008 5.97293 70.2418 5.7891 70.3608 5.61501L71.8154 3.50795L78.9904 3.49576V2.62631L72.5054 2.61656L73.1676 1.62179L71.3141 1.61301ZM29.6898 1.73346V5.40874L27.9499 5.43654V6.37328H29.6898V10.681C29.721 11.0799 29.9868 11.2701 30.3671 11.3579H33.3353V10.4328H31.5696C31.4575 10.5157 31.2634 10.3894 31.2775 10.1412V6.34744H33.0579C34.4037 8.31601 35.4912 10.3792 39.5058 11.3701L39.4639 10.2436C37.6353 9.45073 35.7872 8.6988 34.6778 6.39084H39.5078V5.45702H31.2634V1.73589L29.6898 1.73346ZM55.9859 1.83878L54.2923 1.85146C54.7312 2.3469 55.0867 2.75553 55.7099 3.79565H57.1523C56.8027 3.15149 56.494 2.51513 55.9859 1.83878ZM36.6771 1.91095C35.2317 2.89987 33.9805 3.82491 33.2324 4.58172L34.9109 4.59635C36.2914 3.4075 37.6231 2.75797 38.9675 1.96947L36.6771 1.91095ZM45.3111 4.23452L44.4646 5.47311H41.2062V6.38011H43.7497C43.8131 6.44009 43.7326 6.54688 43.6493 6.65562L43.0158 7.65283C42.9134 7.84008 42.9046 8.03172 43.1348 8.23604L45.6188 9.38392C45.7222 9.43513 45.8368 9.48438 45.631 9.58434C44.4612 9.90325 43.1699 10.189 41.2062 10.2934V11.4159C43.581 11.1726 45.8338 10.8483 47.3811 10.0925C47.4187 10.0612 47.4333 10.0105 47.6069 10.0925C49.2517 10.5859 50.8618 11.1209 52.7465 11.3905V10.2934C51.4596 10.0477 50.1858 9.7378 48.9298 9.36491C48.8289 9.30493 48.8323 9.23471 48.8986 9.15815C49.9929 8.41354 50.5512 7.42267 50.9998 6.3806H52.7465V5.4736H46.4024C46.3503 5.44434 46.2527 5.45117 46.3088 5.34486L47.0988 4.3852C47.1378 4.33303 47.1427 4.2867 47.149 4.23452H45.3111ZM59.3588 4.29889V5.12397H65.2485V4.29889H59.3588ZM55.9986 4.72411L54.3806 4.74898C54.8404 5.34876 55.3003 5.92076 55.7601 6.84385C55.8474 7.13652 55.8342 7.44998 55.7226 7.73426C55.3656 9.0143 54.9375 10.2002 54.4806 11.3471L55.9859 11.3593C56.4599 10.0842 56.8066 8.80901 57.1147 7.53385C57.2562 6.76436 57.105 6.64538 56.9894 6.34207C56.7081 5.73692 56.3799 5.19516 55.9986 4.72411ZM58.1763 5.99439V6.86433L63.0853 6.88139C63.334 6.86286 63.3818 7.01549 63.3994 7.19494L63.4115 9.37759C63.4398 10.3943 64.6887 11.3613 65.918 11.393L65.9399 10.3714C65.267 10.2085 64.93 9.49023 64.9291 9.06404V6.74339C64.9203 6.43814 64.6691 6.04754 64.1766 6.00317L58.1763 5.99439ZM45.4901 6.3806H49.3838C49.1595 7.311 48.4578 8.13168 47.3348 8.87289C46.4621 8.59638 45.6038 8.27659 44.763 7.91469C44.5129 7.77571 44.5455 7.63674 44.6474 7.49825L45.4901 6.3806ZM30.983 13.1689C29.3606 13.1689 28.0094 13.6926 28.0094 15.7607C28.0465 17.8336 29.8073 18.3437 31.099 18.3437H33.5611V17.326L31.3414 17.3401C30.8426 17.3401 29.6308 17.1597 29.6308 15.7695C29.5947 14.3236 30.8986 14.1983 31.4194 14.1983H33.5611V13.1772L30.983 13.1689ZM60.7188 13.1689C59.9079 13.1777 57.7457 13.4201 57.7457 15.7607C57.7457 17.9848 59.4461 18.3437 60.6969 18.3437H63.9338C64.0118 18.3437 64.0767 18.2871 64.0767 18.194V15.4169C64.0767 15.356 64.0367 15.3135 63.9728 15.3135L61.5127 15.3082V16.262H62.5636C62.6864 16.262 62.7172 16.3985 62.7006 16.3985V17.2056C62.7006 17.2797 62.6738 17.3353 62.5767 17.3294L60.7481 17.3401C60.4243 17.3401 59.3666 17.1514 59.3666 15.7388C59.3666 14.2729 60.378 14.1983 60.8266 14.1983H64.0889V13.1772L60.7188 13.1689ZM44.5723 13.1772L42.378 18.333L43.6458 18.3437L45.3257 14.3412C45.3794 14.2105 45.553 14.2266 45.6037 14.3607L47.344 18.3447H48.963L46.9003 13.6356C46.6955 13.2114 46.4941 13.1777 46.1055 13.1777L44.5723 13.1772ZM50.8511 13.1772H50.1723L50.1826 18.3339L51.3802 18.3451V15.3272C51.4207 15.3355 51.4738 15.256 51.6801 15.413L54.6644 18.0267C54.8092 18.1647 55.0418 18.3437 55.4456 18.3437H56.1063C56.199 18.3437 56.2804 18.2671 56.2804 18.1277L56.2926 13.1777H55.0833L55.0799 15.9582C55.0799 16.2396 54.8653 16.2469 54.6668 16.0484L51.6947 13.4874C51.5299 13.3396 51.368 13.1772 50.8511 13.1772ZM67.5515 13.1772L65.3572 18.333L66.625 18.3437L68.3049 14.3407C68.3586 14.21 68.5322 14.2261 68.5829 14.3602L70.3228 18.3442H71.9417L69.879 13.6351C69.6747 13.2109 69.4733 13.1772 69.0847 13.1772H67.5515ZM73.7884 13.1772H73.1096L73.1198 18.3339L74.3175 18.3451V15.3272C74.3584 15.3355 74.4111 15.256 74.6178 15.413L77.6021 18.0267C77.7465 18.1647 77.9796 18.3437 78.3833 18.3437H79.0441C79.1367 18.3437 79.2182 18.2671 79.2182 18.1277L79.2303 13.1777H78.021L78.0171 15.9582C78.0171 16.2396 77.803 16.2469 77.6046 16.0484L74.632 13.4874C74.4672 13.3396 74.3053 13.1772 73.7884 13.1772ZM35.1986 13.1772V18.3447H36.6459V16.1937H39.6653V18.3442H41.1755V13.1782H39.6653V15.1165H36.6459V13.1782L35.1986 13.1772Z" fill="#0B457F" style="fill:#0B457F;fill:color(display-p3 0.0431 0.2706 0.4980);fill-opacity:1;"/>
<path d="M29.8429 1.82422V1.83982H29.8595V1.82422H29.8429ZM29.8024 1.82519C29.7971 1.82518 29.7919 1.826 29.7868 1.82763C29.7828 1.82883 29.7789 1.83082 29.7756 1.83348C29.7727 1.83587 29.7704 1.83887 29.7688 1.84226C29.7673 1.84531 29.7665 1.84863 29.7664 1.85201C29.7664 1.85835 29.7678 1.86323 29.7712 1.86713C29.7757 1.87184 29.7815 1.87507 29.7878 1.8764C29.7937 1.87812 29.7998 1.87942 29.8059 1.8803C29.8112 1.88127 29.8156 1.88273 29.8171 1.88469C29.8195 1.88664 29.8205 1.88956 29.8205 1.89249C29.8205 1.89736 29.8185 1.90078 29.8146 1.90273C29.8098 1.9052 29.8044 1.90638 29.799 1.90614C29.7933 1.90597 29.7877 1.90481 29.7824 1.90273C29.7769 1.90074 29.7716 1.89794 29.7668 1.89444H29.7659V1.91102C29.7758 1.91607 29.7869 1.91858 29.7981 1.91833C29.8077 1.91897 29.8173 1.9164 29.8254 1.91102C29.8286 1.9087 29.8312 1.90563 29.833 1.90205C29.8348 1.89848 29.8357 1.89453 29.8356 1.89054C29.8357 1.88768 29.8353 1.88482 29.8343 1.88214C29.8332 1.87946 29.8317 1.87701 29.8297 1.87493C29.8252 1.87084 29.8197 1.86813 29.8137 1.86713C29.8079 1.86556 29.802 1.86426 29.7961 1.86323C29.7922 1.86242 29.7885 1.86075 29.7854 1.85835C29.7829 1.85689 29.782 1.85396 29.782 1.85055C29.7818 1.84857 29.7822 1.84658 29.7831 1.84483C29.7841 1.84309 29.7855 1.84168 29.7873 1.8408C29.7917 1.83859 29.7966 1.83758 29.8015 1.83787C29.8123 1.83793 29.8229 1.84134 29.8317 1.84763V1.83202C29.8224 1.8275 29.8127 1.82516 29.8024 1.82519ZM29.8254 1.85445V1.86762H29.8439V1.9393L29.8434 1.95003C29.8431 1.95277 29.8423 1.95542 29.841 1.95783C29.8399 1.95993 29.8382 1.96163 29.8361 1.96271C29.8308 1.96465 29.8249 1.96482 29.8195 1.96319C29.8174 1.96263 29.8153 1.96198 29.8132 1.96124H29.8122V1.97587C29.8178 1.97729 29.8235 1.97795 29.8293 1.97782C29.8332 1.97796 29.8372 1.9773 29.8408 1.97588C29.8445 1.97445 29.8479 1.97229 29.8507 1.96953C29.8561 1.96466 29.8585 1.95637 29.8585 1.94613V1.85494L29.8254 1.85445ZM29.8995 1.85738C29.8896 1.85716 29.8797 1.85847 29.8702 1.86128V1.8764H29.8712C29.8803 1.87307 29.8898 1.8711 29.8995 1.87054L29.9092 1.87103L29.9165 1.87347C29.9187 1.87474 29.9204 1.87661 29.9214 1.87883C29.9229 1.88127 29.9234 1.88371 29.9234 1.88712V1.88956L29.899 1.89151C29.8923 1.89224 29.8857 1.89388 29.8795 1.89639C29.8744 1.8984 29.87 1.90178 29.8668 1.90614C29.8637 1.91108 29.8621 1.91687 29.8624 1.92272C29.8624 1.92648 29.8632 1.93019 29.8646 1.93366C29.8661 1.93712 29.8682 1.94026 29.8709 1.94289C29.8736 1.94553 29.8767 1.9476 29.8802 1.94899C29.8837 1.95038 29.8874 1.95107 29.8912 1.951C29.9008 1.95115 29.9102 1.94824 29.918 1.94271C29.9198 1.94139 29.9216 1.94009 29.9234 1.93881V1.94857H29.938V1.8881C29.9382 1.8831 29.9374 1.87812 29.9356 1.87347C29.934 1.86963 29.9315 1.86626 29.9283 1.86372C29.9246 1.86125 29.9204 1.85958 29.9161 1.85884C29.9106 1.85773 29.905 1.85724 29.8995 1.85738ZM29.9239 1.90175V1.92662C29.9199 1.92952 29.9157 1.93197 29.9112 1.93394C29.9066 1.93598 29.9016 1.93698 29.8966 1.93686C29.8907 1.93686 29.8858 1.93589 29.8829 1.93345C29.8795 1.93052 29.878 1.92662 29.878 1.92175C29.878 1.91687 29.8795 1.91346 29.8819 1.91102C29.8849 1.90819 29.8886 1.90617 29.8927 1.90517C29.9029 1.90377 29.9136 1.90263 29.9239 1.90175Z" fill="#0000FF" style="fill:#0000FF;fill:color(display-p3 0.0000 0.0000 1.0000);fill-opacity:1;"/>
</g>
<defs>
<clipPath id="clip0_49_25886">
<rect width="78.8644" height="20" fill="white" style="fill:white;fill-opacity:1;" transform="translate(0.366455)"/>
</clipPath>
</defs>
</svg>
