<svg width="33" height="20" viewBox="0 0 33 20" fill="none" xmlns="http://www.w3.org/2000/svg">
<g clip-path="url(#clip0_49_25889)">
<path fill-rule="evenodd" clip-rule="evenodd" d="M16.4041 0.0244141C7.48471 0.0244141 0.230835 4.49289 0.230835 10.013C0.230835 15.4907 7.48471 19.9758 16.4041 19.9758C25.3732 19.9758 32.5515 15.4907 32.5515 10.013C32.5515 4.49283 25.3732 0.0244141 16.4041 0.0244141ZM16.4041 1.93934C24.7449 1.93934 31.4905 5.52385 31.4905 10.013C31.4905 14.4608 24.7449 18.0608 16.4041 18.0608C8.11923 18.0608 1.36944 14.4608 1.36944 10.013C1.36944 5.52385 8.11923 1.93934 16.4041 1.93934ZM4.83696 6.28667V13.7134H6.75189V10.5824H9.98657V11.902H7.16592V13.7134H10.7887L11.8756 12.963V10.4788L11.3839 10.013L11.8756 9.57316V7.45119L10.8922 6.28673L4.83696 6.28667ZM12.6519 6.28667V9.93539L13.4541 10.7117L15.2396 10.6859V8.92624L14.9032 8.6157V6.28679H12.6519V6.28667ZM18.1379 6.28667V8.61564L17.8015 8.92618H15.6537V13.7135H17.8791V10.6858L19.5611 10.7116L20.3633 9.96123V6.28667H18.1379ZM21.1396 6.28667V13.7134H23.1581V8.14992H25.3576L25.9528 8.82275V11.8762H23.5721V13.7135H27.9453V7.60655L26.8326 6.28673L21.1396 6.28667ZM6.75189 8.09811H9.96067V9.41786H6.75189V8.09811Z" fill="#D9261C" style="fill:#D9261C;fill:color(display-p3 0.8510 0.1490 0.1098);fill-opacity:1;"/>
</g>
<defs>
<clipPath id="clip0_49_25889">
<rect width="32.3206" height="20" fill="white" style="fill:white;fill-opacity:1;" transform="translate(0.230835)"/>
</clipPath>
</defs>
</svg>
