<svg width="39" height="20" viewBox="0 0 39 20" fill="none" xmlns="http://www.w3.org/2000/svg">
<path d="M22.5822 10.1713L20.9594 13.4122H20.9076L20.8062 10.1713H19.4359L19.3841 10.2727L19.4877 10.3741C19.5892 10.4237 19.641 10.5251 19.641 10.728L19.8506 14.7284H21.4282L23.9074 10.1713H22.5822ZM17.6599 12.4994C17.5609 12.8418 17.4088 13.1665 17.2092 13.4618C16.9922 13.6301 16.7242 13.7192 16.4496 13.7142C16.0935 13.7142 15.8907 13.5632 15.8907 13.3085C15.9129 12.9746 15.9986 12.648 16.1431 12.3462C16.2964 11.9405 16.3955 11.6362 16.5939 11.4447C16.7471 11.2937 16.8981 11.1922 17.3534 11.1922C17.7095 11.1922 17.8605 11.3432 17.8605 11.5979C17.8369 11.9072 17.7693 12.2115 17.6599 12.5017V12.4994ZM17.5585 10.1194H17.4548C16.5939 10.1194 16.0845 10.3223 15.6788 10.7775C15.1717 11.2846 14.7142 12.7023 14.7142 13.4618C14.7142 14.2213 15.2236 14.778 16.2919 14.778H16.4451C17.3083 14.778 17.7636 14.5256 18.1693 14.1199C18.6786 13.6128 19.1339 12.1456 19.1339 11.4357C19.1316 10.6288 18.6245 10.1217 17.5585 10.1217V10.1194ZM26.3865 12.9074L26.7426 11.945H25.165L25.4174 11.2351H27.1438L27.4976 10.1713H24.2567L24.2049 10.3223L24.3063 10.3719C24.3597 10.5018 24.3597 10.6476 24.3063 10.7775L22.936 14.6766H25.9809L26.337 13.6646H24.561L24.8134 12.9051L26.3865 12.9074ZM32.0705 15.3369C28.3653 17.2098 23.7496 17.9693 19.5869 17.9693C15.476 17.9693 10.858 17.2098 7.15507 15.3369C5.22584 14.325 2.58668 12.4498 2.58668 10.0203C2.58668 7.54113 5.22584 5.66599 7.15507 4.65404C10.8603 2.78116 15.476 2.02164 19.5869 2.02164C23.7496 2.02164 28.3766 2.78116 32.0705 4.65404C33.9998 5.66599 36.5781 7.54113 36.5781 10.0203C36.5894 12.4498 33.9998 14.325 32.0728 15.3369H32.0705ZM32.2238 4.29344C28.469 2.36872 23.7992 1.61145 19.5869 1.61145C15.4242 1.61145 10.7566 2.37098 7.00182 4.29344C4.86974 5.40681 2.18099 7.33154 2.18099 10.0158C2.18099 12.6482 4.86974 14.6225 7.00182 15.6863C10.7566 17.611 15.4242 18.3705 19.5869 18.3705C23.7992 18.3705 28.4668 17.611 32.2238 15.6863C34.3536 14.6225 37.0424 12.6482 37.0424 10.0158C37.0446 7.33604 34.3559 5.41357 32.2238 4.29795V4.29344ZM30.0917 11.8368C30.0177 11.9494 29.9118 12.0373 29.7875 12.0892C29.7379 12.1388 29.5351 12.1388 29.3818 12.1388H28.8229L29.1271 11.1765H29.8371C30.0895 11.1765 30.1413 11.3275 30.1413 11.4289C30.1484 11.5689 30.1316 11.7092 30.0917 11.8436V11.8368ZM29.9385 10.1668H28.0093L27.9597 10.2682L28.0611 10.3696C28.1129 10.4192 28.1129 10.5206 28.0611 10.7753L26.693 14.7284H27.9101L28.469 13.1508H28.8657L29.3728 14.7284H30.5921L30.0331 13.108C30.2803 13.0805 30.512 12.9738 30.6935 12.8037C30.9699 12.5444 31.1642 12.2099 31.2524 11.8413C31.3298 11.6466 31.3652 11.4377 31.3563 11.2284C31.3474 11.0191 31.2943 10.814 31.2006 10.6265C31.0068 10.3741 30.6507 10.1713 29.9407 10.1713L29.9385 10.1668ZM32.5258 16.252C29.0775 18.0234 24.5091 18.9858 19.5869 18.9858C14.7142 18.9858 10.1481 18.0234 6.69756 16.252C3.39804 14.5301 1.57248 12.3529 1.57248 10.0248C1.57248 7.69664 3.40029 5.46766 6.69756 3.74577C10.1481 1.97431 14.7142 1.01195 19.5869 1.01195C24.5091 1.01195 29.0775 1.97431 32.5258 3.74577C35.8253 5.46766 37.6509 7.69439 37.6509 10.0248C37.6509 12.3552 35.8276 14.5256 32.5281 16.2475L32.5258 16.252ZM32.9766 2.83525C29.4246 1.01195 24.6556 0 19.5801 0C14.5565 0 9.78523 1.01195 6.23328 2.83525C4.10347 3.94862 0.551514 6.3286 0.551514 10.0248C0.551514 13.6691 4.10347 16.0491 6.23328 17.1647C9.78523 18.9881 14.5565 20 19.5801 20C24.6556 20 29.4246 18.9881 32.9766 17.1647C35.1086 16.0514 38.6606 13.6714 38.6606 10.0248C38.6696 6.32409 35.1177 3.9441 32.9856 2.83074L32.9766 2.83525ZM13.389 11.8503C13.315 11.9629 13.2091 12.0508 13.0848 12.1028C13.0352 12.1523 12.8819 12.1524 12.6791 12.1524H12.1201L12.4244 11.19H13.1343C13.3868 11.19 13.4386 11.341 13.4386 11.4424C13.4471 11.5775 13.4334 11.713 13.398 11.8436L13.389 11.8503ZM13.2876 10.1803H11.3088L11.2592 10.2817L11.3606 10.3831C11.4125 10.4327 11.4125 10.5341 11.3606 10.7888L9.99709 14.7284H11.2141L11.7731 13.1508H12.1878L12.6949 14.7284H13.9119L13.353 13.108C13.6032 13.0921 13.8386 12.9836 14.0133 12.8037C14.2897 12.5444 14.484 12.2099 14.5723 11.8413C14.6497 11.6466 14.6851 11.4377 14.6761 11.2284C14.6672 11.0191 14.6141 10.814 14.5204 10.6265C14.3108 10.3741 13.9547 10.1713 13.2966 10.1713L13.2876 10.1803ZM10.1323 10.7888L6.68178 11.9022L6.27611 13.0156H9.26911L9.67479 11.9518H7.61259L9.99933 11.1427L10.1323 10.7888ZM15.156 5.92743L15.2078 7.29547H14.3446L15.156 5.92743ZM11.9579 9.21794H13.2786L13.8556 8.19247H15.2258V9.20441H16.4429L16.1905 4.64728H14.4145L14.3627 4.7487L14.4145 4.85013C14.5159 4.89971 14.4641 5.05297 14.1102 5.60965L11.9579 9.21794ZM16.7291 9.21794H17.8447L18.8612 6.28803L19.4201 9.21794H20.547L22.1247 4.6608H20.9572L20.094 7.13996L19.6432 4.6608H18.0183L17.9687 4.76223L18.0701 4.86365C18.1715 4.96507 18.1715 5.06649 18.0701 5.26933L16.7291 9.21794ZM23.7496 5.71332H24.2567C24.6106 5.71332 24.7638 5.86432 24.8157 6.119C24.7889 6.41978 24.7031 6.71235 24.5632 6.97994C24.41 7.4307 24.3085 7.68988 24.1125 7.88145C24.011 8.03245 23.8082 8.08429 23.3507 8.08429H22.945L23.7496 5.71332ZM22.6836 5.26257L21.3133 9.21118H23.3417C24.2049 9.21118 24.6624 9.00834 25.0681 8.60266C25.5752 8.04598 26.0327 6.67794 25.9809 5.91841C25.9809 5.15889 25.4738 4.65179 24.4573 4.65179H22.6318L22.5799 4.75321L22.6813 4.85463C22.736 4.98496 22.7368 5.13164 22.6836 5.26257ZM30.245 6.27451H27.2001L26.7945 7.38787H28.9265L26.5398 8.14739L26.3865 8.55308L29.7852 7.43971L30.245 6.27451ZM8.5772 9.20441H11.6739L12.0277 8.09105H10.2518L11.4192 4.64728H9.84158V4.7487L9.89341 4.85013C9.99483 4.95155 9.99483 5.05296 9.89341 5.2558L8.5772 9.20441Z" fill="#333333" style="fill:#333333;fill:color(display-p3 0.2000 0.2000 0.2000);fill-opacity:1;"/>
</svg>
