<svg width="32" height="33" viewBox="0 0 32 33" fill="none" xmlns="http://www.w3.org/2000/svg">
<g clip-path="url(#clip0_49_13951)">
<path fill-rule="evenodd" clip-rule="evenodd" d="M23.0544 2.58062C27.894 5.12582 31.2 10.2002 31.2 16.0494C31.2 21.8986 27.894 26.989 23.0544 29.5186V27.7794C24.9052 26.6722 26.4708 25.123 27.61 23.2894L23.0544 21.4402V18.6262L28.0524 22.531C29.0964 20.6022 29.6816 18.4046 29.6816 16.049C29.6816 11.085 27.024 6.72222 23.0544 4.31902V2.58062ZM16.016 0.857422C18.5469 0.857422 20.9348 1.47422 23.0544 2.58062V4.31982C21.1088 3.14942 18.8312 2.45422 16.4272 2.37502L18.1668 14.8166L23.0544 18.6266V21.4406L15.984 18.579L8.96125 21.4562V18.6578L13.8804 14.8162L15.6044 2.37462C13.1684 2.45382 10.9068 3.14942 8.96125 4.31902V2.58062C11.0652 1.47422 13.4692 0.857422 16.016 0.857422ZM23.0544 29.5186C20.9348 30.625 18.5464 31.257 16.016 31.257C13.4696 31.257 11.0656 30.625 8.96165 29.5342V27.7794C11.018 29.0278 13.4376 29.7394 16.016 29.7394C18.5784 29.7394 20.9828 29.0278 23.0544 27.7794V29.5186ZM8.96165 29.5342C4.10565 26.989 0.800049 21.8986 0.800049 16.0494C0.800049 10.2002 4.10565 5.12582 8.96165 2.58062V4.31982C4.97565 6.72262 2.31845 11.0698 2.31845 16.0494C2.31845 18.4046 2.91965 20.6342 3.96365 22.5626L8.96165 18.6578V21.4562L4.42205 23.321C5.56085 25.1398 7.11085 26.6726 8.96165 27.7794V29.5342Z" fill="black" style="fill:black;fill-opacity:1;"/>
</g>
<defs>
<clipPath id="clip0_49_13951">
<rect width="32" height="32" fill="white" style="fill:white;fill-opacity:1;" transform="translate(0 0.0566406)"/>
</clipPath>
</defs>
</svg>
