<svg width="161" height="20" viewBox="0 0 161 20" fill="none" xmlns="http://www.w3.org/2000/svg">
<path d="M3.72332 0.103142C2.89957 0.250996 2.01245 0.926897 1.33655 1.91963L0.660645 2.93348V9.77699C0.681766 16.2614 0.808498 17.8667 1.31542 17.8667C1.42103 17.8667 1.50552 17.9723 1.50552 18.099C1.50552 18.2258 1.63225 18.437 1.78011 18.5848C2.05469 18.8805 3.4065 19.6409 3.65996 19.662C3.72332 19.662 3.85006 19.7254 3.93454 19.8099C4.01903 19.8944 9.86981 19.9578 16.9457 19.9789L29.8089 20V18.0779V16.1769H18.3397C6.9761 16.1769 6.87049 16.1769 6.38469 15.7334C5.75103 15.142 5.58205 14.6139 5.53981 13.0086L5.49757 11.6357L16.7556 11.6991L28.0135 11.7413V9.84035V7.93938L16.8189 7.89713L5.6243 7.83377L5.60318 6.56645C5.58205 5.10904 5.75103 4.62323 6.53254 4.03182C7.08171 3.6305 7.44078 3.60938 18.5087 3.60938H29.9145L29.8723 1.85626L29.8512 0.124264L16.9879 0.0608978C9.91205 0.0397758 3.93454 0.0608978 3.72332 0.103142Z" fill="#1F1E1E" style="fill:#1F1E1E;fill:color(display-p3 0.1216 0.1176 0.1176);fill-opacity:1;"/>
<path d="M33.3362 0.526114C33.653 0.800699 34.16 1.22314 34.4557 1.4766C35.026 1.96241 36.6523 3.2086 37.4127 3.71553C37.6662 3.8845 38.0464 4.18021 38.2576 4.37031C38.4688 4.53928 38.9124 4.87723 39.2292 5.10957C39.884 5.59538 40.3909 5.9967 41.5315 6.98943C41.9962 7.39074 42.4398 7.72869 42.5242 7.72869C42.6087 7.72869 42.7988 7.85542 42.9467 7.98216C43.0945 8.13001 43.6015 8.53133 44.0661 8.8904C44.5308 9.22835 45.0166 9.60855 45.1434 9.71416C45.3123 9.86201 44.9533 10.2422 44.0028 10.9604C43.2424 11.5306 42.5031 12.1221 42.3341 12.291C42.1652 12.46 41.9751 12.5867 41.8906 12.5867C41.8061 12.5867 41.447 12.8402 41.1091 13.1782C40.75 13.495 40.1375 13.9808 39.7362 14.2554C39.3348 14.53 38.849 14.889 38.6801 15.058C38.5111 15.2059 37.7929 15.7762 37.0959 16.3253C36.3989 16.8745 35.8075 17.4025 35.7652 17.487C35.723 17.5715 35.554 17.656 35.385 17.656C35.2161 17.656 35.0893 17.7405 35.0893 17.825C35.0893 17.9095 34.8359 18.1418 34.519 18.353C34.1811 18.5431 33.6108 18.9867 33.2306 19.3246L32.5125 19.9372L35.5963 19.9583C38.5322 20.0005 38.7223 19.9794 39.5883 19.4725C40.0741 19.1768 40.7711 18.691 41.1091 18.4164C41.4681 18.1207 41.9328 17.7405 42.1652 17.5715C43.179 16.8111 44.5097 15.755 44.8688 15.4382C45.0589 15.2692 46.0094 14.5511 46.9387 13.8329C48.5651 12.6501 48.6919 12.5867 49.1143 12.8824C49.3466 13.0725 50.0648 13.5583 50.6773 13.9597C51.2687 14.3821 51.7757 14.8045 51.7757 14.9313C51.7757 15.0369 51.8813 15.1214 51.9869 15.1214C52.1136 15.1214 52.4304 15.3115 52.6839 15.5649C53.1486 16.0085 55.1552 17.5715 55.7466 17.9728C56.1056 18.2052 56.338 18.3953 57.4786 19.3246C58.2178 19.9372 58.239 19.9372 61.4495 19.9583C63.2026 19.9794 64.66 19.9583 64.66 19.8949C64.66 19.6837 63.2871 18.5009 63.0336 18.5009C62.9069 18.5009 62.7591 18.4375 62.7168 18.3319C62.6957 18.2474 62.1888 17.8039 61.5973 17.3392C61.0271 16.8745 60.3089 16.2831 60.0132 16.0296C59.7175 15.755 59.4218 15.5438 59.3373 15.5438C59.2739 15.5438 59.0627 15.4171 58.9149 15.2692C58.767 15.1214 58.0277 14.53 57.2674 13.9597C56.507 13.3894 55.7888 12.8191 55.6621 12.6923C55.5354 12.5867 54.9862 12.1432 54.437 11.7419C52.5149 10.3267 52.0502 9.86201 52.4093 9.65079C52.5783 9.54518 52.9374 9.27059 53.1908 9.05938C53.4443 8.82703 53.909 8.46796 54.2258 8.23562C54.5426 8.0244 55.0284 7.62308 55.303 7.3485C55.5776 7.09504 55.8733 6.88382 55.9578 6.88382C56.0423 6.88382 56.2746 6.71484 56.4436 6.50362C56.6337 6.31352 56.9928 5.9967 57.2674 5.82772C57.5419 5.65874 57.9433 5.34192 58.1545 5.1307C58.3657 4.9406 58.5769 4.77162 58.6403 4.77162C58.7036 4.77162 59.0205 4.51816 59.3373 4.22245C59.6541 3.92675 60.1611 3.52543 60.499 3.33533C60.8158 3.14523 61.0693 2.91289 61.0693 2.82841C61.0693 2.74392 61.2172 2.65943 61.3861 2.65943C61.5551 2.65943 61.7874 2.46933 61.9142 2.23699C62.0409 2.00465 62.2733 1.81455 62.4422 1.81455C62.5901 1.81455 62.7591 1.73006 62.8013 1.64558C62.8435 1.53997 63.2871 1.15977 63.794 0.800699C64.301 0.420504 64.6389 0.124798 64.5333 0.124798C64.4277 0.103676 62.9069 0.103676 61.1327 0.103676C58.1756 0.0825539 57.901 0.124798 57.4997 0.526114C57.2462 0.779577 56.9928 0.969675 56.9083 0.969675C56.8027 0.969675 56.4436 1.26538 56.0634 1.60333C55.6832 1.96241 55.303 2.23699 55.1763 2.23699C55.0707 2.23699 54.9439 2.30036 54.9017 2.38484C54.8383 2.57494 53.8456 3.3987 52.9585 4.03236C52.6205 4.2647 52.1347 4.66601 51.839 4.89835C51.5644 5.15182 51.0153 5.57426 50.6139 5.84884C50.2126 6.12343 49.8747 6.41913 49.8747 6.50362C49.8747 6.60923 49.7691 6.6726 49.6212 6.6726C49.4945 6.6726 49.2199 6.82045 49.0087 7.01055C48.6707 7.30626 48.5018 7.22177 46.8965 5.93333C45.9249 5.17294 44.9321 4.37031 44.6998 4.13797C44.4463 3.90562 44.1506 3.71553 44.0028 3.71553C43.8549 3.71553 43.7493 3.63104 43.7493 3.52543C43.7493 3.41982 43.3902 3.10299 42.9678 2.84953C42.5242 2.57494 42.1441 2.27923 42.1018 2.19475C42.0596 2.11026 41.5315 1.68782 40.9401 1.24426C40.3276 0.821821 39.7784 0.378262 39.715 0.272652C39.6517 0.167042 38.0464 0.0825539 36.1665 0.0614319L32.7448 0.0191879L33.3362 0.526114Z" fill="#1F1E1E" style="fill:#1F1E1E;fill:color(display-p3 0.1216 0.1176 0.1176);fill-opacity:1;"/>
<path d="M70.1307 0.293016C69.3281 0.630966 68.2509 1.58145 68.2509 1.96165C68.2509 2.1095 68.1664 2.23623 68.0396 2.23623C67.934 2.23623 67.8495 2.2996 67.8707 2.38409C67.8707 2.4897 67.8073 2.74316 67.7017 2.9755C67.5961 3.20784 67.5116 6.33389 67.5116 9.94574C67.5116 15.9444 67.5538 16.5569 67.9129 17.3384C68.3565 18.2678 68.8845 18.817 69.9617 19.4506C70.6588 19.8519 71.0601 19.873 83.7332 19.873H96.8077V18.1199C96.8077 17.1483 96.7655 16.3246 96.7232 16.2612C96.681 16.219 91.485 16.1767 85.2118 16.1767L73.7848 16.1556L73.1934 15.6487C72.6653 15.184 72.602 14.9939 72.5175 13.3886L72.433 11.6355L83.7544 11.6989L95.0968 11.7411L95.0335 9.84013L94.9701 7.91803L83.7332 7.93916H72.4753V6.67184C72.4753 5.95369 72.6231 5.10882 72.7921 4.77087C73.4469 3.50355 73.3412 3.50355 85.4864 3.50355C91.5695 3.50355 96.6176 3.50355 96.7232 3.50355C96.8077 3.50355 96.8288 2.74316 96.7655 1.8138L96.6599 0.124041L83.7332 0.0817966C73.4257 0.0395527 70.6799 0.0817966 70.1307 0.293016Z" fill="#1F1E1E" style="fill:#1F1E1E;fill:color(display-p3 0.1216 0.1176 0.1176);fill-opacity:1;"/>
<path d="M102.299 0.229532C101.243 0.694216 100.335 1.66582 99.9125 2.78529C99.5746 3.67241 99.5323 4.51729 99.5323 10.0724C99.5323 13.9165 99.5957 16.4301 99.7224 16.4934C99.8492 16.5568 99.9337 16.8102 99.9337 17.0426C99.9337 17.2749 100.039 17.5706 100.145 17.7185C100.969 18.6901 101.391 19.0703 101.94 19.3238C102.299 19.4716 102.722 19.6828 102.912 19.7884C103.334 19.9785 128.005 20.063 128.512 19.8518C128.807 19.7462 128.871 19.4082 128.871 17.9508V16.1766L117.296 16.1343L105.742 16.071L105.235 15.5641C104.792 15.1205 104.707 14.7825 104.623 13.3885L104.517 11.741H115.86H127.181V10.178C127.181 9.31196 127.118 8.46709 127.054 8.27699C126.949 7.98128 125.745 7.93904 115.733 7.93904H104.559L104.602 6.41826C104.644 5.02421 104.707 4.81299 105.278 4.2427L105.911 3.60904H117.402H128.871V1.85592V0.123922H116.536C109.755 0.123922 103.947 0.0816784 103.609 0.0183144C103.271 -0.0450516 102.68 0.0605583 102.299 0.229532Z" fill="#1F1E1E" style="fill:#1F1E1E;fill:color(display-p3 0.1216 0.1176 0.1176);fill-opacity:1;"/>
<path d="M144.543 0.0822678L131.617 0.124512L131.659 10.0096L131.722 19.8735L144.501 19.9158L157.28 19.958L158.336 19.4511C159.371 18.9864 160.533 17.6768 160.701 16.8108C160.744 16.6419 160.765 13.5581 160.765 9.98845C160.786 2.84924 160.701 2.19446 159.624 1.24397C159.054 0.737047 157.935 0.0611458 157.597 0.0189018C157.533 0.0189018 151.661 0.0400238 144.543 0.0822678ZM154.111 3.75748C154.576 3.88422 155.02 3.98983 155.104 3.9687C155.189 3.94758 155.315 4.11656 155.379 4.3489C155.463 4.58124 155.611 4.77134 155.717 4.77134C155.949 4.77134 155.97 14.6986 155.738 15.0155C155.653 15.1422 155.315 15.459 154.977 15.7125C154.365 16.1772 154.344 16.1772 145.536 16.1772H136.686V9.98845C136.686 6.5667 136.749 3.71524 136.834 3.65187C137.087 3.37729 153.203 3.4829 154.111 3.75748Z" fill="#1F1E1E" style="fill:#1F1E1E;fill:color(display-p3 0.1216 0.1176 0.1176);fill-opacity:1;"/>
</svg>
