<svg width="18" height="24" viewBox="0 0 18 24" fill="none" xmlns="http://www.w3.org/2000/svg">
<path fill-rule="evenodd" clip-rule="evenodd" d="M6.95105 22.1175C6.95105 21.8159 6.95105 21.5144 6.95105 21.2129C7.73524 21.2129 8.51126 21.2129 9.28729 21.2129C10.0633 21.2129 10.8393 21.2129 11.6154 21.2129C11.6154 21.5144 11.6154 21.8159 11.6154 22.1175C10.8393 22.1175 10.0633 22.1175 9.28729 22.1175C8.51126 22.1175 7.73524 22.1175 6.95105 22.1175Z" fill="black" style="fill:black;fill-opacity:1;"/>
<path fill-rule="evenodd" clip-rule="evenodd" d="M9.28738 23.9997C9.7775 23.9997 10.2676 23.9997 10.7577 23.9997C10.7577 23.527 10.7577 23.0625 10.7577 22.5898C10.2676 22.5898 9.7775 22.5898 9.28738 22.5898C8.79726 22.5898 8.30714 22.5898 7.81702 22.5898C7.81702 23.0625 7.81702 23.527 7.81702 23.9997C8.30714 23.9997 8.79726 23.9997 9.28738 23.9997Z" fill="black" style="fill:black;fill-opacity:1;"/>
<path fill-rule="evenodd" clip-rule="evenodd" d="M7.81697 20.7402C7.8088 19.966 7.61275 19.1999 6.98376 18.6865C7.75162 18.6865 8.51947 18.6865 9.28733 18.6865C10.0552 18.6865 10.823 18.6865 11.5909 18.6865C10.9619 19.1999 10.7577 19.966 10.7577 20.7402C10.2676 20.7402 9.77745 20.7402 9.28733 20.7402C8.79721 20.7402 8.30709 20.7402 7.81697 20.7402Z" fill="black" style="fill:black;fill-opacity:1;"/>
<path fill-rule="evenodd" clip-rule="evenodd" d="M3.92053 17.1868C3.92053 16.9668 3.92053 16.7386 3.92053 16.5186C5.70947 16.5186 7.49841 16.5186 9.28734 16.5186C11.0763 16.5186 12.8652 16.5186 14.646 16.5186C14.646 16.7386 14.646 16.9668 14.646 17.1868C12.8652 17.1868 11.0763 17.1868 9.28734 17.1868C7.49841 17.1868 5.70947 17.1868 3.92053 17.1868Z" fill="black" style="fill:black;fill-opacity:1;"/>
<path fill-rule="evenodd" clip-rule="evenodd" d="M4.40257 19.6074C5.03156 19.4689 5.70139 19.1184 6.15066 18.6865C5.52984 18.6865 4.90903 18.6865 4.28821 18.6865C4.32905 18.9881 4.36173 19.2977 4.40257 19.6074Z" fill="black" style="fill:black;fill-opacity:1;"/>
<path fill-rule="evenodd" clip-rule="evenodd" d="M14.1722 19.6074C13.5432 19.4689 12.8652 19.1184 12.4159 18.6865C13.0449 18.6865 13.6657 18.6865 14.2865 18.6865C14.2457 18.9881 14.2048 19.2977 14.1722 19.6074Z" fill="black" style="fill:black;fill-opacity:1;"/>
<path fill-rule="evenodd" clip-rule="evenodd" d="M3.74085 15.0438C3.15271 11.5722 2.01726 7.95385 0.767456 5.57422C2.11529 6.29952 3.55297 7.45673 5.09685 9.02957C4.45152 8.85843 3.81437 8.72804 3.17721 8.63025C4.0676 10.7328 4.80278 12.8761 5.47261 15.0438C4.89263 15.0438 4.32082 15.0438 3.74085 15.0438Z" fill="black" style="fill:black;fill-opacity:1;"/>
<path fill-rule="evenodd" clip-rule="evenodd" d="M14.8338 15.0438C15.4138 11.5722 16.5492 7.95385 17.799 5.57422C16.4594 6.29952 15.0217 7.45673 13.4778 9.02957C14.115 8.85843 14.7603 8.72804 15.3974 8.63025C14.5071 10.7328 13.7719 12.8761 13.1021 15.0438C13.6739 15.0438 14.2538 15.0438 14.8338 15.0438Z" fill="black" style="fill:black;fill-opacity:1;"/>
<path fill-rule="evenodd" clip-rule="evenodd" d="M3.35693 16.1686C3.35693 15.9404 3.35693 15.7122 3.35693 15.4922C5.33375 15.4922 7.31057 15.4922 9.28738 15.4922C11.2642 15.4922 13.241 15.4922 15.2178 15.4922C15.2178 15.7122 15.2178 15.9404 15.2178 16.1686C13.241 16.1686 11.2642 16.1686 9.28738 16.1686C7.31057 16.1686 5.33375 16.1686 3.35693 16.1686Z" fill="black" style="fill:black;fill-opacity:1;"/>
<path fill-rule="evenodd" clip-rule="evenodd" d="M7.28608 5.20747C8.20097 3.63463 8.98517 1.84992 9.28741 0C9.58148 1.84992 10.3657 3.63463 11.2887 5.20747C10.962 5.06078 10.6107 4.90594 10.2268 4.74295C9.90006 4.58812 9.76119 4.67776 9.76936 5.02003C9.88372 8.36129 10.3738 12.1589 12.1219 15.0438C11.4358 15.0438 10.7496 15.0438 10.0634 15.0438C9.73668 14.2778 9.48345 13.5199 9.28741 12.7701C9.09136 13.5199 8.82996 14.2778 8.51138 15.0438C7.82522 15.0438 7.13905 15.0438 6.45288 15.0438C8.20097 12.1589 8.69109 8.36129 8.80546 5.02003C8.81362 4.67776 8.67476 4.58812 8.33984 4.74295C7.95591 4.90594 7.61283 5.06078 7.28608 5.20747Z" fill="black" style="fill:black;fill-opacity:1;"/>
<path fill-rule="evenodd" clip-rule="evenodd" d="M3.35693 18.2135C3.35693 17.9853 3.35693 17.7653 3.35693 17.5371C5.33375 17.5371 7.31057 17.5371 9.28738 17.5371C11.2642 17.5371 13.241 17.5371 15.2178 17.5371C15.2178 17.7653 15.2178 17.9853 15.2178 18.2135C13.241 18.2135 11.2642 18.2135 9.28738 18.2135C7.31057 18.2135 5.33375 18.2135 3.35693 18.2135Z" fill="black" style="fill:black;fill-opacity:1;"/>
</svg>
