<svg width="33" height="15" viewBox="0 0 33 15" fill="none" xmlns="http://www.w3.org/2000/svg">
<g clip-path="url(#clip0_49_25911)">
<path d="M16.799 0.00195312C15.6204 0.00215339 14.4609 0.299254 13.4274 0.865834C12.394 1.43241 11.5199 2.25021 10.8859 3.24373H0.799072L1.80324 4.24789H10.3619C10.1995 4.62581 10.0706 5.01728 9.97673 5.41778H2.97312L3.96504 6.4097H9.81436C9.79516 6.61189 9.78475 6.81483 9.78316 7.01793C9.78501 7.20549 9.79437 7.39289 9.81124 7.5797H5.13504L6.12695 8.57161H9.96379C10.0527 8.97163 10.1766 9.36309 10.3338 9.7415H7.29684L8.30101 10.7457H10.8653C11.4957 11.7507 12.3706 12.5795 13.4083 13.1546C14.446 13.7296 15.6126 14.0321 16.799 14.0338C17.9854 14.0321 19.152 13.7296 20.1898 13.1546C21.2275 12.5795 22.1024 11.7507 22.7328 10.7457H25.2971L26.3013 9.7415H23.2643C23.4216 9.36309 23.5454 8.97163 23.6344 8.57161H27.4712L28.4631 7.5797H23.7869C23.8038 7.39289 23.8131 7.20549 23.815 7.01793C23.8134 6.81483 23.8031 6.61189 23.7839 6.4097H29.6331L30.625 5.41778H23.6214C23.5276 5.01728 23.3987 4.62581 23.2362 4.24789H31.7949L32.7991 3.24373H22.7122C22.0782 2.25019 21.2041 1.43238 20.1707 0.865804C19.1372 0.299224 17.9776 0.00213361 16.799 0.00195312ZM16.799 0.952958C17.5955 0.952958 18.3841 1.10983 19.12 1.41463C19.8558 1.71942 20.5244 2.16616 21.0876 2.72935C21.6508 3.29253 22.0975 3.96113 22.4023 4.69696C22.7071 5.4328 22.864 6.22147 22.864 7.01793C22.864 7.81439 22.7071 8.60306 22.4023 9.33889C22.0975 10.0747 21.6508 10.7433 21.0876 11.3065C20.5244 11.8697 19.8558 12.3164 19.12 12.6212C18.3841 12.926 17.5955 13.0829 16.799 13.0829C15.1905 13.0829 13.6478 12.4439 12.5104 11.3065C11.373 10.1691 10.734 8.62646 10.734 7.01793C10.734 5.4094 11.373 3.86675 12.5104 2.72935C13.6478 1.59194 15.1905 0.952958 16.799 0.952958ZM11.9743 5.44598V8.58976H12.6299V6.11512L13.3215 8.58976H14.001L14.6949 6.11512V8.58976H15.3506V5.44598H14.2919L13.6648 7.59045L13.0306 5.44598H11.9743ZM16.0349 5.44598V8.58976H16.7407V5.44598H16.0349ZM17.4178 5.44598V8.58976H18.0735V6.53971L19.4827 8.58976H20.1909V5.44598H19.5352V7.54538L18.1046 5.44598H17.4178ZM20.9181 5.44598V8.58976H21.6238V5.44598H20.9181Z" fill="#120A08" style="fill:#120A08;fill:color(display-p3 0.0706 0.0392 0.0314);fill-opacity:1;"/>
</g>
<defs>
<clipPath id="clip0_49_25911">
<rect width="32" height="14.0367" fill="white" style="fill:white;fill-opacity:1;" transform="translate(0.799072)"/>
</clipPath>
</defs>
</svg>
