<svg width="103" height="24" viewBox="0 0 103 24" fill="none" xmlns="http://www.w3.org/2000/svg">
<g clip-path="url(#clip0_49_25914)">
<path d="M59.9467 21.2594C59.9467 21.4531 60.0078 21.5655 60.1202 21.5655C60.215 21.5655 60.2937 21.5146 60.3651 21.4633L92.1578 0.829331C92.695 0.45385 93.3385 0.260742 93.9936 0.27843H100.98C102.051 0.27843 102.776 0.992283 102.776 2.06337V15.4046C102.776 17.0161 102.419 17.9546 100.991 18.8112L92.5147 23.9112C92.4301 23.97 92.3301 24.0133 92.2292 24.0133C92.1283 24.0133 92.0253 23.9317 92.0253 23.6359V8.0712C92.0253 7.88746 91.9743 7.76517 91.8518 7.76517C91.7623 7.76517 91.6774 7.81095 91.6069 7.86728L68.3717 22.963C67.8412 23.32 67.219 23.5139 66.5867 23.5037H51.1849C50.1036 23.5037 49.3898 22.7899 49.3898 21.7085V2.48204C49.3898 2.33927 49.3286 2.20674 49.206 2.20674C49.1169 2.20674 49.0322 2.25343 48.9611 2.30885L33.6313 11.5085C33.4783 11.6106 33.4377 11.682 33.4377 11.7534C33.4377 11.8146 33.4684 11.8757 33.5702 11.9881L44.5247 22.9323C44.6675 23.0751 44.7696 23.1874 44.7696 23.3097C44.7696 23.4118 44.6063 23.4935 44.4127 23.4935H34.5187C33.7434 23.4935 33.1416 23.3811 32.7235 22.963L26.0835 16.3332C26.0326 16.2724 25.9594 16.2311 25.8795 16.2311C25.8076 16.2311 25.7374 16.2555 25.6756 16.2923L14.5784 22.963C13.9052 23.3712 13.4461 23.4832 12.7832 23.4832H2.57324C1.48198 23.4935 0.767822 22.7694 0.767822 21.6983V8.61186C0.767822 6.99017 1.12475 6.06186 2.563 5.20524L11.0901 0.0850572C11.1564 0.0399721 11.2344 0.0151669 11.3145 0.0136719C11.447 0.0136719 11.5184 0.146201 11.5184 0.441984V17.9652C11.5184 18.1489 11.5591 18.2302 11.6919 18.2302C11.7823 18.2302 11.8654 18.1793 11.947 18.1281L40.7512 0.798612C41.3021 0.421202 41.9753 0.237768 42.6485 0.26819H58.1521C59.2232 0.26819 59.9473 0.982043 59.9473 2.05313L59.937 21.2594H59.9467Z" fill="black" style="fill:black;fill-opacity:1;"/>
</g>
<defs>
<clipPath id="clip0_49_25914">
<rect width="102.008" height="24" fill="white" style="fill:white;fill-opacity:1;" transform="translate(0.799072)"/>
</clipPath>
</defs>
</svg>
