<svg width="139" height="14" viewBox="0 0 139 14" fill="none" xmlns="http://www.w3.org/2000/svg">
<path d="M12.5018 1.90733C9.81769 4.50122 1.63001 12.6889 1.06612 13.3205C0.818011 13.6137 0.727788 13.7716 0.885677 13.7039C1.02101 13.6137 1.20146 13.6137 1.26912 13.7265C1.35934 13.8843 2.87057 13.9295 3.2089 13.7716C3.27657 13.749 3.50213 13.7265 3.72768 13.749C3.93068 13.7716 4.11113 13.6813 4.11113 13.5235C4.11113 13.3656 4.17879 13.2979 4.24646 13.3881C4.40435 13.546 4.13368 13.7716 9.72747 8.33567C12.2537 5.87711 14.5544 3.82455 14.8025 3.802C15.1634 3.73433 16.4716 4.90722 20.1933 8.58378C22.8774 11.2453 25.2006 13.4107 25.3134 13.3656C25.4487 13.343 25.5389 13.4332 25.5389 13.5686C25.5389 13.7039 25.7419 13.749 25.99 13.6588C26.2382 13.5911 26.4412 13.5911 26.4412 13.7039C26.4412 13.9295 28.0201 13.952 28.3809 13.7265C28.6065 13.5686 15.7047 0.463768 15.3438 0.463768C15.231 0.463768 15.1634 0.35099 15.1634 0.238213C15.1634 -0.370789 14.3063 0.193101 12.5018 1.90733Z" fill="black" style="fill:black;fill-opacity:1;"/>
<path d="M28.6065 0.192326C28.5163 0.32766 40.7189 12.7558 41.8692 13.7257C42.1173 13.9287 42.9068 13.9287 42.9068 13.7257C42.9068 13.5903 42.9519 13.5227 43.0195 13.5678C43.2451 13.7933 56.4401 0.756215 56.4401 0.305103C56.4401 -0.123452 54.6808 -0.0783415 53.6207 0.37277C53.147 0.553215 52.2899 1.20733 51.7034 1.77122C45.1398 8.28978 42.9068 10.3875 42.6135 10.3875C42.4105 10.3875 40.1099 8.24467 37.4709 5.62822C32.3959 0.57577 31.629 0.0118809 29.7117 0.0118809C29.1704 0.0118809 28.6742 0.102103 28.6065 0.192326Z" fill="black" style="fill:black;fill-opacity:1;"/>
<path d="M69.7705 0.350684C68.9134 0.824352 56.4627 13.3653 56.5755 13.6359C56.6882 13.9291 58.6957 13.9968 58.6957 13.7036C58.6957 13.5908 58.8987 13.5908 59.1468 13.6585C59.44 13.7487 59.5979 13.7036 59.5979 13.5231C59.5979 13.3653 59.6656 13.2976 59.7333 13.3878C59.9137 13.5683 60.5227 13.0044 65.3496 8.17747C70.6502 2.87691 70.402 2.96713 72.8606 5.51591C73.7628 6.41814 74.4846 7.2978 74.4846 7.43314C74.4846 7.56847 74.5748 7.65869 74.6876 7.61358C74.9808 7.54592 78.5446 11.1323 78.3867 11.3578C78.3191 11.4931 78.3642 11.5157 78.4769 11.448C78.6123 11.3578 79.1085 11.7413 79.5822 12.3051C80.0784 12.869 80.6423 13.3201 80.8678 13.3201C81.0708 13.3201 81.2513 13.4329 81.2513 13.5683C81.2513 13.7036 81.4092 13.7713 81.5896 13.681C81.7701 13.6134 81.928 13.6359 81.928 13.7261C81.928 13.8164 82.4918 13.9066 83.1685 13.884C84.3414 13.884 84.364 13.8615 84.0707 13.4329C83.3941 12.4179 71.3268 0.463463 71.011 0.463463C70.808 0.463463 70.6502 0.350684 70.6502 0.237906C70.6502 -0.055316 70.4472 -0.0102053 69.7705 0.350684Z" fill="black" style="fill:black;fill-opacity:1;"/>
<path d="M82.1535 0.328577C82.1535 0.757133 84.567 2.78714 84.8827 2.58414C85.0181 2.51647 85.1985 2.56158 85.2887 2.69691C85.4015 2.87736 88.5818 2.92247 97.0627 2.89991L108.656 2.83225L107.641 1.79469C105.859 -0.0548682 106.356 0.0127985 93.5215 0.0127985C84.0031 0.0127985 82.1535 0.05791 82.1535 0.328577Z" fill="black" style="fill:black;fill-opacity:1;"/>
<path d="M114.137 0.124881C113.979 0.282769 115.581 1.92933 116.235 2.29022C116.528 2.44811 116.912 2.56088 117.07 2.53833C117.205 2.49322 117.34 2.58344 117.34 2.71877C117.34 2.87666 120.047 2.94433 126.092 2.94433C130.896 2.92177 135.024 2.98944 135.227 3.07966C135.43 3.14733 135.543 3.30522 135.475 3.418C135.407 3.53077 135.475 3.621 135.588 3.621C135.723 3.621 135.836 3.824 135.836 4.07211C135.836 4.32022 135.746 4.52322 135.61 4.52322C135.497 4.52322 135.407 4.65855 135.452 4.79389C135.475 5.01944 133.264 5.10967 125.077 5.15478C118.378 5.17733 114.634 5.29011 114.634 5.42544C114.634 5.56078 114.521 5.62844 114.385 5.58333C114.228 5.56078 114.16 6.84645 114.182 9.59823C114.182 11.8087 114.228 13.6808 114.273 13.7033C114.318 13.7485 114.791 13.8161 115.333 13.8387L116.325 13.8838L116.393 10.9516L116.461 8.01934L122.663 8.087L128.889 8.15467L131.347 10.5681C132.723 11.8989 133.986 13.0041 134.144 13.0492C134.325 13.0943 134.482 13.2297 134.482 13.3425C134.482 13.4778 134.573 13.5229 134.685 13.4552C134.798 13.365 134.934 13.4101 134.979 13.5229C135.069 13.8387 137.212 13.974 137.708 13.7259C138.069 13.5455 137.776 13.162 135.52 10.9516C134.076 9.53056 132.904 8.31256 132.904 8.24489C132.904 8.17723 133.355 8.13211 133.896 8.13211C135.61 8.13211 137.37 7.11711 137.753 5.87656C137.821 5.62844 137.979 5.42544 138.091 5.42544C138.182 5.42544 138.227 5.22244 138.159 4.95178C138.069 4.68111 138.159 4.38789 138.339 4.25255C138.588 4.09466 138.588 4.00444 138.385 3.91422C138.227 3.86911 138.091 3.53077 138.091 3.16988C138.091 2.83155 137.933 2.42555 137.753 2.26766C137.573 2.10977 137.46 1.90677 137.527 1.81655C137.708 1.52333 136.828 0.914326 135.588 0.463214C134.46 0.0346584 133.738 0.0121021 124.31 0.0121021C118.784 0.0121021 114.205 0.0572138 114.137 0.124881Z" fill="black" style="fill:black;fill-opacity:1;"/>
<path d="M94.2208 5.69672C94.1531 5.98994 94.1306 7.92972 94.1531 10.0274L94.2208 13.8618L95.1907 13.8844C95.9124 13.907 96.2282 13.8167 96.3861 13.5235C96.6117 13.095 96.6568 6.53128 96.4538 5.69672C96.341 5.29072 96.1606 5.2005 95.326 5.2005C94.4914 5.2005 94.3336 5.26816 94.2208 5.69672Z" fill="black" style="fill:black;fill-opacity:1;"/>
</svg>
