<svg width="33" height="17" viewBox="0 0 33 17" fill="none" xmlns="http://www.w3.org/2000/svg">
<path fill-rule="evenodd" clip-rule="evenodd" d="M19.8815 10.0377C20.1252 11.2969 19.4652 12.3427 18.9169 13.3579C18.3078 14.3024 17.3026 15.1141 16.0943 14.9927C13.3829 14.9521 10.733 14.5358 8.27545 13.7943C8.16387 13.7639 8.05229 13.6926 7.99121 13.5912C7.94037 13.449 8.01168 13.3169 8.11303 13.2258C10.3573 11.4081 13.0277 10.5656 15.6677 9.68184C16.6525 9.3976 17.6987 9.09288 18.8053 9.23517C19.2619 9.29625 19.7188 9.6112 19.8815 10.0377ZM29.1318 4.65628C30.3909 5.6919 31.5282 7.10354 31.1423 8.80932C30.5127 11.3276 27.7713 12.6679 25.5882 13.5206C24.4 13.9168 23.202 14.3232 21.9023 14.445C21.8211 14.4348 21.689 14.4549 21.6685 14.3331L21.6989 14.1911C23.547 12.1093 24.948 9.77431 26.1771 7.40826C26.7456 6.34193 27.2738 5.24557 27.7611 4.16901C27.8321 4.0878 27.9034 4.04719 27.9846 4.01682C28.4412 4.05709 28.7663 4.41264 29.1318 4.65628ZM11.4127 1.97562L11.3721 2.1278C8.70164 5.16368 6.94502 8.68717 5.27984 12.1902C4.95499 12.4949 4.64004 12.0885 4.34557 11.9564C2.86294 10.9819 1.52261 9.40783 1.90854 7.53963C2.52786 5.10294 5.03586 3.80322 7.12791 2.92013C8.36656 2.45299 9.65639 2.0773 11.0169 1.86404C11.1591 1.86369 11.3417 1.84356 11.4127 1.97562ZM24.6641 2.46289C24.8163 2.5441 24.9992 2.57447 25.0907 2.72665C25.1719 2.89931 25.0095 3.01089 24.918 3.12281C22.8161 4.76752 20.4097 5.68166 17.9522 6.48388C16.703 6.78859 15.4439 7.33694 14.0531 7.03223C13.7279 6.95101 13.4337 6.73775 13.2509 6.4228C12.9055 5.46839 13.3727 4.47338 13.7787 3.64079C14.3168 2.59494 15.2716 1.36619 16.5914 1.34606C19.4345 1.32558 22.1152 1.75211 24.6641 2.46289ZM28.1774 2.5441C30.3302 3.722 32.7672 5.79324 32.5133 8.55511C32.2189 11.114 29.8327 12.901 27.7004 13.9775C21.4757 16.9527 12.7332 17.0438 6.30556 14.4447C4.1323 13.5411 1.69527 11.9875 0.781131 9.65181C0.0805963 7.73276 0.933317 5.7325 2.36544 4.40241C5.36071 1.68114 9.17867 0.747208 13.1086 0.208755C17.3735 -0.309224 21.8613 0.147676 25.6793 1.45764C26.5323 1.77259 27.3752 2.11791 28.1774 2.5441Z" fill="#003984" style="fill:#003984;fill:color(display-p3 0.0000 0.2235 0.5176);fill-opacity:1;"/>
</svg>
