<svg width="39" height="20" viewBox="0 0 39 20" fill="none" xmlns="http://www.w3.org/2000/svg">
<path d="M27.9043 14.2091L19.7273 3.21716L11.5504 14.2091C8.78899 13.941 4.04368 12.1448 4.04368 8.95442C4.04368 4.93298 11.0142 1.17962 19.7541 1.17962C28.9498 1.17962 35.4646 4.93298 35.4646 8.95442C35.4646 12.1716 30.6925 13.9678 27.9579 14.1823M19.7273 0C8.41366 0 0.531616 4.42359 0.531616 10.134C0.531616 12.815 2.24743 15.8177 5.89355 17.6408C9.29837 19.3298 14.0705 19.9196 14.7407 20L19.7273 5.44236L24.7139 20C27.764 19.6583 30.7459 18.8631 33.5611 17.6408C37.2072 15.8177 38.923 12.815 38.923 10.134C38.8962 4.39678 31.041 0 19.7273 0Z" fill="#231F20" style="fill:#231F20;fill:color(display-p3 0.1373 0.1216 0.1255);fill-opacity:1;"/>
</svg>
