<svg width="37" height="32" viewBox="0 0 37 32" fill="none" xmlns="http://www.w3.org/2000/svg">
<path fill-rule="evenodd" clip-rule="evenodd" d="M35.3926 30.3132C32.2896 27.6526 23.0708 20.0821 18.6945 20.0821C14.3163 20.0821 5.10453 27.6475 1.99964 30.3099C1.98099 29.681 1.96363 29.299 1.96363 28.7388C1.96363 28.7388 1.88775 27.8141 2.70577 26.8886C9.43645 20.7901 16.4932 17.8061 16.7099 17.7148C18.8141 16.8254 18.6958 16.9926 18.6939 13.4234C18.6939 13.4234 18.7878 13.4176 18.8476 13.4241C21.811 13.6922 29.7783 21.4249 34.4935 26.6526C34.5019 26.6616 35.4241 27.7292 35.4241 28.8546C35.4254 29.3819 35.41 29.9022 35.3926 30.3132ZM35.2659 25.9491C34.7649 25.3934 22.966 12.3694 18.6945 12.3694C14.4243 12.3694 2.62474 25.3934 2.12441 25.9484L2.12376 25.9491C2.07489 26.0037 0.923096 27.3202 0.923096 28.8552C0.923096 30.0501 1.0022 31.2527 1.00348 31.2643C1.00606 31.3196 1.03371 31.8277 1.31603 31.9659C1.36169 31.9884 1.41121 32 1.46201 32C1.56684 32 1.68388 31.9531 1.81057 31.8604C1.93791 31.7479 13.9581 21.131 18.6945 21.131C23.4316 21.131 35.4524 31.7479 35.5727 31.8553C35.7039 31.9518 35.8222 32 35.9283 32C35.9797 32 36.028 31.9884 36.0743 31.9666C36.356 31.8289 36.3836 31.3202 36.3862 31.263C36.3868 31.254 36.4659 30.0514 36.4659 28.8565C36.4659 27.3202 35.3141 26.0037 35.2659 25.9491ZM35.3759 17.9258C32.2761 15.2685 23.0663 7.70562 18.6952 7.70562C14.3214 7.70562 5.11868 15.264 2.01701 17.9232C1.99836 17.2955 1.981 16.9129 1.981 16.354C1.981 16.354 1.90511 15.4299 2.72249 14.5058C9.44674 8.41303 16.4964 5.43226 16.7125 5.34094C18.8148 4.45218 18.6964 4.61939 18.6945 1.05404C18.6945 1.05404 18.7878 1.04825 18.8482 1.05468C21.8084 1.32286 29.768 9.04777 34.4781 14.2697C34.4865 14.2787 35.408 15.345 35.408 16.4698C35.4087 16.9958 35.3926 17.5155 35.3759 17.9258ZM35.2492 13.5662C34.7482 13.0112 22.9615 0 18.6945 0C14.4288 0 2.64082 13.0112 2.14113 13.5655L2.14048 13.5662C2.09161 13.6209 0.94046 14.936 0.94046 16.4698C0.94046 17.6634 1.0202 18.8647 1.02085 18.8763C1.02342 18.9316 1.05107 19.439 1.33275 19.5772C1.37841 19.5998 1.42793 19.6107 1.47873 19.6107C1.58356 19.6107 1.69996 19.5637 1.82665 19.4711C1.95463 19.3586 13.9626 8.75259 18.6945 8.75259C23.4271 8.75259 35.4357 19.3586 35.5559 19.466C35.6865 19.5625 35.8048 19.61 35.9109 19.61C35.9624 19.61 36.0106 19.5991 36.0569 19.5766C36.3379 19.439 36.3662 18.9309 36.3682 18.8737C36.3688 18.8647 36.4479 17.6634 36.4479 16.4698C36.4486 14.936 35.2981 13.6209 35.2492 13.5662Z" fill="#6E6E6E" style="fill:#6E6E6E;fill:color(display-p3 0.4314 0.4314 0.4314);fill-opacity:1;"/>
</svg>
