<svg width="33" height="28" viewBox="0 0 33 28" fill="none" xmlns="http://www.w3.org/2000/svg">
<g clip-path="url(#clip0_49_25927)">
<path d="M19.6137 15.0696C19.5883 15.0759 19.4867 15.0759 19.4423 15.0759H16.1661V15.8378H19.4994C19.5248 15.8378 19.7217 15.8378 19.7598 15.8315C20.4391 15.768 20.7502 15.2029 20.7502 14.7077C20.7502 14.1997 20.4264 13.6537 19.8106 13.5965C19.6899 13.5838 19.5883 13.5839 19.5439 13.5839H17.3661C17.2709 13.5839 17.1629 13.5775 17.1248 13.5648C16.9534 13.5204 16.8899 13.368 16.8899 13.241C16.8899 13.1267 16.9534 12.9743 17.1312 12.9235C17.182 12.9108 17.2391 12.9045 17.3598 12.9045H20.5026V12.1553H17.309C17.1756 12.1553 17.074 12.1616 16.9915 12.1743C16.4455 12.2505 16.0645 12.6886 16.0645 13.2473C16.0645 13.7045 16.3502 14.2378 16.9788 14.3267C17.0931 14.3394 17.2518 14.3394 17.3217 14.3394H19.4423C19.4804 14.3394 19.5756 14.3394 19.5947 14.3458C19.836 14.3775 19.9185 14.5553 19.9185 14.714C19.9185 14.8664 19.8233 15.0315 19.6137 15.0696Z" fill="black" style="fill:black;fill-opacity:1;"/>
<path d="M13.404 15.0696C13.3786 15.0759 13.277 15.0759 13.2389 15.0759H9.95632V15.8378H13.2897C13.3151 15.8378 13.5119 15.8378 13.55 15.8315C14.2294 15.768 14.5405 15.2029 14.5405 14.7077C14.5405 14.1997 14.2167 13.6537 13.6008 13.5965C13.4801 13.5838 13.3786 13.5839 13.3341 13.5839H11.1563C11.0611 13.5839 10.9532 13.5775 10.9151 13.5648C10.7436 13.5204 10.6801 13.368 10.6801 13.241C10.6801 13.1267 10.7436 12.9743 10.9214 12.9235C10.9722 12.9108 11.0293 12.9045 11.15 12.9045H14.2928V12.1553H11.0992C10.9659 12.1553 10.8643 12.1616 10.7817 12.1743C10.2357 12.2505 9.85474 12.6886 9.85474 13.2473C9.85474 13.7045 10.1405 14.2378 10.769 14.3267C10.8833 14.3394 11.042 14.3394 11.1119 14.3394H13.2325C13.2706 14.3394 13.3659 14.3394 13.3849 14.3458C13.6262 14.3775 13.7087 14.5553 13.7087 14.714C13.7087 14.8664 13.6198 15.0315 13.404 15.0696Z" fill="black" style="fill:black;fill-opacity:1;"/>
<path d="M8.24862 12.1299H7.42322V15.8569H8.24862V12.1299Z" fill="black" style="fill:black;fill-opacity:1;"/>
<path d="M5.601 15.8569V12.1299H4.7756V14.9108L2.02639 12.1299H0.966064V15.8569H1.79146V13.0632L4.55973 15.8569H5.601Z" fill="black" style="fill:black;fill-opacity:1;"/>
<path d="M32.1467 12.1299V14.9108L29.3975 12.1299H28.3372V15.8569H29.1626V13.0632L31.9245 15.8569H32.9657V12.1299H32.1467Z" fill="black" style="fill:black;fill-opacity:1;"/>
<path d="M24.0389 12.1299L21.7151 15.8569H22.7183L23.131 15.1902H25.8421L26.2548 15.8569H27.2516L24.9278 12.1299H24.0389ZM25.4167 14.4854H23.5564L24.4897 12.987L25.4167 14.4854Z" fill="black" style="fill:black;fill-opacity:1;"/>
<path d="M5.55657 10.0155C7.22007 5.15835 11.8042 1.89485 16.9725 1.89485C22.1408 1.89485 26.7313 5.15835 28.3884 10.0155L28.4011 10.0536H32.0392V9.61551L30.5281 9.43773C29.5948 9.3298 29.3979 8.9171 29.144 8.39646L29.0805 8.26948C26.8963 3.62184 22.1408 0.612305 16.9725 0.612305C11.7979 0.612305 7.04864 3.62184 4.8645 8.28217L4.80101 8.40916C4.54704 8.9298 4.35022 9.3425 3.41688 9.45043L1.90576 9.62821V10.0663H5.53752L5.55657 10.0155Z" fill="black" style="fill:black;fill-opacity:1;"/>
<path d="M28.4013 17.939L28.3886 17.9771C26.7251 22.8342 22.141 26.0914 16.9727 26.0914C11.8045 26.0914 7.21396 22.8279 5.55681 17.9707L5.54411 17.9326H1.91235V18.3707L3.42347 18.5485C4.35681 18.6564 4.55363 19.0691 4.8076 19.5898L4.87109 19.7168C7.05523 24.3771 11.8108 27.3866 16.9791 27.3866C22.1473 27.3866 26.9029 24.3771 29.0871 19.7231L29.1505 19.5961C29.4045 19.0755 29.6013 18.6628 30.5347 18.5548L32.0458 18.3771V17.939H28.4013Z" fill="black" style="fill:black;fill-opacity:1;"/>
</g>
<defs>
<clipPath id="clip0_49_25927">
<rect width="32" height="26.7747" fill="white" style="fill:white;fill-opacity:1;" transform="translate(0.96582 0.612305)"/>
</clipPath>
</defs>
</svg>
