<svg width="33" height="32" viewBox="0 0 33 32" fill="none" xmlns="http://www.w3.org/2000/svg">
<g clip-path="url(#clip0_49_25939)">
<path d="M16.4849 30.4337C8.55707 30.4337 2.06197 23.9068 2.06197 15.9789C2.06197 14.196 2.38036 12.5085 2.98529 10.9166L11.4226 27.8866C11.5181 28.1095 11.6773 28.3005 11.932 28.3005C12.1867 28.3005 12.3459 28.1095 12.4414 27.8866L16.3257 19.1946C16.3576 19.0991 16.4212 19.0036 16.5167 19.0036C16.6123 19.0036 16.6441 19.0991 16.7078 19.1946L20.5921 27.8866C20.6876 28.1095 20.8468 28.3005 21.1015 28.3005C21.3562 28.3005 21.5154 28.1095 21.6109 27.8866L30.0482 10.9166C30.6531 12.5085 30.9715 14.196 30.9715 15.9789C30.9078 23.9068 24.4127 30.4337 16.4849 30.4337ZM16.4849 12.6995C16.3894 12.6995 16.3576 12.604 16.2939 12.5085L11.7728 2.32012C13.2374 1.77886 14.8293 1.49231 16.4849 1.49231C18.1405 1.49231 19.7325 1.77886 21.197 2.32012L16.6759 12.5085C16.6123 12.6359 16.5804 12.6995 16.4849 12.6995ZM11.8683 23.1745C11.7728 23.1745 11.7409 23.079 11.6773 22.9834L4.35436 8.21028C5.65975 6.20444 7.41088 4.51699 9.54407 3.33896L14.8293 15.0874C14.893 15.2785 15.0522 15.3422 15.2114 15.3422H17.7585C17.9495 15.3422 18.0768 15.3103 18.1724 15.0874L23.4576 3.33896C25.5589 4.51699 27.3419 6.20444 28.6473 8.21028L21.2607 22.9834C21.2289 23.079 21.1652 23.1745 21.0697 23.1745C20.9742 23.1745 20.9423 23.079 20.8787 22.9834L18.1087 16.6794C18.0132 16.4565 17.8858 16.4247 17.6948 16.4247H15.1477C14.9567 16.4247 14.8293 16.4565 14.7338 16.6794L12.0593 22.9834C12.0275 23.079 11.9638 23.1745 11.8683 23.1745ZM16.4849 31.8983C25.3042 31.8983 32.4043 24.7983 32.4043 15.9789C32.4043 7.1596 25.3042 0.0595703 16.4849 0.0595703C7.66558 0.0595703 0.565552 7.1596 0.565552 15.9789C0.565552 24.7983 7.66558 31.8983 16.4849 31.8983Z" fill="black" style="fill:black;fill-opacity:1;"/>
</g>
<defs>
<clipPath id="clip0_49_25939">
<rect width="32" height="32" fill="white" style="fill:white;fill-opacity:1;" transform="translate(0.465942)"/>
</clipPath>
</defs>
</svg>
