<svg width="33" height="33" viewBox="0 0 33 33" fill="none" xmlns="http://www.w3.org/2000/svg">
<g clip-path="url(#clip0_49_13962)">
<path d="M16.2823 0.0566406C16.2823 0.0566406 16.269 0.244641 16.2116 0.359307C16.169 0.459307 16.0543 0.529974 16.069 0.601974C16.0823 0.673974 16.1543 0.760641 16.269 0.817974C16.3836 0.875307 16.425 0.916641 16.5396 0.945974C16.6396 0.973974 16.785 1.04731 16.813 0.960641C16.857 0.875307 16.7996 0.759307 16.7276 0.659307C16.613 0.472641 16.5543 0.429974 16.397 0.172641C16.3676 0.115307 16.3396 0.0566406 16.2823 0.0566406ZM17.1863 0.0566406C17.157 0.0713073 17.1143 0.288641 17.0423 0.473974C16.957 0.688641 17.013 0.788641 17.0556 0.873974C17.113 0.960641 17.1863 1.01797 17.0423 1.10464C16.8996 1.18997 16.7116 1.16197 16.7116 1.16197C16.7116 1.16197 16.5543 1.13131 16.425 1.06064C16.292 1.00195 16.1587 0.94417 16.025 0.887307C16.025 0.887307 15.7663 0.816641 15.5943 0.831307C15.4223 0.844641 15.4076 0.860641 15.2796 0.875307C15.2076 0.875307 15.1796 0.873974 15.1076 0.888641C15.0503 0.901974 14.9796 0.861974 14.9796 0.932641C14.9796 1.00331 15.1223 1.00464 15.2223 1.04731C15.3223 1.08997 15.5516 1.08864 15.509 1.14597C15.4516 1.20331 15.237 1.21797 15.2223 1.20331C15.209 1.20331 15.0663 1.17531 14.9516 1.17531C14.765 1.18864 14.7516 1.18864 14.481 1.31797C14.437 1.33131 14.4516 1.43264 14.537 1.40331C14.6675 1.36604 14.8025 1.34675 14.9383 1.34597C15.1116 1.34597 15.209 1.40464 15.381 1.44864C15.525 1.49131 15.5383 1.51797 15.7543 1.54731C15.797 1.54731 15.881 1.51797 15.881 1.57531C15.881 1.60464 15.8236 1.64864 15.8236 1.64864C15.8236 1.64864 15.6956 1.67531 15.709 1.71931C15.7383 1.77664 15.853 1.71931 15.909 1.71931C15.9676 1.71931 16.0556 1.73531 16.0396 1.79131L16.0116 1.83397C15.8796 1.86845 15.75 1.91165 15.6236 1.96331C15.265 2.10731 15.1236 2.27931 14.7796 2.45131C14.4503 2.60864 13.921 2.80731 13.921 2.80731C13.921 2.80731 13.7636 2.89397 13.5343 2.94997C13.3063 3.00864 13.2916 2.99531 13.1343 3.02331C13.0066 3.03067 12.8827 3.07011 12.7743 3.13797C12.6986 3.17723 12.6308 3.23012 12.5743 3.29397L12.3743 3.59664L12.2583 3.76597C12.2303 3.82331 12.2023 3.85131 12.189 3.90864C12.1596 3.98064 12.145 4.00997 12.1316 4.08197C12.089 4.25264 12.1316 4.35397 12.1596 4.52597C12.1743 4.56864 12.1743 4.59797 12.189 4.64064C12.2023 4.68331 12.2583 4.72731 12.2583 4.72731L12.3156 4.74064C12.3156 4.74064 12.5183 4.72731 12.6463 4.69797C12.7756 4.66997 12.9623 4.62464 12.9623 4.62464L13.2036 4.55531L13.3636 4.49797C13.3636 4.49797 13.4636 4.49797 13.4783 4.55531C13.4916 4.59797 13.449 4.66997 13.449 4.66997C13.449 4.66997 13.3623 4.70997 13.2903 4.73931C13.2183 4.76864 13.0463 4.81131 13.033 4.82597L12.8463 4.88331L12.689 4.89797C12.689 4.89797 12.6596 4.91264 12.6316 4.95531C12.6023 4.99931 12.6023 4.99797 12.6023 5.02597C12.6316 5.05531 12.6463 5.08331 12.6756 5.11264C12.733 5.15531 12.761 5.18331 12.8316 5.19797C12.9316 5.24064 12.989 5.22731 13.089 5.22731C13.2142 5.22763 13.3376 5.19791 13.449 5.14064C13.5636 5.06864 13.6063 5.06997 13.7636 5.01264C13.8149 4.99753 13.8676 4.98814 13.921 4.98464C14.193 4.95531 14.3476 4.99797 14.621 5.04197C14.893 5.08464 15.0236 5.17131 15.2956 5.21397C15.5823 5.25664 15.753 5.34197 16.053 5.27131C16.197 5.24197 16.2836 5.16997 16.3556 5.31264C16.4263 5.44197 16.413 5.51264 16.413 5.51264C16.413 5.51264 16.4116 5.60064 16.3116 5.87264C16.2103 6.14464 15.897 6.81797 15.897 6.81797L15.681 7.24731C15.681 7.24731 15.5076 7.58997 15.1076 8.03397C14.9661 8.19149 14.8239 8.34838 14.681 8.50464C14.681 8.50464 14.4663 8.66331 14.2516 8.93531C14.037 9.20731 14.0343 9.30731 13.8343 9.50864C13.705 9.63664 13.6343 9.70864 13.477 9.80997C13.3196 9.90997 13.133 9.88064 12.6316 10.2233C12.2023 10.5246 11.973 10.77 11.9436 10.7553C11.9156 10.742 11.7716 10.6246 11.7143 10.5953C11.6716 10.5686 10.8423 10.01 10.8423 10.01L10.4983 9.78064L10.3396 9.67931L10.3116 9.62197L10.2276 9.50731C10.2276 9.50731 10.0983 9.34997 9.94096 9.22197C9.77794 9.06431 9.5744 8.95493 9.35296 8.90597C9.10896 8.83531 8.95296 8.79131 8.71029 8.87797C8.57295 8.923 8.44915 9.00187 8.35029 9.10731C8.20762 9.24997 8.17829 9.36464 8.06362 9.53664C7.94896 9.70864 7.83429 9.86731 7.77696 9.95264C7.71962 10.0393 7.60496 10.2686 7.60496 10.2686C7.60496 10.2686 7.31962 10.726 7.16229 11.026C6.97562 11.3553 6.90496 11.558 6.73296 11.8726C6.46096 12.374 6.07296 12.8886 5.97296 13.1166L5.86096 13.3753C5.86096 13.3753 5.83029 13.502 5.81696 13.5886C5.80229 13.674 5.80229 13.818 5.78762 13.8753C5.7755 13.9326 5.75141 13.9866 5.71696 14.034C5.70362 14.0473 5.54496 14.3766 5.48762 14.5913C5.43029 14.8046 5.30096 15.4793 5.45962 15.5646C5.61696 15.6513 6.77562 15.1513 6.93296 14.6633C7.03429 14.3486 6.61829 14.19 6.73296 13.9033C6.77562 13.8033 6.80496 13.79 6.87562 13.69C6.99029 13.5033 6.94762 13.118 7.16229 12.7606C7.31962 12.5033 7.63429 12.1713 8.06362 11.6846C8.33562 11.3846 8.59429 10.898 8.59429 10.898C8.59429 10.898 8.65162 10.726 8.76762 10.7553C8.89562 10.7833 9.00896 10.7686 9.00896 10.7686L9.06629 10.8126L9.18096 10.9273L9.35296 11.1846C9.35296 11.1846 9.64096 11.598 9.73962 11.714C9.84096 11.8286 9.94096 11.914 10.085 12.0286C10.2423 12.1713 10.2983 12.2433 10.4983 12.402C10.785 12.63 10.6836 12.7166 10.3116 12.5153C10.1569 12.4368 9.99418 12.3751 9.82629 12.3313C9.65562 12.2873 9.01029 12.1153 8.68096 12.0726C8.36629 12.03 8.30762 12.0446 8.30762 12.0446C8.30762 12.0446 8.15029 12.0286 7.96496 12.1433C7.77829 12.258 7.67829 12.3433 7.67829 12.3433C7.67829 12.3433 7.46362 12.5873 7.44896 12.63C7.43562 12.6726 7.33429 12.8433 7.33429 12.8433C7.33429 12.8433 7.27562 12.9313 7.26229 13.03C7.23296 13.1313 7.24896 13.2313 7.24896 13.2313L7.26229 13.4446L7.27696 13.6446C7.27696 13.6446 7.32096 14.1473 7.42096 14.6486C7.44896 14.7913 7.47829 15.0206 7.47829 15.0206L7.54762 15.5366C7.54762 15.5366 7.59162 16.082 7.63429 16.2673C7.67696 16.4406 7.70629 16.454 7.73562 16.5673C7.79296 16.782 7.69296 16.882 7.79296 17.1406C7.89296 17.398 7.97962 17.3673 8.07962 17.526C8.15162 17.6406 8.17829 17.6686 8.23562 17.8126C8.29296 17.9553 8.47962 18.43 8.69429 18.7726C8.92362 19.1313 9.22496 19.574 9.42629 19.5313C9.62629 19.4873 9.76896 19.174 9.76896 19.174C9.76896 19.174 9.99829 18.5566 9.85562 17.9553C9.71162 17.3393 9.05296 17.6286 8.96762 17.1846C8.95429 17.0846 8.96762 16.9273 8.96762 16.9273C8.96762 16.9273 8.95162 16.7393 8.92362 16.682C8.89429 16.6246 8.66496 16.1966 8.57962 15.838C8.50762 15.566 8.52229 14.6913 8.46496 14.4473C8.30762 13.818 8.29296 13.874 8.37829 13.7606C8.47962 13.646 8.56629 13.674 8.56629 13.674L8.69429 13.69L8.79562 13.7313L8.98096 13.846C9.03829 13.8886 9.23829 14.046 9.23829 14.046L9.72496 14.362C9.72496 14.362 9.99829 14.5206 10.113 14.578C10.2276 14.6353 10.3263 14.706 10.3263 14.706L10.4543 14.7913L10.6703 14.9513L10.7116 14.9913L10.741 15.0486C10.741 15.0486 10.8423 15.2793 11.2716 15.5233C11.6156 15.7233 11.917 15.6646 12.045 15.8233C12.0743 15.8513 12.3156 16.1833 12.4316 16.3833C12.5743 16.6113 12.7463 16.882 12.8036 16.9686C12.861 17.054 13.2196 17.4966 13.2196 17.4966L13.6916 18.0126L14.309 18.586L14.8663 19.0593L15.2223 19.346C15.2223 19.346 15.5383 19.6473 15.897 19.89C16.241 20.1193 16.2543 20.1473 16.4836 20.3033C16.6543 20.4193 16.8836 20.578 17.113 20.75C17.3423 20.9366 17.601 21.278 17.501 21.3926C17.429 21.4353 17.2996 21.2513 17.0556 21.0366C16.8966 20.8936 16.7297 20.7597 16.5556 20.6353C16.2983 20.4353 16.1676 20.3326 15.881 20.1606C15.7383 20.0753 15.481 19.9193 15.4676 19.9473C15.3676 20.2486 15.3796 20.534 15.3943 20.906C15.4076 21.1633 15.4516 21.4206 15.537 21.75C15.609 22.0646 15.681 22.238 15.7956 22.538C15.9103 22.8393 16.1263 23.3113 16.1263 23.3113L16.4543 23.9713L16.7556 24.4713L16.913 24.7286L16.9703 24.814C16.9703 24.814 17.041 24.9873 16.9703 25.1006C16.8996 25.214 16.8116 25.4593 16.6836 25.474C16.5543 25.502 16.2543 25.518 16.2543 25.518L14.5503 25.4886L13.6623 25.4166C13.6623 25.4166 13.5636 25.3593 13.049 25.3593C12.7476 25.3593 12.5036 25.4873 12.3316 25.502C12.189 25.5153 11.4863 25.4593 11.0143 25.6446C10.5703 25.8313 10.369 25.874 10.2116 26.1606C10.097 26.3753 10.7716 26.7206 11.329 26.8486C12.2316 27.0486 11.973 26.662 12.3156 26.4193C12.3596 26.39 12.3743 26.3633 12.4183 26.3486C12.6463 26.2766 12.7743 26.4606 13.005 26.4606C13.261 26.4606 13.405 26.3753 13.6623 26.3326C14.965 26.1606 16.9983 26.7753 16.9983 26.7753C16.9983 26.7753 17.501 26.9326 17.7303 26.89C18.0023 26.8326 17.9436 26.7326 18.029 26.5753C18.101 26.446 18.073 26.4193 18.0863 26.2753C18.0863 26.19 18.073 26.1473 18.0583 26.062C18.001 25.818 17.845 25.474 17.845 25.474C17.845 25.474 17.729 25.2166 17.685 25.0873C17.629 24.902 17.5716 24.786 17.5423 24.586C17.457 24.0553 17.4716 24.0993 17.4716 23.7993C17.4716 23.2553 17.529 22.954 17.6716 22.4246C17.8876 21.6513 18.289 21.322 18.589 20.578C18.6756 20.378 18.6743 20.0913 18.7756 20.062C18.889 20.0486 18.8756 20.4206 18.8183 20.6353C18.6316 21.3793 18.1743 21.694 17.9596 22.4526C17.8023 23.0393 17.7156 23.382 17.7596 23.9833C17.773 24.3126 17.9023 24.83 17.9023 24.83C17.9023 24.83 18.0743 25.402 18.1596 25.6166C18.2463 25.8313 18.417 26.19 18.417 26.19L18.8036 26.8766L19.0036 27.2046C19.0036 27.2046 19.145 27.334 19.0743 27.5486C19.0023 27.7633 18.861 27.8953 18.6876 28.0806C18.2023 28.654 17.0716 29.4966 16.785 29.6966C16.385 29.998 16.397 30.0846 16.3676 30.1713C16.2103 30.63 15.7516 30.6433 15.2516 31.1873C15.137 31.302 14.837 31.6153 14.8943 31.8873C14.9223 31.9873 16.1543 32.2033 16.8703 31.9033C17.4303 31.6593 16.9423 31.386 17.0996 31.114C17.2143 30.914 17.4996 30.914 17.629 30.7406C17.8423 30.4553 17.6996 30.47 17.8863 30.242C18.5023 29.4966 18.9036 29.0686 20.0063 28.3953C20.1063 28.338 20.293 28.2526 20.293 28.2526C20.293 28.2526 20.449 28.1793 20.5063 28.0926C20.5783 27.978 20.5636 27.8793 20.5636 27.75C20.5636 27.6633 20.5503 27.622 20.5503 27.5366C20.5503 27.4353 20.5636 27.378 20.5343 27.278C20.5063 27.1206 20.4076 26.9913 20.3503 26.9046C20.2389 26.768 20.1646 26.605 20.1343 26.4313C20.0562 26.1676 20.0718 25.8849 20.1783 25.6313C20.293 25.3313 20.5503 25.0886 20.5503 25.0886L21.193 24.658C21.193 24.658 21.753 24.2566 21.9263 24.098C22.1116 23.9406 22.469 23.6113 22.7263 23.2393C23.0276 22.8246 23.185 22.566 23.313 22.066C23.3556 21.8793 23.3996 21.594 23.3996 21.594C23.3996 21.594 23.3996 21.394 23.5143 21.3806C23.6276 21.366 23.657 21.4073 23.657 21.4073C23.657 21.4073 23.7556 21.4633 23.785 21.75C23.7983 22.0366 23.7143 22.3673 23.7143 22.3673C23.7143 22.3673 23.6276 22.6953 23.5996 22.8953C23.5863 23.0246 23.5836 23.0953 23.5836 23.2393C23.5836 23.4833 23.685 23.6846 23.685 23.6846C23.685 23.6846 23.7423 23.7273 23.7423 23.6273C23.75 23.4722 23.7746 23.3184 23.8156 23.1686C23.8583 23.026 23.8863 23.0526 23.9716 22.8086C24.0863 22.494 23.985 22.5246 24.0423 22.338C24.0716 22.2526 24.1436 22.166 24.229 22.166C24.3156 22.166 24.329 22.2806 24.329 22.2806C24.329 22.2806 24.4156 22.654 24.345 22.9966C24.273 23.3406 24.0143 23.8126 24.0143 23.8126L23.8156 24.1553C23.8156 24.1553 23.673 24.3993 23.6156 24.5566C23.5583 24.7286 23.5423 24.8006 23.5716 24.9566C23.6143 25.13 23.745 25.3606 23.8156 25.3166C23.873 25.274 23.7303 25.13 23.9023 24.786C24.0743 24.442 24.2996 24.2286 24.2996 24.2286C24.2996 24.2286 24.6156 23.8553 24.7583 23.57C24.8876 23.3126 25.017 22.8953 25.017 22.8953C25.017 22.8953 25.1183 22.522 25.089 22.2073C25.0756 21.9073 25.017 21.75 25.017 21.75L24.889 21.5206L24.8156 21.3513L24.845 21.25C24.873 21.2353 24.9743 21.3073 25.061 21.422C25.1654 21.5565 25.2383 21.7128 25.2743 21.8793C25.3134 22.0095 25.3327 22.1447 25.3316 22.2806C25.3316 22.3953 25.2903 22.8673 25.461 23.1686C25.533 23.3126 25.705 23.6406 25.7196 23.4966C25.7476 23.1673 25.6036 23.0113 25.6183 22.71C25.6316 22.3673 25.7196 22.4526 25.7476 22.2806C25.777 22.094 25.8183 22.05 25.7903 21.8073C25.7614 21.6278 25.7186 21.4508 25.6623 21.278L25.561 21.0486L25.5183 20.9633C25.5183 20.9633 25.5463 20.922 25.589 20.922L25.933 20.8073C25.933 20.8073 26.3783 20.6073 26.5503 20.4633C26.737 20.334 26.9503 20.1033 26.9503 20.1033C26.9503 20.1033 27.237 19.7473 27.381 19.49C27.725 18.8446 27.7236 18.0286 27.709 17.6553C27.6956 17.298 27.5943 16.8246 27.5943 16.8246C27.5943 16.8246 27.4796 16.2513 27.509 15.8793C27.537 15.5073 27.5663 15.3353 27.5663 15.3353C27.5663 15.3353 27.553 14.9633 27.8676 14.562C28.1823 14.162 28.3236 13.9046 28.381 13.6033C28.4383 13.346 28.3516 12.9313 28.237 13.0886C28.109 13.2606 28.0543 13.6046 27.8676 13.89C27.6103 14.2913 27.2356 14.778 27.0503 14.778C26.9503 14.778 26.9223 14.5486 26.9223 14.5486C26.9223 14.5486 26.7943 14.162 27.009 13.674C27.1663 13.33 27.2503 13.2313 27.4516 12.974C27.6383 12.73 27.7516 12.6006 27.881 12.3433C27.9956 12.114 28.0223 12.0713 28.0943 11.714C28.1076 11.6273 28.081 11.442 27.9956 11.4553C27.881 11.4553 27.5663 12.1446 27.237 12.5313C26.9223 12.8886 26.3343 13.346 26.3343 13.346C26.3343 13.346 26.277 13.3873 26.277 13.2726C26.2636 13.1726 26.2476 12.8726 26.305 12.602C26.3769 12.2617 26.5082 11.9367 26.693 11.642C26.965 11.17 27.3076 10.842 27.4796 10.6686C27.5516 10.598 27.7663 10.4673 27.653 10.3953C27.5516 10.338 27.2503 10.5953 27.021 10.7686C26.7356 10.982 26.6356 11.042 26.3503 11.386C26.0636 11.7286 25.9903 11.8726 25.9903 11.8726C25.9903 11.8726 25.7183 12.3153 25.6463 12.7446C25.5743 13.174 25.5756 13.4166 25.5756 13.4166C25.5756 13.4166 25.5756 13.8046 25.6183 14.034C25.6463 14.2766 25.7476 14.6473 25.7476 14.6473C25.7476 14.6473 25.8916 15.0646 25.9476 15.3233C26.0063 15.5806 26.105 16.338 26.105 16.338C26.105 16.338 26.177 16.8833 26.133 17.398C26.0903 17.914 26.0476 18.214 25.9903 18.3713C25.933 18.53 25.777 18.9446 25.5183 19.2313C25.2756 19.5033 25.217 19.546 25.217 19.546C25.217 19.546 24.9596 19.7593 24.745 19.874C24.5283 19.9913 24.3032 20.0925 24.0716 20.1766C23.9535 20.1977 23.8341 20.2115 23.7143 20.218H23.529L23.4716 20.178L23.441 20.062C23.441 20.062 23.2996 19.5033 23.129 19.146C22.985 18.8446 22.6836 18.43 22.6836 18.43C22.6836 18.43 22.1676 17.7273 21.7663 17.3406C21.3076 16.8833 20.793 16.5406 20.477 16.2966C20.3623 16.2113 20.105 16.0513 20.105 16.0513C20.105 16.0513 19.061 15.0073 18.689 14.1766C18.4303 13.6033 18.2596 13.19 18.3316 12.5593C18.345 12.4166 18.4023 12.1433 18.4303 12.1433L18.617 12.2006C18.633 12.214 18.8036 12.3726 18.9623 12.43C19.0476 12.458 19.2036 12.4873 19.2036 12.4873C19.2036 12.4873 19.333 12.5006 19.4036 12.5153C19.4756 12.5446 19.605 12.5873 19.6903 12.63C19.777 12.6726 19.9036 12.7606 19.9036 12.7606L20.149 12.9446L20.4076 13.1446C20.4076 13.1446 20.549 13.246 20.5916 13.2606C20.6343 13.274 20.6636 13.2886 20.6783 13.2886H20.7356C20.7356 13.2886 20.7943 13.2726 20.8076 13.2153C20.8223 13.1446 20.737 13.202 20.6076 13.0593C20.5278 12.9907 20.4602 12.9091 20.4076 12.818C20.4076 12.818 20.3783 12.702 20.2636 12.5726C20.149 12.4433 20.0063 12.33 20.0063 12.33C20.0063 12.33 19.905 12.2593 19.761 12.2153C19.6183 12.1726 19.5743 12.1713 19.561 12.114C19.5476 12.0566 19.733 12.086 19.733 12.086C19.733 12.086 19.949 12.114 20.1196 12.2006C20.293 12.286 20.3916 12.3873 20.3916 12.3873L20.5063 12.4873L20.5796 12.5593L20.649 12.602C20.649 12.602 20.721 12.6726 20.7356 12.5726C20.749 12.4873 20.721 12.4153 20.7063 12.4006L20.6356 12.33L20.3503 12.086C20.2812 12.0114 20.2043 11.9443 20.121 11.886C20.0051 11.8043 19.8798 11.7372 19.7476 11.686C19.605 11.6273 19.5196 11.642 19.3756 11.57C19.2756 11.5273 19.189 11.4993 19.1316 11.414C19.117 11.4006 19.0463 11.3406 19.1756 11.37C19.3036 11.398 19.389 11.442 19.5316 11.4713C19.761 11.5286 19.905 11.5273 20.121 11.5993C20.2063 11.6273 20.321 11.6846 20.321 11.6846L20.5916 11.7993C20.5916 11.7993 20.965 12.0006 21.2223 12.0153C21.413 12.0301 21.6046 12.0009 21.7823 11.93C21.8862 11.8874 21.983 11.8289 22.069 11.7566C22.0953 11.7309 22.1185 11.7023 22.1383 11.6713L22.1676 11.5993V11.542C22.0956 11.4553 21.9543 11.686 21.725 11.7286C21.481 11.7726 21.4943 11.7993 21.337 11.7713C21.1838 11.7553 21.0417 11.6842 20.937 11.5713C20.7063 11.3553 20.6223 11.1553 20.321 11.026C20.193 10.9686 19.961 10.9113 19.961 10.9113C19.961 10.9113 19.6463 10.8113 19.4743 10.7113C19.3463 10.6393 19.077 10.5966 19.1623 10.482C19.205 10.4246 19.549 10.6246 19.805 10.654C19.9916 10.682 20.121 10.6686 20.2636 10.6686C20.4063 10.6686 20.6076 10.6246 20.637 10.6246C20.665 10.6113 20.7783 10.6246 20.8783 10.654C20.9783 10.682 21.0356 10.7246 21.1356 10.7686C21.237 10.8113 21.353 10.8833 21.381 10.8833L21.4383 10.898L21.4676 10.87L21.481 10.8406L21.4676 10.8126L21.4223 10.7833L21.337 10.726C21.337 10.726 21.209 10.654 21.0943 10.5393C20.9796 10.4246 20.8783 10.2966 20.7076 10.2393C20.5343 10.182 20.3343 10.154 20.3343 10.154L20.1343 10.138L20.0476 10.1246C20.0476 10.1246 19.905 10.0806 20.0196 10.0526C20.0849 10.0327 20.1519 10.0184 20.2196 10.01C20.3292 9.98626 20.443 9.99085 20.5503 10.0233C20.665 10.066 20.8516 10.166 20.865 10.166C20.8796 10.1806 21.0516 10.3113 21.2383 10.354C21.425 10.3966 21.6676 10.4113 21.6676 10.4113L21.7823 10.3833L21.8396 10.3673L21.881 10.338L21.8676 10.2686C21.8676 10.2686 21.8676 10.21 21.7823 10.1953C21.6326 10.1779 21.4894 10.1244 21.365 10.0393C21.2076 9.92464 21.0943 9.80997 21.0943 9.80997C21.0943 9.80997 20.9796 9.70864 20.7503 9.64997C20.537 9.59397 20.465 9.59397 20.465 9.59397L20.3916 9.56464L20.2356 9.49531C20.2356 9.49531 20.1623 9.45131 20.105 9.38064C20.0476 9.30864 19.9636 9.17797 20.2063 9.24997C20.4503 9.32197 20.5063 9.36464 20.5063 9.36464C20.5063 9.36464 20.6356 9.49397 20.7503 9.50731C20.8223 9.52197 20.8796 9.53664 20.9236 9.47931C20.9943 9.40731 20.793 9.32197 20.649 9.22064C20.5577 9.1493 20.48 9.06213 20.4196 8.96331C20.4196 8.96331 20.3356 8.89264 20.465 8.92197C20.593 8.94997 20.821 9.09397 20.821 9.09397C20.821 9.09397 20.9356 9.14997 20.9943 9.16464C21.0356 9.17797 21.1516 9.24997 21.209 9.27797C21.2516 9.29264 21.3823 9.32197 21.4663 9.36464C21.581 9.43664 21.6396 9.55131 21.6956 9.59397C21.753 9.63664 21.797 9.70997 21.869 9.72331C21.9396 9.73797 21.953 9.76597 21.9956 9.73664C22.0156 9.72409 22.0347 9.71028 22.053 9.69531C22.053 9.69531 22.0663 9.66464 21.9956 9.62197C21.925 9.57931 21.8396 9.46597 21.8396 9.46597L21.8103 9.40864L21.7956 9.35131L21.725 9.23664L21.5943 9.04997C21.5943 9.04997 21.3943 8.77797 21.209 8.67664C21.037 8.57664 20.9076 8.52064 20.9076 8.52064C20.9076 8.52064 20.8223 8.47931 20.7796 8.44997C20.7076 8.39264 20.6783 8.34731 20.6196 8.27664C20.549 8.18997 20.5223 8.13531 20.4356 8.04997C20.2783 7.89264 19.7916 7.80464 19.977 7.68997C20.0783 7.63264 20.2063 7.66331 20.2636 7.67664C20.321 7.69131 20.4503 7.74597 20.5796 7.78864C20.665 7.81797 20.7223 7.82064 20.8076 7.84864C20.8943 7.87797 20.9943 7.88997 21.037 7.91931C21.0796 7.94731 21.1236 8.00597 21.1516 8.02064C21.1663 8.03397 21.2796 8.22064 21.4796 8.32064C21.6796 8.42064 21.7823 8.49131 21.9823 8.50464C22.1396 8.51931 22.3956 8.46464 22.3956 8.46464C22.3956 8.46464 22.469 8.43397 22.4116 8.36197C22.341 8.28997 22.3396 8.27664 22.2823 8.26331C22.053 8.17664 21.869 8.20597 21.6956 8.03397C21.625 7.96197 21.5943 7.94731 21.537 7.83397C21.4796 7.71931 21.5103 7.69131 21.4676 7.62064C21.4383 7.54864 21.365 7.44731 21.365 7.44731C21.365 7.44731 21.1516 7.18864 20.9223 7.06064C20.7645 6.98045 20.6153 6.8844 20.477 6.77397C20.4343 6.74464 20.3503 6.62997 20.3503 6.62997L20.277 6.51531L20.2356 6.42997C20.2063 6.27264 20.4916 6.47397 20.649 6.53131C20.9076 6.61664 21.037 6.73131 21.2956 6.81797C21.4383 6.86064 21.525 6.85931 21.6676 6.91664C21.9103 7.01664 21.9823 7.26064 22.241 7.28997C22.3836 7.30331 22.6703 7.36064 22.613 7.23131C22.5556 7.08864 22.269 7.08864 22.1263 6.91664C22.0543 6.84464 22.0543 6.77531 21.9823 6.70331C21.8676 6.55931 21.5956 6.42997 21.5956 6.42997C21.5956 6.42997 21.5103 6.35931 21.409 6.15931C21.3236 5.95931 21.109 5.81264 20.7223 5.62731C20.465 5.49931 19.949 5.46997 20.149 5.34064C20.2636 5.25531 20.3636 5.26997 20.5223 5.31264C20.6796 5.36997 20.7356 5.44331 20.865 5.49931C20.9943 5.55797 21.0516 5.57131 21.0783 5.58597C21.1076 5.59931 21.2076 5.64331 21.2516 5.64331C21.2783 5.65664 21.4956 5.68597 21.553 5.70064L21.8396 5.77131L22.069 5.85664C22.069 5.85664 22.1823 5.90064 22.253 5.90064C22.3236 5.90064 22.441 5.87264 22.441 5.87264L22.5263 5.81531L22.5396 5.78597C22.5396 5.78597 22.5836 5.71531 22.469 5.70064C22.4125 5.6916 22.3555 5.68626 22.2983 5.68464L22.1956 5.65664L22.1556 5.64331C22.1556 5.64331 21.9543 5.48597 21.7823 5.41397C21.7098 5.38683 21.6378 5.35838 21.5663 5.32864L21.4956 5.31264L21.4103 5.29931C21.4103 5.29931 21.337 5.29931 21.2223 5.19797C21.1076 5.09797 21.065 5.04064 20.965 4.94064L20.837 4.81264C20.837 4.81264 20.7223 4.72464 20.7223 4.65264C20.7356 4.53931 20.9796 4.78331 20.9796 4.78331L21.153 4.89797C21.153 4.89797 21.2956 4.99931 21.553 5.01264C21.8103 5.02731 22.1263 4.94064 22.1263 4.94064C22.1263 4.94064 22.1676 4.91397 22.3103 4.95531C22.453 4.99664 22.569 5.08331 22.569 5.08331L22.6836 5.18464L22.8556 5.36997L22.8836 5.35664C22.897 5.34331 22.9703 5.26997 22.8423 5.11264C22.713 4.95397 22.4983 4.81264 22.4983 4.81264C22.4983 4.81264 22.2116 4.64064 21.925 4.58331C21.6396 4.52597 21.509 4.52597 21.509 4.52597C21.509 4.52597 21.2943 4.52597 21.165 4.38331C21.0356 4.23931 20.9516 4.09664 20.9516 4.09664L20.9076 3.89664C20.9076 3.89664 20.837 3.80997 20.6943 3.75264C20.565 3.69531 20.4196 3.60997 20.4196 3.60997C20.4196 3.60997 20.2063 3.53797 20.1903 3.43664C20.1476 3.25131 20.5503 3.43664 20.7636 3.47931C20.9636 3.52197 21.0503 3.59531 21.2503 3.63931C21.3993 3.68163 21.5549 3.69521 21.709 3.67931C21.809 3.67931 21.8663 3.66864 21.9663 3.65264C22.0676 3.65264 22.1396 3.63931 22.241 3.65264C22.3836 3.68197 22.441 3.75264 22.5836 3.80997C22.6703 3.85264 22.713 3.89397 22.813 3.90864C22.8996 3.92331 23.0716 3.98197 23.0423 3.89531L22.9983 3.83797C22.9263 3.73797 22.8423 3.73797 22.7556 3.66731C22.569 3.52331 22.4836 3.40997 22.269 3.30997C22.1482 3.24541 22.0175 3.20125 21.8823 3.17931C21.7663 3.16597 21.681 3.19531 21.5663 3.16597C21.437 3.12331 21.3956 3.06597 21.2663 2.99531C21.0663 2.88064 20.9503 2.77931 20.7356 2.69264C20.609 2.64712 20.4799 2.60884 20.349 2.57797L20.2476 2.56464L20.2076 2.54997C20.0063 2.47797 20.5636 2.32197 20.821 2.24997C20.9503 2.22197 21.0076 2.19131 21.1356 2.20597C21.2503 2.21931 21.3796 2.37931 21.509 2.30731C21.6956 2.20731 21.2943 1.93397 21.165 1.89131C20.993 1.81931 20.693 1.87797 20.693 1.87797L20.0343 1.86197L19.8476 1.83397C19.8476 1.83397 19.733 1.83397 19.6476 1.73397C19.561 1.63397 19.233 1.23131 18.861 1.17397C18.4743 1.11664 18.3596 1.17397 18.3316 1.14731C18.0023 0.629974 17.657 0.516641 17.3983 0.273974C17.3276 0.201974 17.2143 0.0433073 17.185 0.057974L17.1863 0.0566406ZM18.7503 1.57664C18.7729 1.57555 18.7956 1.57555 18.8183 1.57664L18.889 1.62064C18.9476 1.67864 18.9959 1.74629 19.0316 1.82064C19.0463 1.87797 18.861 1.80731 18.7903 1.79131C18.7176 1.77102 18.6496 1.73658 18.5903 1.68997C18.5903 1.68997 18.5596 1.64731 18.6303 1.60464C18.6674 1.58546 18.7085 1.57674 18.7503 1.57664ZM19.0863 2.28331C19.121 2.28331 19.1463 2.29131 19.1463 2.29131L19.217 2.33664C19.2757 2.39461 19.3239 2.46227 19.3596 2.53664C19.3743 2.59397 19.189 2.52331 19.1183 2.50731C19.0456 2.48702 18.9776 2.45258 18.9183 2.40597C18.9183 2.40597 18.889 2.36331 18.9756 2.32064C19.0074 2.29653 19.0464 2.28385 19.0863 2.28464V2.28331ZM16.577 2.30197C16.6126 2.30016 16.6483 2.30195 16.6836 2.30731C16.6836 2.30731 16.741 2.30731 16.8263 2.34864C16.913 2.40597 16.9703 2.57797 16.9703 2.57797C16.9703 2.57797 16.9836 2.60731 16.913 2.60731C16.869 2.60731 16.869 2.53664 16.8263 2.50731C16.769 2.46464 16.7263 2.44997 16.6543 2.42197C16.5836 2.39397 16.4836 2.43531 16.4703 2.36464C16.4703 2.32197 16.5236 2.30597 16.577 2.30197ZM15.4516 2.46864C15.5076 2.45264 15.4516 2.56464 15.4516 2.56464C15.4516 2.56464 15.2663 2.86464 15.009 2.97931C14.7516 3.09397 14.5796 3.15264 14.0916 3.19531C14.021 3.19531 14.0516 3.15131 14.0516 3.15131C14.0516 3.15131 14.6076 2.99531 14.9236 2.82331C15.0743 2.73967 15.2179 2.64379 15.353 2.53664C15.3816 2.50868 15.415 2.48476 15.4516 2.46864ZM16.4543 2.54864C16.4543 2.54864 16.541 2.55131 16.641 2.62197C16.7423 2.69397 16.8276 2.93797 16.8276 2.93797C16.8276 2.93797 16.857 3.09397 16.785 3.15131C16.713 3.20864 16.5983 3.10997 16.5396 3.02331C16.4885 2.95107 16.4126 2.90026 16.3263 2.88064C16.2116 2.83797 16.0396 2.96597 16.0116 2.88064C16.0116 2.85131 16.025 2.77931 16.025 2.77931C16.025 2.77931 16.0543 2.69397 16.1836 2.62331C16.2983 2.55131 16.4543 2.54997 16.4543 2.54997V2.54864ZM19.1183 3.10197C19.1756 3.10731 19.2556 3.15131 19.3183 3.15131C19.505 3.15131 19.661 3.15131 19.7903 3.17931C19.905 3.20864 19.933 3.27931 19.8756 3.27931C19.8339 3.29045 19.7908 3.29539 19.7476 3.29397C19.6196 3.29397 19.633 3.23664 19.4623 3.32331C19.289 3.40864 19.4183 3.36731 19.1756 3.45264C18.9463 3.53931 19.0023 3.30997 19.0023 3.30997C19.0023 3.30997 19.0196 3.26597 19.0476 3.14997C19.0583 3.10864 19.0836 3.09797 19.1183 3.10197ZM12.6596 3.76597C12.7463 3.76597 12.905 3.82464 12.905 3.95264C12.9183 4.08197 12.817 4.02464 12.745 4.06731C12.7036 4.09664 12.6756 4.11131 12.6183 4.15397C12.5463 4.21131 12.4743 4.35397 12.4316 4.30997C12.373 4.26731 12.4023 4.10997 12.4023 4.10997C12.4023 4.10997 12.4463 3.99531 12.5036 3.88064C12.5756 3.76597 12.6596 3.76597 12.6596 3.76597ZM19.509 3.91397C19.5315 3.91504 19.5539 3.91862 19.5756 3.92464C19.5756 3.92464 19.6183 3.93797 19.6463 3.96597C19.6756 3.99531 19.7903 4.09664 19.7903 4.15264C19.7903 4.19664 19.605 4.12331 19.5196 4.10997C19.433 4.09531 19.3196 4.00997 19.3196 4.00997C19.3196 4.00997 19.2903 3.98331 19.3756 3.94064C19.4172 3.92093 19.463 3.91177 19.509 3.91397ZM16.9823 4.03131C16.9956 4.03131 16.9943 4.05131 16.969 4.09664C16.913 4.21131 16.741 4.35397 16.741 4.35397C16.741 4.35397 16.541 4.63931 16.4983 4.68197C16.3116 4.82597 16.0823 4.74064 15.9823 4.75531C15.897 4.76864 15.9543 4.68197 15.9543 4.68197C15.9543 4.68197 16.1983 4.58331 16.3543 4.49797C16.565 4.39264 16.9236 4.03131 16.9823 4.03131ZM14.0383 4.28331C14.069 4.28331 14.093 4.29664 14.093 4.34064C14.1076 4.44064 13.9223 4.51131 13.9223 4.51131C13.9223 4.51131 13.8663 4.52597 13.8516 4.42597C13.8383 4.32597 13.9223 4.31131 13.9223 4.31131C13.9223 4.31131 13.989 4.27931 14.0383 4.28331ZM17.585 4.43931C17.609 4.42597 17.589 4.56864 17.589 4.56864C17.589 4.56864 17.545 4.75664 17.445 4.81397C17.317 4.88597 16.9996 4.97131 16.9716 4.92864C16.9716 4.89931 17.3863 4.76864 17.5716 4.45531C17.5748 4.44901 17.5793 4.44353 17.585 4.43931ZM19.5236 4.49131C19.547 4.49143 19.5702 4.49411 19.593 4.49931C19.593 4.49931 19.633 4.51264 19.677 4.53931C19.7196 4.58331 19.821 4.69931 19.8356 4.75664C19.849 4.81397 19.649 4.74331 19.549 4.72864C19.4636 4.71397 19.333 4.61397 19.333 4.61397C19.333 4.61397 19.3063 4.56997 19.393 4.52731C19.432 4.50264 19.4775 4.49011 19.5236 4.49131ZM17.789 4.81664C17.8156 4.80864 17.773 4.92864 17.773 4.92864C17.773 4.92864 17.7156 5.11531 17.601 5.15797C17.4583 5.20064 16.9156 5.21397 16.901 5.17131C16.8876 5.12731 17.5303 5.06997 17.773 4.82731C17.7772 4.82231 17.7827 4.81862 17.789 4.81664ZM19.5676 5.06331C19.5945 5.06328 19.6213 5.06596 19.6476 5.07131C19.6476 5.07131 19.6916 5.08464 19.7343 5.11397C19.777 5.15664 19.8916 5.28731 19.9063 5.35797C19.9196 5.44464 19.7063 5.35797 19.6063 5.32997C19.5167 5.30293 19.4334 5.25853 19.361 5.19931C19.361 5.19931 19.333 5.15797 19.4183 5.10064C19.4635 5.07429 19.5153 5.06134 19.5676 5.06331ZM19.5676 5.77931C19.5945 5.77928 19.6213 5.78196 19.6476 5.78731C19.6476 5.78731 19.6916 5.80064 19.7343 5.82997C19.777 5.87264 19.8916 6.00331 19.9063 6.07397C19.9196 6.14597 19.7063 6.05931 19.6063 6.02997C19.5168 6.00406 19.4334 5.96054 19.361 5.90197C19.361 5.90197 19.333 5.87397 19.4183 5.81664C19.4637 5.79075 19.5154 5.77827 19.5676 5.78064V5.77931ZM17.477 6.46464C17.5876 6.49664 17.4863 7.30331 17.273 7.67797C16.9981 8.13795 16.6657 8.56093 16.2836 8.93664C16.0836 9.07931 16.213 8.82197 16.213 8.82197C16.213 8.82197 16.7703 8.04997 17.029 7.50597C17.2156 7.11931 17.3303 6.60464 17.4156 6.50331C17.4423 6.47397 17.461 6.46064 17.477 6.46464ZM19.5436 6.47531C19.5747 6.47632 19.6055 6.48079 19.6356 6.48864C19.6356 6.48864 19.6916 6.50197 19.7343 6.54597C19.777 6.58864 19.921 6.74731 19.9343 6.81931C19.9343 6.90464 19.6916 6.78864 19.5783 6.77531C19.4788 6.7473 19.3865 6.69818 19.3076 6.63131C19.3076 6.63131 19.277 6.57397 19.377 6.51664C19.4267 6.4854 19.4851 6.47092 19.5436 6.47531ZM19.453 7.16864C19.4798 7.16817 19.5066 7.17041 19.533 7.17531C19.533 7.17531 19.577 7.19131 19.6196 7.22064C19.6623 7.26331 19.777 7.39131 19.7916 7.46197C19.805 7.53397 19.5916 7.44864 19.4916 7.43397C19.4031 7.4077 19.3206 7.3642 19.249 7.30597C19.249 7.30597 19.2223 7.26197 19.3063 7.20464C19.3507 7.17883 19.4016 7.16633 19.453 7.16864ZM19.4116 7.78997C19.4329 7.78891 19.4543 7.78891 19.4756 7.78997L19.549 7.83397C19.6081 7.8919 19.6568 7.95955 19.693 8.03397C19.693 8.09264 19.5196 8.02064 19.4343 8.00731C19.349 7.99264 19.2343 7.90731 19.2343 7.90731C19.2343 7.90731 19.205 7.86464 19.2916 7.82197C19.3285 7.80201 19.3697 7.79105 19.4116 7.78997ZM19.333 8.39931C19.3531 8.40055 19.3732 8.40322 19.393 8.40731L19.4503 8.43664C19.4783 8.46464 19.5623 8.54997 19.5623 8.59264C19.5623 8.64997 19.4063 8.57931 19.349 8.57931C19.2915 8.56213 19.2384 8.53306 19.193 8.49397C19.193 8.49397 19.177 8.46331 19.233 8.42064C19.2623 8.39931 19.2996 8.39797 19.333 8.39931ZM19.213 8.96197C19.2294 8.96188 19.2459 8.96277 19.2623 8.96464L19.3196 8.99397C19.349 9.02197 19.4183 9.09397 19.4183 9.13664C19.405 9.16597 19.2756 9.10864 19.2183 9.10864C19.168 9.09118 19.12 9.06744 19.0756 9.03797C19.0756 9.03797 19.0623 9.00864 19.1196 8.98064C19.149 8.96768 19.1809 8.96131 19.213 8.96197ZM9.06762 9.23797C9.22496 9.26731 9.25429 9.28064 9.23962 9.35264C9.25296 9.42464 9.05429 9.42331 9.05429 9.42331C9.05429 9.42331 8.76629 9.48197 8.81029 9.38197C8.86762 9.28064 9.06762 9.23797 9.06762 9.23797ZM19.0823 9.40464C19.1116 9.40464 19.1356 9.40997 19.1356 9.40997L19.193 9.43931C19.221 9.46731 19.2916 9.53931 19.2916 9.58197C19.277 9.62464 19.1476 9.56864 19.0916 9.55397C19.033 9.53931 18.9476 9.48064 18.9476 9.48064C18.9476 9.48064 18.9343 9.45131 18.9916 9.42331C19.0201 9.41035 19.0511 9.40397 19.0823 9.40464ZM18.9223 9.90731C18.9357 9.90728 18.949 9.90817 18.9623 9.90997L19.005 9.93931C19.0183 9.95264 19.0903 10.0246 19.0903 10.054C19.0903 10.0966 18.989 10.054 18.9316 10.0406C18.889 10.0273 18.8196 9.98331 18.8196 9.98331C18.8196 9.98331 18.8063 9.95397 18.849 9.92597C18.8707 9.91305 18.897 9.90657 18.9223 9.90731ZM14.841 10.0673C14.9221 10.0673 15.0031 10.0722 15.0836 10.082C15.4836 10.1393 15.8703 10.498 15.8116 10.5406C15.7543 10.5833 15.669 10.5406 15.6396 10.5406L15.497 10.47L15.281 10.4126C15.281 10.4126 14.8943 10.326 14.609 10.3393C14.3223 10.354 14.065 10.454 14.065 10.454C14.065 10.454 13.9503 10.5126 13.9223 10.4406C13.9076 10.3553 13.9663 10.3113 13.9663 10.3113L13.9796 10.282C13.9796 10.282 14.3076 10.0646 14.841 10.0673ZM8.02362 10.238C8.03296 10.238 8.03696 10.2406 8.03696 10.2406L8.06496 10.27C8.05162 10.27 8.10762 10.4126 7.97962 10.5553C7.85029 10.6993 7.45029 11.458 7.36496 11.3286C7.27829 11.2286 7.75162 10.5113 7.85162 10.3686C7.92629 10.25 7.99429 10.238 8.02362 10.238ZM18.757 10.394C18.777 10.394 18.7916 10.3966 18.7916 10.3966L18.833 10.4126L18.9063 10.5113C18.8916 10.554 18.805 10.526 18.7623 10.5113C18.7196 10.5113 18.661 10.454 18.661 10.454C18.661 10.454 18.6476 10.4406 18.6903 10.414C18.7102 10.4011 18.7333 10.3942 18.757 10.394ZM9.71296 10.798C9.73562 10.79 9.75162 10.8086 9.77029 10.814L9.84096 10.842L9.88496 10.8846L10.029 11.0273C10.0863 11.1126 10.2423 11.4006 10.213 11.4273C10.085 11.5566 10.0423 11.3846 9.85696 11.17C9.67029 10.97 9.71296 10.798 9.71296 10.798ZM18.557 10.8646C18.5684 10.865 18.5796 10.8673 18.5903 10.8713L18.633 10.8846L18.705 10.986C18.705 11.014 18.6183 10.97 18.5756 10.97C18.5316 10.97 18.4756 10.9126 18.4756 10.9126C18.4756 10.9126 18.4463 10.8993 18.489 10.8846C18.5094 10.872 18.533 10.8656 18.557 10.866V10.8646ZM12.0916 11.386C12.1383 11.39 12.0743 11.4726 12.0743 11.4726C12.0743 11.4726 11.829 11.8006 11.6863 12.002C11.4996 12.2726 11.2703 12.6873 11.2276 12.6446C11.185 12.602 11.429 12.146 11.5583 11.902C11.701 11.602 11.9156 11.4446 12.001 11.4153C12.0289 11.3998 12.0598 11.3903 12.0916 11.3873V11.386ZM8.02229 12.4593L8.05029 12.4886C8.05029 12.4886 8.06496 12.5446 7.96496 12.702C7.86496 12.8593 7.79162 12.8606 7.79162 12.8606C7.79162 12.8473 7.76496 12.79 7.85029 12.618C7.93562 12.446 8.02229 12.4593 8.02229 12.4593ZM6.26629 13.0193C6.27458 13.0215 6.28201 13.0262 6.28762 13.0326C6.33029 13.09 6.20229 13.3473 6.20229 13.3473C6.20229 13.3473 6.07296 13.618 6.02896 13.5033C5.98629 13.4033 6.07429 13.218 6.07429 13.218C6.17429 13.13 6.21829 13.01 6.26629 13.0193ZM17.6863 13.3886C17.8143 13.4033 17.801 13.6473 17.801 13.7046C17.8436 14.1193 18.017 14.5366 18.3316 15.038C18.7756 15.7393 19.4916 16.2833 19.4623 16.3273C19.3903 16.398 18.6756 15.8393 18.417 15.5246C17.9876 15.0086 17.6703 14.45 17.5716 13.7486C17.5423 13.5913 17.5423 13.3606 17.6863 13.3886ZM9.25429 13.5886C9.28229 13.5886 9.41029 13.634 9.41029 13.634L9.72496 13.762C9.73829 13.762 9.89829 13.834 10.0276 13.9046L10.3396 14.1046L10.4276 14.178C10.4276 14.2073 10.5276 14.3646 10.3263 14.322C10.1263 14.278 9.69696 13.9486 9.52496 13.8633C9.35162 13.778 9.06762 13.7486 9.19696 13.634C9.21029 13.6206 9.22496 13.5886 9.25429 13.5886ZM7.73429 14.3793C7.74398 14.3774 7.75394 14.3774 7.76362 14.3793C7.85029 14.3793 7.85029 14.4486 7.85029 14.4486V14.4926C7.85029 14.4926 7.84896 14.7513 7.86362 14.9513C7.86362 15.0086 8.02229 15.6526 8.02229 15.6526C8.02229 15.6526 8.05029 15.71 7.99296 15.71C7.95029 15.71 7.90762 15.6233 7.90762 15.6233C7.90762 15.6233 7.79162 15.4526 7.74762 15.3246C7.70629 15.21 7.69162 15.022 7.69162 15.022C7.69162 15.022 7.66229 14.7793 7.66229 14.694C7.67696 14.5793 7.67696 14.478 7.69162 14.4206C7.69358 14.4104 7.69856 14.401 7.70593 14.3936C7.7133 14.3862 7.72405 14.3813 7.73429 14.3793ZM5.74762 14.722C5.76074 14.7186 5.77451 14.7186 5.78762 14.722C5.87296 14.7366 5.82896 14.8926 5.82896 14.9646C5.82896 15.0366 5.74629 15.1646 5.71696 15.1646C5.68896 15.1646 5.63029 15.0366 5.64496 14.9646C5.65829 14.902 5.66762 14.742 5.74762 14.722ZM13.0036 15.9126C13.1663 15.8993 13.637 16.5753 14.321 17.3126C15.0943 18.1446 15.9956 18.9326 16.025 19.0326C16.0823 19.2046 15.3943 18.6593 15.0223 18.374C14.0343 17.614 12.8316 16.0686 12.9756 15.926C12.9832 15.9186 12.9931 15.9139 13.0036 15.9126ZM26.701 16.61C26.7276 16.6073 26.7503 16.642 26.7503 16.642L26.7796 16.6833C26.7796 16.7126 26.9503 17.3846 26.9356 17.814C26.9063 18.414 26.8796 18.8446 26.5223 19.3033C26.0916 19.862 25.3463 20.4366 25.5036 19.978C25.6036 19.706 26.2636 19.362 26.521 18.6033C26.665 18.1446 26.6943 17.714 26.6943 17.714L26.665 16.842C26.665 16.842 26.649 16.7713 26.649 16.67C26.665 16.6273 26.6836 16.6126 26.701 16.61ZM19.397 18.1033C19.5303 18.118 19.5903 18.202 19.433 18.3166C19.2463 18.4446 19.1756 18.43 19.0596 18.558C18.9316 18.7153 18.8903 19.2473 18.761 19.0326C18.633 18.818 18.7183 18.5166 18.9343 18.2873C18.9917 18.2226 19.0634 18.1722 19.1438 18.14C19.2241 18.1079 19.3107 18.0962 19.397 18.1033ZM8.99829 18.6886C9.05296 18.678 9.19696 18.7873 9.19696 18.7873C9.26762 18.8006 9.33962 18.9313 9.33962 18.9313C9.33962 18.9313 9.36896 19.0326 9.28229 19.0606C9.19696 19.1033 9.13962 19.0166 9.13962 19.0166C9.13962 19.0166 8.95296 18.7593 8.97962 18.702C8.98147 18.6984 8.98412 18.6954 8.98736 18.6931C8.99061 18.6908 8.99435 18.6892 8.99829 18.6886ZM22.741 20.722C22.769 20.722 22.8276 20.7513 22.8996 20.8953C22.9716 21.0393 22.785 22.0526 22.5556 21.9086C22.4263 21.8233 22.6263 21.5673 22.6263 21.3526C22.6263 21.1806 22.597 21.05 22.597 20.9073C22.597 20.7646 22.741 20.722 22.741 20.722ZM18.4916 22.4886C18.5423 22.494 18.5556 22.566 18.4863 22.71C18.3863 22.9246 18.3583 22.9966 18.3436 23.198C18.3143 23.4113 18.445 24.0113 18.245 23.7846C18.173 23.6833 18.101 23.2113 18.1583 22.982C18.221 22.6593 18.4063 22.482 18.4916 22.4886ZM17.3983 25.3126C17.4463 25.306 17.4703 25.33 17.4703 25.33C17.4996 25.3873 17.441 25.446 17.4263 25.4606C17.3723 25.4886 17.3143 25.508 17.2543 25.518C17.169 25.5313 17.2143 25.4606 17.2143 25.4606C17.2143 25.4606 17.269 25.3726 17.341 25.33C17.359 25.321 17.3783 25.3152 17.3983 25.3126ZM13.5623 25.6166C13.677 25.6166 13.677 25.674 13.677 25.674C13.677 25.7166 13.633 25.7326 13.517 25.718C13.4183 25.7046 13.405 25.6753 13.4196 25.6606C13.4196 25.6473 13.4476 25.6166 13.5623 25.6166ZM14.4316 25.658C14.4424 25.6568 14.4532 25.6577 14.4636 25.6606C14.4636 25.6606 14.9503 25.746 15.265 25.7593C15.4943 25.774 15.609 25.79 15.8383 25.7753C15.9676 25.7753 15.8956 25.7593 16.0956 25.7593C16.1676 25.746 16.125 25.8473 16.0676 25.862C15.853 25.9193 15.7663 25.8886 15.581 25.9033C15.4223 25.9166 15.3503 25.9313 15.193 25.9313C14.921 25.9313 14.8943 25.9473 14.5076 25.8326C14.4356 25.8046 14.3476 25.718 14.377 25.69C14.3831 25.6809 14.3912 25.6733 14.4007 25.6678C14.4101 25.6622 14.4207 25.6589 14.4316 25.658ZM11.185 25.7446C11.353 25.7486 11.2996 25.8046 11.2996 25.8046C11.2996 25.8046 11.2983 25.8606 11.1983 25.9313C11.097 26.0033 11.0556 25.9606 11.041 25.9606C11.0276 25.9606 10.9263 25.9033 10.9263 25.846C10.941 25.7886 11.0996 25.7473 11.0996 25.7473C11.128 25.7446 11.1565 25.7437 11.185 25.7446ZM20.1996 27.718C20.2112 27.7177 20.2229 27.7186 20.2343 27.7206L20.2623 27.778C20.2623 27.7913 20.1476 27.9513 20.0903 27.9513C20.0196 27.9353 20.0463 27.8513 20.0463 27.8513C20.0463 27.8513 20.0183 27.7646 20.1036 27.7366C20.1344 27.7254 20.1668 27.7191 20.1996 27.718ZM19.1303 28.142C19.141 28.142 19.1543 28.1433 19.161 28.15V28.2073C19.1743 28.2513 18.801 28.6673 18.5436 28.9113C18.301 29.1406 17.885 29.4553 17.885 29.4553H17.8276V29.382L17.8436 29.354L17.8716 29.3113L17.901 29.2673L17.929 29.2273L18.0156 29.1246L18.2156 28.9393L18.4156 28.7526L18.7316 28.4366C18.7316 28.4366 18.845 28.31 18.8876 28.2806C18.9303 28.2526 18.9596 28.2233 19.0023 28.1953C19.045 28.174 19.0956 28.1446 19.1303 28.142ZM17.0596 29.866C17.0714 29.8643 17.0835 29.865 17.0949 29.8682C17.1064 29.8715 17.1171 29.877 17.1263 29.8846C17.1703 29.9846 17.0996 30.0126 17.0996 30.0126L16.969 30.114C16.9543 30.114 16.869 30.186 16.841 30.142C16.8116 30.0993 16.8543 30.042 16.8543 30.0273C16.8543 30.014 16.941 29.914 17.013 29.8846C17.0271 29.8753 17.043 29.8689 17.0596 29.866ZM15.6636 31.1913C15.7223 31.1846 15.765 31.2726 15.765 31.2726C15.765 31.2726 15.7943 31.314 15.7943 31.3713C15.7943 31.4153 15.665 31.4006 15.5943 31.458C15.5076 31.5153 15.681 31.6886 15.4076 31.674C15.2516 31.6606 15.337 31.5166 15.3516 31.502L15.4503 31.3593C15.5223 31.258 15.5663 31.2433 15.637 31.1993C15.6451 31.1946 15.6542 31.1919 15.6636 31.1913Z" fill="black" style="fill:black;fill-opacity:1;"/>
</g>
<defs>
<clipPath id="clip0_49_13962">
<rect width="32" height="32" fill="white" style="fill:white;fill-opacity:1;" transform="translate(0.891235 0.0566406)"/>
</clipPath>
</defs>
</svg>
