<svg width="94" height="33" viewBox="0 0 94 33" fill="none" xmlns="http://www.w3.org/2000/svg">
<g clip-path="url(#clip0_49_13964)">
<path d="M16.8908 1.93945C13.1894 2.0629 9.68473 3.63587 7.13227 6.31928C4.57981 9.00269 3.18401 12.5816 3.24574 16.2846C3.30747 19.9875 4.8218 23.518 7.46229 26.1148C10.1028 28.7116 13.658 30.1669 17.3614 30.1669C21.0649 30.1669 24.6201 28.7116 27.2606 26.1148C29.901 23.518 31.4154 19.9875 31.4771 16.2846C31.5388 12.5816 30.143 9.00269 27.5906 6.31928C25.0381 3.63587 21.5334 2.0629 17.832 1.93945H16.8908ZM36.6555 1.93945C32.9541 2.0629 29.4494 3.63587 26.897 6.31928C24.3445 9.00269 22.9487 12.5816 23.0104 16.2846C23.0722 19.9875 24.5865 23.518 27.227 26.1148C29.8675 28.7116 33.4227 30.1669 37.1261 30.1669C40.8296 30.1669 44.3848 28.7116 47.0253 26.1148C49.6658 23.518 51.1801 19.9875 51.2418 16.2846C51.3036 12.5816 49.9077 9.00269 47.3553 6.31928C44.8028 3.63587 41.2981 2.0629 37.5967 1.93945H36.6555ZM56.4203 1.93945C52.7188 2.0629 49.2141 3.63587 46.6617 6.31928C44.1092 9.00269 42.7134 12.5816 42.7752 16.2846C42.8369 19.9875 44.3512 23.518 46.9917 26.1148C49.6322 28.7116 53.1874 30.1669 56.8908 30.1669C60.5943 30.1669 64.1495 28.7116 66.79 26.1148C69.4305 23.518 70.9448 19.9875 71.0065 16.2846C71.0683 12.5816 69.6724 9.00269 67.12 6.31928C64.5675 3.63587 61.0628 2.0629 57.3614 1.93945H56.4203ZM76.185 1.93945C72.4835 2.0629 68.9789 3.63587 66.4264 6.31928C63.8739 9.00269 62.4781 12.5816 62.5399 16.2846C62.6016 19.9875 64.1159 23.518 66.7564 26.1148C69.3969 28.7116 72.9521 30.1669 76.6555 30.1669C80.359 30.1669 83.9142 28.7116 86.5547 26.1148C89.1952 23.518 90.7095 19.9875 90.7712 16.2846C90.833 12.5816 89.4372 9.00269 86.8847 6.31928C84.3322 3.63587 80.8275 2.0629 77.1261 1.93945H76.185Z" stroke="black" style="stroke:black;stroke-opacity:1;" stroke-width="2.88235"/>
</g>
<defs>
<clipPath id="clip0_49_13964">
<rect width="92.2353" height="32" fill="white" style="fill:white;fill-opacity:1;" transform="translate(0.891235 0.0566406)"/>
</clipPath>
</defs>
</svg>
