<svg width="23" height="33" viewBox="0 0 23 33" fill="none" xmlns="http://www.w3.org/2000/svg">
<path d="M22.9496 4.27475V0.12624C22.9496 0.112201 22.9454 0.0983548 22.9374 0.0868161C22.9297 0.0752775 22.9185 0.066239 22.9056 0.0612389C22.8925 0.0562388 22.8782 0.0552773 22.8648 0.0585466C22.8513 0.0618158 22.839 0.0693159 22.8297 0.0797007L15.2366 8.64808C14.6926 9.26193 14.3812 10.0516 14.3581 10.8764L13.8914 27.3924C13.8911 27.4079 13.8956 27.4231 13.9047 27.4356C13.9138 27.4481 13.9267 27.4572 13.9413 27.4614C13.9561 27.4656 13.9717 27.4649 13.9859 27.4589C14.0002 27.4531 14.0119 27.4427 14.0195 27.4293L14.967 25.7648C15.0784 25.5693 15.151 25.3537 15.1812 25.1298L16.5351 15.0691C16.7321 13.6058 17.3827 12.2437 18.3932 11.1795L21.5084 7.89826C22.4329 6.92459 22.9492 5.62592 22.9492 4.27475H22.9496Z" fill="#181C25" style="fill:#181C25;fill:color(display-p3 0.0941 0.1098 0.1451);fill-opacity:1;"/>
<path d="M0.949585 4.27475V0.12624C0.949585 0.112201 0.95376 0.0983548 0.961729 0.0868161C0.969509 0.0752775 0.980705 0.066239 0.993798 0.0612389C1.0067 0.0562388 1.02093 0.0552773 1.03441 0.0585466C1.04788 0.0618158 1.06021 0.0693159 1.06951 0.0797007L8.66255 8.64808C9.20658 9.26193 9.51797 10.0516 9.54112 10.8764L10.0077 27.3924C10.0081 27.4079 10.0036 27.4231 9.99445 27.4356C9.98534 27.4481 9.97243 27.4572 9.95782 27.4614C9.94302 27.4656 9.92746 27.4649 9.91323 27.4589C9.899 27.4531 9.88723 27.4427 9.87964 27.4293L8.9322 25.7648C8.82081 25.5693 8.74813 25.3537 8.71796 25.1298L7.36387 15.0691C7.16691 13.6058 6.51624 12.2437 5.50579 11.1795L2.39058 7.89826C1.46591 6.92479 0.949585 5.62612 0.949585 4.27475Z" fill="#181C25" style="fill:#181C25;fill:color(display-p3 0.0941 0.1098 0.1451);fill-opacity:1;"/>
<path d="M12.9254 9.3827L12.0396 8.60519C12.0146 8.58327 11.9827 8.57115 11.9497 8.57115C11.9167 8.57115 11.8846 8.58327 11.8597 8.60519L10.9741 9.3827C10.8971 9.4504 10.836 9.53443 10.7948 9.62886C10.7538 9.72348 10.7341 9.82598 10.737 9.92925L11.3307 30.956C11.3324 31.0137 11.3482 31.0703 11.3766 31.1203L11.8901 32.0216C11.8962 32.0324 11.9049 32.0411 11.9153 32.0472C11.9258 32.0534 11.9377 32.0566 11.9497 32.0566C11.9616 32.0566 11.9736 32.0534 11.984 32.0472C11.9945 32.0411 12.0032 32.0324 12.0093 32.0216L12.5231 31.1199C12.5516 31.0699 12.5673 31.0134 12.569 30.9557L13.1628 9.92925C13.1656 9.82598 13.1459 9.72348 13.1049 9.62886C13.0639 9.53424 13.0026 9.4502 12.9256 9.38251L12.9254 9.3827Z" fill="#181C25" style="fill:#181C25;fill:color(display-p3 0.0941 0.1098 0.1451);fill-opacity:1;"/>
</svg>
