<svg width="34" height="25" viewBox="0 0 34 25" fill="none" xmlns="http://www.w3.org/2000/svg">
<path fill-rule="evenodd" clip-rule="evenodd" d="M17.6506 1.36548C18.1644 1.37971 18.1098 1.74075 18.0248 1.86522C16.5085 4.22399 12.9258 8.37729 10.3171 12.9341C9.88525 13.6725 9.56361 14.2157 9.56361 15.0259C9.56361 16.1244 10.2494 17.4232 11.627 17.9805C12.5333 18.3436 13.1038 18.3547 14.0819 18.3689C21.3436 18.5934 24.2547 18.3972 30.7526 18.1767C31.1279 18.1757 31.4768 17.9229 31.6023 17.7701C32.8586 16.4602 33.5828 14.1054 33.5828 12.0278C33.5828 7.40016 30.2499 3.23175 25.0507 1.22697L24.2163 2.29712C28.7731 4.18052 31.1279 7.9423 31.1279 11.9711C31.1279 12.8775 30.9741 13.7554 30.6959 14.5939C30.4896 15.1787 30.2358 15.5144 29.4973 15.5256C24.2021 15.6388 21.204 15.7218 15.8946 15.5822C15.2098 15.5681 14.9883 15.3182 14.877 14.776C14.792 14.4544 14.8629 14.1873 15.0844 13.7838C17.9004 8.79504 22.8062 3.09315 23.7692 1.74075C23.9522 1.49093 23.8663 0.987213 23.2381 0.820339C21.4002 0.277137 19.3378 0.0566406 17.247 0.0566406C7.78029 0.0950683 1.1033 5.41958 0.949585 12.0278C1.32892 19.9601 8.22632 24.0566 17.247 24.0566C22.7668 24.0566 27.8233 22.1054 30.782 19.0112L28.0488 19.1214C25.5251 21.366 21.4822 22.5656 17.3006 22.5656C9.67889 22.5656 3.47328 18.7755 3.47328 11.9711C3.47328 6.11861 9.67783 1.35135 17.3006 1.35135L17.6506 1.36548Z" fill="black" style="fill:black;fill-opacity:1;"/>
</svg>
