<svg width="33" height="22" viewBox="0 0 33 22" fill="none" xmlns="http://www.w3.org/2000/svg">
<g clip-path="url(#clip0_49_25362)">
<path d="M16.5823 0.799805C7.82814 0.799805 0.730225 5.39147 0.730225 11.054C0.730225 16.7186 7.82814 21.3123 16.5823 21.3123C25.3365 21.3123 32.4344 16.7206 32.4344 11.054C32.4344 5.3873 25.3365 0.799805 16.5823 0.799805ZM16.5823 16.9102C15.2802 16.9102 14.2177 14.3456 14.1511 11.1186C14.9344 11.1873 15.749 11.2248 16.5823 11.2248C17.4156 11.2248 18.2302 11.1873 19.0136 11.1186C18.9469 14.3436 17.8844 16.9102 16.5823 16.9102ZM14.3115 8.55605C14.6656 6.2748 15.549 4.65605 16.5823 4.65605C17.6156 4.65605 18.499 6.2748 18.8531 8.55605C18.1261 8.62064 17.3677 8.65605 16.5823 8.65605C15.7969 8.65605 15.0386 8.62064 14.3115 8.55605ZM16.5823 2.28314C14.8823 2.28314 13.4323 4.82897 12.8969 8.38314C9.67397 7.88105 7.42397 6.73522 7.42397 5.40397C7.42397 3.60814 11.524 2.15189 16.5823 2.15189C21.6406 2.15189 25.7406 3.60814 25.7406 5.40397C25.7406 6.73522 23.4906 7.88105 20.2677 8.38314C19.7323 4.82897 18.2823 2.28314 16.5823 2.28314ZM3.00314 10.6706C3.00314 8.93314 3.67189 7.30189 4.83647 5.90189C4.82397 5.9998 4.81564 6.0998 4.81564 6.1998C4.81564 8.38939 8.09897 10.2561 12.6802 10.9436C12.6761 11.1019 12.6761 11.2623 12.6761 11.4227C12.6761 15.504 13.8198 18.9602 15.4011 20.1331C8.45314 19.7144 3.00314 15.6373 3.00314 10.6706ZM17.7636 20.1331C19.3448 18.9602 20.4886 15.504 20.4886 11.4227C20.4886 11.2602 20.4865 11.1019 20.4844 10.9436C25.0636 10.2561 28.349 8.39147 28.349 6.1998C28.349 6.0998 28.3406 5.9998 28.3281 5.90189C29.4927 7.30605 30.1615 8.93314 30.1615 10.6706C30.1615 15.6373 24.7115 19.7144 17.7636 20.1331Z" fill="#282830" style="fill:#282830;fill:color(display-p3 0.1569 0.1569 0.1882);fill-opacity:1;"/>
</g>
<defs>
<clipPath id="clip0_49_25362">
<rect width="32" height="20.8" fill="white" style="fill:white;fill-opacity:1;" transform="translate(0.582764 0.65625)"/>
</clipPath>
</defs>
</svg>
